{
.appVersion = "3115";
.formatVersion = 3;
axes = (
{
name = Weight;
tag = wght;
},
{
name = Width;
tag = wdth;
}
);
customParameters = (
{
name = fsType;
value = (
);
},
{
name = "Use Typo Metrics";
value = 1;
},
{
name = "Write lastChange";
value = 0;
},
{
name = "Use Line Breaks";
value = 1;
},
{
name = "Axis Mappings";
value = {
wdth = {
75 = 3;
87.5 = 4;
100 = 5;
112.5 = 6;
125 = 7;
};
wght = {
300 = 300;
400 = 400;
500 = 500;
600 = 600;
700 = 700;
};
};
},
{
name = "Variable Font Origin";
value = "988D29BF-96E2-481F-8769-6B283BD5795A";
}
);
date = "2016-11-13 09:03:20 +0000";
familyName = Fredoka;
featurePrefixes = (
{
automatic = 1;
code = "languagesystem DFLT dflt;

languagesystem latn dflt;

languagesystem hebr dflt;
languagesystem hebr IWR;
";
name = Languagesystems;
}
);
features = (
{
automatic = 1;
code = "feature sups;
feature frac;
feature ordn;
";
tag = aalt;
},
{
automatic = 1;
code = "sub one by onesuperior;
sub two by twosuperior;
sub three by threesuperior;
";
tag = sups;
},
{
code = "script latn;
sub one slash two by onehalf;
sub one slash four by onequarter;
sub three slash four by threequarters;
sub zero slash zero zero by perthousand;
sub zero slash zero by percent;
";
tag = frac;
},
{
code = "script latn;
sub j j by j_j;
sub t t by t_t;
sub f f i by f_f_i;
sub f t by f_t;
sub f f by f_f;
sub f i by fi;
sub f l by fl;
sub l l by l_l;
";
tag = liga;
},
{
automatic = 1;
code = "lookup ccmp_latn_1 {
	sub fi by f i;
	sub fl by f l;
} ccmp_latn_1;

script latn;
lookup ccmp_latn_1;
";
tag = ccmp;
},
{
automatic = 1;
code = "sub [zero one two three four five six seven eight nine] [A a]' by ordfeminine;
sub [zero one two three four five six seven eight nine] [O o]' by ordmasculine;
";
tag = ordn;
},
{
automatic = 1;
code = "lookupflag IgnoreMarks;
sub f t by f_t;
sub j j by j_j;
sub l l by l_l;
sub t t by t_t;
";
tag = dlig;
}
);
fontMaster = (
{
axesValues = (
300,
3
);
customParameters = (
{
name = winDescent;
value = 252;
},
{
name = winAscent;

glyphs = (
{
color = 6;
glyphname = A;
kernLeft = A;
kernRight = d;
layers = (
{
anchors = (
{
name = bottom;
pos = (356,0);
},
{
name = ogonek;
pos = (640,10);
},
{
name = top;
pos = (356,700);
}
);
layerId = "05A6575B-AA27-4212-BC78-A0BDA398BBDE";
shapes = (
{
closed = 1;
nodes = (
(439,637,ls),
(422,671,o),
(391,691,o),
(356,691,cs),
(322,691,o),
(288,670,o),
(272,638,cs),
(21,118,ls),
(-9,58,o),
(2,29,o),
(64,-1,cs),
(127,-32,o),
(155,-23,o),
(187,40,cs),
(355,389,l),
(525,41,ls),
(556,-24,o),
(584,-33,o),
(648,-2,cs),
(710,29,o),
(720,58,o),
(690,118,cs)
);
},
{
closed = 1;
nodes = (
(514,136,l),
(438,292,l),
(273,292,l),
(197,136,l)
);
}
);
width = 711;
},
{
anchors = (
{
name = bottom;
pos = (210,0);
},
{
name = ogonek;
pos = (364,10);
},
{
name = top;
pos = (210,700);
}
);
layerId = "4383C18A-60F2-4889-B7DB-EDD0F2222092";
shapes = (
{
closed = 1;
nodes = (
(247,667,ls),
(243,683,o),
(224,686,o),
(210,686,cs),
(196,686,o),
(175,681,o),
(172,668,cs),
(31,38,ls),
(25,11,o),
(21,-1,o),
(41,-8,cs),
(62,-15,o),
(78,-12,o),
(82,6,cs),
(209,607,l),
(337,5,ls),
(341,-13,o),
(357,-17,o),
(377,-9,cs),
(394,-2,o),
(397,8,o),
(392,28,cs)
);
},
{
closed = 1;
nodes = (
(318,206,l),
(299,256,l),
(111,256,l),
(91,206,l)
);
}
);
width = 420;
},
{
anchors = (
{
name = bottom;
pos = (351,0);
},
{
name = ogonek;
pos = (647,10);
},
{
name = top;
pos = (347,700);
}
);
layerId = "988D29BF-96E2-481F-8769-6B283BD5795A";
shapes = (
{
closed = 1;
nodes = (
(378,668,ls),
(372,681,o),
(363,687,o),
(351,687,cs),
(339,687,o),
(328,679,o),
(323,669,cs),
(24,43,l),
(11,16,o),
(11,1,o),
(32,-7,cs),
(54,-15,o),
(65,-8,o),
(75,12,c),
(350,604,l),
(626,10,l),
(635,-9,o),
(647,-18,o),
(668,-8,cs),
(688,1,o),
(690,13,o),
(681,32,cs)
);
},
{
closed = 1;
nodes = (
(549,207,l),
(530,257,l),
(172,257,l),
(152,207,l)
);
}
);
width = 701;
},
{
anchors = (
{
name = bottom;
pos = (280,0);
},
{
name = ogonek;
pos = (473,10);
},
{
name = top;
pos = (273,700);
}
);
layerId = "C221B64C-0844-4CE6-BA2A-18F986CD7755";
shapes = (
{
closed = 1;
nodes = (
(371,636,ls),
(361,669,o),
(323,691,o),
(273,691,cs),
(223,691,o),
(185,670,o),
(175,637,cs),
(27,117,ls),
(11,64,o),
(-2,23,o),
(74,-1,cs),
(147,-25,o),
(189,-11,o),
(199,43,cs),
(273,426,l),
(347,43,ls),
(358,-12,o),
(400,-27,o),
(472,-2,cs),
(544,23,o),
(537,57,o),
(519,117,cs)
);
},
{
closed = 1;
nodes = (
(436,126,l),
(360,273,l),
(187,273,l),
(110,126,l)
);
}
);
width = 546;
},
{
anchors = (
{
name = bottom;
pos = (470,0);
},
{
name = ogonek;
pos = (867,10);
},
{
name = top;
pos = (470,700);
}
);
layerId = "F1D2FE0C-0290-44F9-97DF-753285E87900";
shapes = (
{
closed = 1;
nodes = (
(508,678,ls),
(500,691,o),
(493,694,o),
(475,694,cs),
(457,694,o),
(450,691,o),
(442,678,cs),
(45,30,ls),
(33,10,o),
(43,3,o),
(60,-6,cs),
(77,-15,o),
(87,-14,o),
(98,5,cs),
(475,621,l),
(852,5,ls),
(863,-14,o),
(873,-15,o),
(890,-6,cs),
(907,3,o),
(917,10,o),
(905,30,cs)
);
},
{
closed = 1;
nodes = (
(762,207,l),
(743,257,l),
(185,257,l),
(165,207,l)
);
}
);
width = 1005;
},
{
anchors = (
{
name = bottom;
pos = (509,0);
},
{
name = ogonek;
pos = (875,10);
},
{
name = top;
pos = (509,700);
}
);
layerId = "D56FD762-6887-41EE-B8AF-857F7388911F";
shapes = (
{
closed = 1;
nodes = (
(594,643,ls),
(582,659,o),
(553,695,o),
(508,695,cs),
(467,695,o),
(436,663,o),
(421,643,cs),
(26,121,l),
(-5,60,o),
(5,31,o),
(69,-5,cs),
(125,-36,o),
(154,-21,o),
(199,37,cs),
(507,440,l),
(816,37,ls),
(862,-23,o),
(890,-38,o),
(945,-6,cs),
(1012,33,o),
(1029,68,o),
(988,122,cs)
);
},
{
closed = 1;
nodes = (
(766,131,l),
(686,297,l),
(329,297,l),
(248,131,l)
);
}
);
width = 1017;
}
);
note = A;
unicode = 65;
},
{
color = 6;
glyphname = AE;
kernLeft = A;
kernRight = d;
layers = (
{
anchors = (
{
name = bottom;
pos = (534,0);
},
{
name = top;
pos = (534,700);
}
);
layerId = "05A6575B-AA27-4212-BC78-A0BDA398BBDE";
shapes = (
{
closed = 1;
nodes = (
(962,-8,ls),
(1006,-8,o),
(1054,-8,o),
(1054,83,cs),
(1054,172,o),
(1010,175,o),
(968,175,cs),
(688,175,l),
(688,250,l),
(859,250,ls),
(906,250,o),
(951,251,o),
(951,341,cs),
(951,431,o),
(905,433,o),
(860,433,cs),
(688,433,l),
(688,509,l),
(967,509,ls),
(1009,509,o),
(1054,511,o),
(1054,600,cs),
(1054,692,o),
(1007,692,o),
(963,692,cs),
(559,692,ls),
(531,692,o),
(509,682,o),
(493,665,c),
(24,148,l),
(-19,100,o),
(-22,77,o),
(24,19,cs),
(66,-29,o),
(109,-32,o),
(155,20,c),
(504,404,l),
(504,85,ls),
(504,34,o),
(546,-8,o),
(595,-8,cs)
);
},
{
closed = 1;
nodes = (
(520,129,l),
(520,286,l),
(380,286,l),
(238,129,l)
);
}
);
width = 1068;
},
{
anchors = (
{
name = bottom;
pos = (305,0);
},
{
name = top;
pos = (305,700);
}
);
layerId = "4383C18A-60F2-4889-B7DB-EDD0F2222092";
shapes = (
{
closed = 1;
nodes = (
(599,-11,ls),
(621,-11,o),
(629,-3,o),
(629,19,cs),
(629,41,o),
(623,49,o),
(606,49,cs),
(396,49,l),
(396,311,l),
(483,311,ls),
(505,311,o),
(513,319,o),
(513,341,cs),
(513,363,o),
(506,371,o),
(484,371,cs),
(396,371,l),
(396,627,l),
(605,627,ls),
(623,627,o),
(629,635,o),
(629,657,cs),
(629,679,o),
(622,687,o),
(600,687,cs),
(328,687,ls),
(313,687,o),
(303,687,o),
(299,677,cs),
(29,31,ls),
(20,10,o),
(21,1,o),
(41,-8,cs),
(61,-17,o),
(71,-16,o),
(81,9,cs),
(335,634,l),
(335,21,ls),
(335,4,o),
(350,-11,o),
(365,-11,cs)
);
},
{
closed = 1;
nodes = (
(357,205,l),
(357,254,l),
(151,254,l),
(123,205,l)
);
}
);
width = 663;
},
{
anchors = (
{
name = bottom;
pos = (574,0);
},
{
name = top;
pos = (574,700);
}
);
layerId = "988D29BF-96E2-481F-8769-6B283BD5795A";
shapes = (
{
closed = 1;
nodes = (
(1058,-11,ls),
(1080,-11,o),
(1088,-3,o),
(1088,19,cs),
(1088,41,o),
(1082,49,o),
(1065,49,cs),
(675,49,l),
(675,311,l),
(942,311,ls),
(964,311,o),
(972,319,o),
(972,341,cs),
(972,363,o),
(965,371,o),
(943,371,cs),
(675,371,l),
(675,627,l),
(1064,627,ls),
(1082,627,o),
(1088,635,o),
(1088,657,cs),
(1088,679,o),
(1081,687,o),
(1059,687,cs),
(607,687,ls),
(592,687,o),
(585,686,o),
(578,677,cs),
(53,43,ls),
(39,27,o),
(33,18,o),
(51,-1,cs),
(67,-18,o),
(79,-21,o),
(92,-3,c),
(614,634,l),
(614,21,ls),
(614,4,o),
(629,-11,o),
(644,-11,cs)
);
},
{
closed = 1;
nodes = (
(636,205,l),
(636,254,l),
(250,254,l),
(222,205,l)
);
}
);
width = 1148;
},
{
anchors = (
{
name = bottom;
pos = (368,0);
},
{
name = top;
pos = (368,700);
}
);
layerId = "C221B64C-0844-4CE6-BA2A-18F986CD7755";
shapes = (
{
closed = 1;
nodes = (
(647,-9,ls),
(692,-9,o),
(739,-9,o),
(739,82,cs),
(739,174,o),
(693,174,o),
(648,174,cs),
(531,174,l),
(531,263,l),
(584,263,ls),
(630,263,o),
(667,263,o),
(667,340,cs),
(667,419,o),
(631,419,o),
(586,419,cs),
(531,419,l),
(531,508,l),
(647,508,ls),
(692,508,o),
(739,508,o),
(739,599,cs),
(739,691,o),
(693,691,o),
(648,691,c),
(364,692,l),
(336,692,o),
(314,682,o),
(298,665,c),
(48,121,ls),
(30,81,o),
(17,34,o),
(102,3,cs),
(187,-28,o),
(202,14,o),
(218,56,cs),
(348,406,l),
(348,83,ls),
(348,38,o),
(348,-9,o),
(439,-9,cs)
);
},
{
closed = 1;
nodes = (
(365,129,l),
(365,286,l),
(259,286,l),
(154,129,l)
);
}
);
width = 774;
},
{
anchors = (
{
name = bottom;
pos = (778,0);
},
{
name = top;
pos = (778,700);
}
);
layerId = "F1D2FE0C-0290-44F9-97DF-753285E87900";
shapes = (
{
closed = 1;
nodes = (
(1485,-11,ls),
(1507,-11,o),
(1515,-3,o),
(1515,19,cs),
(1515,41,o),
(1508,49,o),
(1486,49,cs),
(800,49,l),
(800,320,l),
(1368,320,ls),
(1392,320,o),
(1400,327,o),
(1400,349,cs),
(1400,372,o),
(1392,380,o),
(1370,380,cs),
(800,380,l),
(800,627,l),
(1485,627,ls),
(1507,627,o),
(1515,634,o),
(1515,656,cs),
(1515,679,o),
(1508,687,o),
(1486,687,cs),
(735,687,l),
(720,687,o),
(715,685,o),
(706,677,cs),
(28,43,ls),
(10,27,o),
(11,14,o),
(26,1,cs),
(42,-13,o),
(52,-13,o),
(65,2,c),
(739,635,l),
(740,20,ls),
(740,-3,o),
(747,-11,o),
(769,-11,cs)
);
},
{
closed = 1;
nodes = (
(751,205,l),
(751,254,l),
(276,254,l),
(233,205,l)
);
}
);
width = 1560;
},
{
anchors = (
{
name = bottom;
pos = (658,0);
},
{
name = top;
pos = (658,700);
}
);
layerId = "D56FD762-6887-41EE-B8AF-857F7388911F";
shapes = (
{
closed = 1;
nodes = (
(1198,-9,ls),
(1243,-9,o),
(1290,-9,o),
(1290,82,cs),
(1290,174,o),
(1244,174,o),
(1199,174,cs),
(722,174,l),
(722,263,l),
(1105,263,ls),
(1151,263,o),
(1188,263,o),
(1188,340,cs),
(1188,419,o),
(1152,419,o),
(1107,419,cs),
(722,419,l),
(722,508,l),
(1198,508,ls),
(1243,508,o),
(1290,508,o),
(1290,599,cs),
(1290,691,o),
(1244,691,o),
(1199,691,cs),
(593,691,l),
(567,691,o),
(543,681,o),
(527,664,c),
(58,147,ls),
(15,99,o),
(10,74,o),
(58,18,cs),
(100,-31,o),
(144,-31,o),
(189,19,cs),
(539,403,l),
(539,70,l),
(540,30,o),
(548,-8,o),
(628,-9,cs)
);
},
{
closed = 1;
nodes = (
(554,128,l),
(554,285,l),
(414,285,l),
(272,128,l)
);
}
);
width = 1315;
}
);
note = AE;
unicode = 198;
},
{
color = 6;
glyphname = B;
kernRight = d;
layers = (
{
anchors = (
{
name = bottom;
pos = (303,0);
},
{
name = top;
pos = (303,700);
}
);
layerId = "05A6575B-AA27-4212-BC78-A0BDA398BBDE";
shapes = (
{
closed = 1;
nodes = (
(366,-8,ls),
(486,-8,o),
(587,91,o),
(589,219,cs),
(589,271,o),
(570,323,o),
(536,366,c),
(558,400,o),
(569,439,o),
(569,478,cs),
(569,592,o),
(477,692,o),
(356,692,cs),
(122,692,ls),
(30,692,o),
(30,645,o),
(30,601,cs),
(30,85,ls),
(30,39,o),
(30,-8,o),
(121,-8,cs)
);
},
{
closed = 1;
nodes = (
(213,509,l),
(334,509,ls),
(375,509,o),
(386,501,o),
(386,470,cs),
(386,436,o),
(376,432,o),
(355,432,cs),
(343,432,ls),
(287,432,o),
(264,413,o),
(264,358,cs),
(264,301,o),
(285,281,o),
(338,281,cs),
(351,281,ls),
(384,281,o),
(406,277,o),
(406,230,cs),
(406,175,o),
(370,175,o),
(356,175,cs),
(213,175,l)
);
}
);
width = 609;
},
{
anchors = (
{
name = bottom;
pos = (187,0);
},
{
name = top;
pos = (187,700);
}
);
layerId = "4383C18A-60F2-4889-B7DB-EDD0F2222092";
shapes = (
{
closed = 1;
nodes = (
(204,-11,ls),
(317,-11,o),
(396,76,o),
(398,187,cs),
(398,259,o),
(369,334,o),
(305,363,c),
(351,390,o),
(372,446,o),
(371,507,c),
(373,605,o),
(303,687,o),
(194,687,cs),
(103,687,ls),
(86,687,o),
(75,674,o),
(75,649,cs),
(75,29,ls),
(75,2,o),
(85,-11,o),
(102,-11,cs)
);
},
{
closed = 1;
nodes = (
(129,632,l),
(186,632,ls),
(273,632,o),
(319,586,o),
(319,497,cs),
(319,372,o),
(237,385,o),
(219,385,cs),
(214,385,ls),
(196,385,o),
(186,376,o),
(186,358,cs),
(186,338,o),
(194,328,o),
(209,328,cs),
(219,328,l),
(246,330,o),
(344,338,o),
(344,198,cs),
(344,103,o),
(294,43,o),
(194,43,cs),
(129,43,l)
);
}
);
width = 443;
},
{
anchors = (
{
name = bottom;
pos = (323,-3);
},
{
name = top;
pos = (323,700);
}
);
layerId = "988D29BF-96E2-481F-8769-6B283BD5795A";
shapes = (
{
closed = 1;
nodes = (
(396,-11,ls),
(509,-11,o),
(591,76,o),
(593,187,cs),
(593,264,o),
(556,338,o),
(497,368,c),
(543,395,o),
(567,451,o),
(566,509,c),
(568,607,o),
(495,687,o),
(386,687,cs),
(92,687,ls),
(75,687,o),
(64,674,o),
(64,649,cs),
(64,29,ls),
(64,2,o),
(74,-11,o),
(91,-11,cs)
);
},
{
closed = 1;
nodes = (
(123,632,l),
(356,632,ls),
(465,632,o),
(511,588,o),
(511,499,cs),
(511,381,o),
(410,390,o),
(362,390,cs),
(284,390,ls),
(268,390,o),
(258,381,o),
(258,363,cs),
(258,343,o),
(266,333,o),
(284,333,cs),
(362,333,ls),
(415,333,o),
(536,341,o),
(536,198,cs),
(536,103,o),
(486,43,o),
(386,43,cs),
(123,43,l)
);
}
);
width = 648;
},
{
anchors = (
{
name = bottom;
pos = (276,0);
},
{
name = top;
pos = (276,700);
}
);
layerId = "C221B64C-0844-4CE6-BA2A-18F986CD7755";
shapes = (
{
closed = 1;
nodes = (
(301,-8,ls),
(439,-8,o),
(522,66,o),
(524,209,cs),
(525,293,o),
(496,342,o),
(451,366,c),
(485,388,o),
(504,442,o),
(504,488,cs),
(504,623,o),
(425,692,o),
(291,692,cs),
(157,692,ls),
(65,692,o),
(65,645,o),
(65,601,cs),
(65,85,ls),
(65,39,o),
(65,-8,o),
(156,-8,cs)
);
},
{
closed = 1;
nodes = (
(248,509,l),
(279,509,ls),
(313,509,o),
(321,496,o),
(321,470,cs),
(321,445,o),
(321,432,o),
(313,432,cs),
(312,432,ls),
(284,432,o),
(279,404,o),
(279,358,cs),
(279,307,o),
(284,281,o),
(312,281,cs),
(314,281,ls),
(335,281,o),
(351,262,o),
(351,230,cs),
(351,194,o),
(334,175,o),
(301,175,cs),
(248,175,l)
);
}
);
width = 559;
},
{
anchors = (
{
name = bottom;
pos = (455,0);
},
{
name = top;
pos = (455,700);
}
);
layerId = "F1D2FE0C-0290-44F9-97DF-753285E87900";
shapes = (
{
closed = 1;
nodes = (
(693,-11,ls),
(806,-11,o),
(897,76,o),
(899,187,cs),
(900,257,o),
(872,338,o),
(793,368,c),
(847,395,o),
(873,451,o),
(872,509,c),
(874,607,o),
(792,687,o),
(683,687,cs),
(98,687,ls),
(81,687,o),
(70,674,o),
(70,649,cs),
(70,29,ls),
(70,2,o),
(80,-11,o),
(97,-11,cs)
);
},
{
closed = 1;
nodes = (
(129,632,l),
(653,632,ls),
(762,632,o),
(817,588,o),
(817,499,cs),
(817,381,o),
(706,390,o),
(686,390,cs),
(340,390,ls),
(324,390,o),
(314,381,o),
(314,363,cs),
(314,343,o),
(322,333,o),
(340,333,cs),
(686,333,ls),
(711,333,o),
(842,341,o),
(842,198,cs),
(842,103,o),
(783,43,o),
(683,43,cs),
(129,43,l)
);
}
);
width = 949;
},
{
anchors = (
{
name = bottom;
pos = (475,0);
},
{
name = top;
pos = (475,700);
}
);
layerId = "D56FD762-6887-41EE-B8AF-857F7388911F";
shapes = (
{
closed = 1;
nodes = (
(677,-8,ls),
(807,-8,o),
(934,76,o),
(934,204,cs),
(934,286,o),
(872,353,o),
(838,366,c),
(860,378,o),
(914,422,o),
(914,500,cs),
(914,614,o),
(798,692,o),
(667,692,cs),
(167,692,ls),
(75,692,o),
(75,645,o),
(75,601,cs),
(75,85,ls),
(75,39,o),
(75,-8,o),
(166,-8,cs)
);
},
{
closed = 1;
nodes = (
(258,509,l),
(659,509,ls),
(700,509,o),
(731,501,o),
(731,470,cs),
(731,435,o),
(693,432,o),
(662,432,cs),
(563,432,ls),
(502,432,o),
(479,413,o),
(479,358,cs),
(479,301,o),
(500,281,o),
(558,281,cs),
(666,281,ls),
(703,281,o),
(751,277,o),
(751,230,cs),
(751,175,o),
(695,175,o),
(681,175,cs),
(258,175,l)
);
}
);
width = 969;
}
);
note = B;
unicode = 66;
},
{
color = 6;
glyphname = C;
kernLeft = C;
kernRight = C;
layers = (
{
anchors = (
{
name = bottom;
pos = (346,0);
},
{
name = top;
pos = (346,700);
}
);
layerId = "05A6575B-AA27-4212-BC78-A0BDA398BBDE";
shapes = (
{
closed = 1;
nodes = (
(486,-19,o),
(548,28,o),
(562,37,c),
(588,53,o),
(617,71,o),
(617,104,cs),
(617,120,o),
(609,139,o),
(595,162,cs),
(570,200,o),
(548,219,o),
(525,219,cs),
(507,219,o),
(490,209,o),
(475,199,cs),
(450,182,o),
(423,166,o),
(372,166,cs),
(304,166,o),
(197,213,o),
(197,340,cs),
(197,466,o),
(302,514,o),
(372,514,cs),
(434,514,o),
(456,494,o),
(470,485,c),
(492,470,o),
(507,462,o),
(524,462,cs),
(547,462,o),
(569,479,o),
(596,516,cs),
(610,536,o),
(618,555,o),
(618,572,cs),
(618,606,o),
(589,625,o),
(563,642,c),
(551,649,o),
(480,698,o),
(379,698,cs),
(242,698,o),
(14,599,o),
(14,345,cs),
(14,81,o),
(246,-19,o),
(376,-19,cs)
);
}
);
width = 631;
},
{
anchors = (
{
name = bottom;
pos = (227,0);
},
{
name = top;
pos = (227,700);
}
);
layerId = "4383C18A-60F2-4889-B7DB-EDD0F2222092";
shapes = (
{
closed = 1;
nodes = (
(290,-10,o),
(305,-3,o),
(340,16,cs),
(360,27,o),
(373,42,o),
(377,53,cs),
(379,59,o),
(377,69,o),
(371,79,cs),
(366,87,o),
(356,91,o),
(348,91,cs),
(336,91,o),
(335,85,o),
(314,73,cs),
(277,52,o),
(266,51,o),
(234,51,cs),
(154,51,o),
(104,159,o),
(104,342,cs),
(104,524,o),
(154,632,o),
(234,632,cs),
(270,632,o),
(281,628,o),
(314,606,cs),
(335,592,o),
(340,586,o),
(349,586,cs),
(358,586,o),
(364,590,o),
(371,599,cs),
(378,609,o),
(380,616,o),
(377,624,cs),
(374,631,o),
(361,649,o),
(340,661,cs),
(297,686,o),
(278,693,o),
(238,693,cs),
(118,693,o),
(44,564,o),
(44,347,cs),
(44,123,o),
(118,-10,o),
(238,-10,cs)
);
}
);
width = 423;
},
{
anchors = (
{
name = bottom;
pos = (400,0);
},
{
name = top;
pos = (400,700);
}
);
layerId = "988D29BF-96E2-481F-8769-6B283BD5795A";
shapes = (
{
closed = 1;
nodes = (
(505,-10,o),
(561,25,o),
(580,36,cs),
(596,45,o),
(614,58,o),
(617,73,cs),
(620,86,o),
(615,93,o),
(611,99,cs),
(605,108,o),
(597,111,o),
(588,111,cs),
(576,111,o),
(568,101,o),
(554,93,cs),
(541,86,o),
(486,51,o),
(403,51,cs),
(242,51,o),
(122,169,o),
(122,342,cs),
(122,514,o),
(242,632,o),
(403,632,cs),
(486,632,o),
(542,598,o),
(554,590,cs),
(568,581,o),
(576,571,o),
(588,571,cs),
(597,571,o),
(605,575,o),
(611,584,cs),
(615,590,o),
(620,596,o),
(617,609,cs),
(614,624,o),
(596,636,o),
(580,646,cs),
(561,658,o),
(507,693,o),
(407,693,cs),
(211,689,o),
(62,552,o),
(62,347,cs),
(62,139,o),
(211,-10,o),
(407,-10,cs)
);
}
);
width = 679;
},
{
anchors = (
{
name = bottom;
pos = (290,0);
},
{
name = top;
pos = (290,700);
}
);
layerId = "C221B64C-0844-4CE6-BA2A-18F986CD7755";
shapes = (
{
closed = 1;
nodes = (
(363,-19,o),
(417,-4,o),
(463,25,cs),
(498,47,o),
(517,71,o),
(517,92,cs),
(517,107,o),
(510,127,o),
(496,150,cs),
(473,188,o),
(452,208,o),
(433,208,cs),
(418,208,o),
(400,199,o),
(380,183,cs),
(358,165,o),
(332,156,o),
(302,156,cs),
(249,156,o),
(218,224,o),
(218,340,cs),
(218,456,o),
(249,524,o),
(302,524,cs),
(322,524,o),
(344,516,o),
(365,501,cs),
(390,483,o),
(407,474,o),
(417,474,cs),
(433,474,o),
(455,492,o),
(482,527,cs),
(496,545,o),
(504,564,o),
(505,582,cs),
(506,606,o),
(488,631,o),
(453,654,cs),
(408,683,o),
(358,698,o),
(308,698,cs),
(136,698,o),
(35,567,o),
(35,345,cs),
(35,116,o),
(135,-19,o),
(305,-19,cs)
);
}
);
width = 552;
},
{
anchors = (
{
name = bottom;
pos = (488,0);
},
{
name = top;
pos = (488,700);
}
);
layerId = "F1D2FE0C-0290-44F9-97DF-753285E87900";
shapes = (
{
closed = 1;
nodes = (
(649,-10,o),
(735,24,o),
(808,66,cs),
(829,78,o),
(843,92,o),
(845,103,c),
(847,111,o),
(845,121,o),
(839,129,c),
(834,137,o),
(827,141,o),
(817,141,cs),
(809,141,o),
(802,136,o),
(782,123,cs),
(707,74,o),
(629,49,o),
(493,49,cs),
(249,49,o),
(110,158,o),
(110,342,cs),
(110,526,o),
(249,634,o),
(493,634,cs),
(644,634,o),
(723,605,o),
(782,562,cs),
(800,549,o),
(810,543,o),
(817,543,cs),
(826,543,o),
(834,548,o),
(839,556,cs),
(845,565,o),
(847,574,o),
(845,581,c),
(843,591,o),
(829,605,o),
(808,618,cs),
(741,660,o),
(654,693,o),
(493,692,cs),
(213,690,o),
(50,560,o),
(50,347,cs),
(50,123,o),
(213,-10,o),
(493,-10,cs)
);
}
);
width = 896;
},
{
anchors = (
{
name = bottom;
pos = (507,0);
},
{
name = top;
pos = (507,700);
}
);
layerId = "D56FD762-6887-41EE-B8AF-857F7388911F";
shapes = (
{
closed = 1;
nodes = (
(706,-19,o),
(821,23,o),
(873,57,c),
(906,77,o),
(928,104,o),
(928,124,cs),
(928,137,o),
(919,160,o),
(906,182,cs),
(886,216,o),
(857,239,o),
(836,239,cs),
(824,239,o),
(804,231,o),
(786,219,cs),
(757,199,o),
(676,166,o),
(533,166,cs),
(318,166,o),
(208,236,o),
(208,340,cs),
(208,444,o),
(318,514,o),
(533,514,cs),
(675,514,o),
(754,482,o),
(781,465,c),
(801,451,o),
(823,442,o),
(835,442,cs),
(856,442,o),
(885,464,o),
(907,496,cs),
(920,515,o),
(929,537,o),
(929,552,cs),
(929,572,o),
(907,600,o),
(874,622,c),
(816,656,o),
(703,698,o),
(540,698,cs),
(211,698,o),
(25,557,o),
(25,345,cs),
(25,127,o),
(210,-19,o),
(537,-19,cs)
);
}
);
width = 964;
}
);
note = C;
unicode = 67;
},
{
color = 6;
glyphname = D;
kernRight = D;
layers = (
{
anchors = (
{
name = bottom;
pos = (328,0);
},
{
name = center;
pos = (328,350);
},
{
name = top;
pos = (328,700);
}
);
layerId = "05A6575B-AA27-4212-BC78-A0BDA398BBDE";
shapes = (
{
closed = 1;
nodes = (
(289,-8,ls),
(483,-8,o),
(641,150,o),
(641,345,cs),
(641,535,o),
(482,691,o),
(292,691,c),
(120,691,l),
(28,692,o),
(28,645,o),
(28,601,cs),
(28,84,ls),
(28,35,o),
(33,-8,o),
(119,-8,cs)
);
},
{
closed = 1;
nodes = (
(211,508,l),
(291,508,ls),
(383,508,o),
(458,433,o),
(458,341,cs),
(458,249,o),
(382,175,o),
(292,175,cs),
(211,175,l)
);
}
);
width = 655;
},
{
anchors = (
{
name = bottom;
pos = (198,0);
},
{
name = center;
pos = (198,350);
},
{
name = top;
pos = (198,700);
}
);
layerId = "4383C18A-60F2-4889-B7DB-EDD0F2222092";
shapes = (
{
closed = 1;
nodes = (
(157,-11,ls),
(360,-11,o),
(430,120,o),
(430,342,cs),
(430,559,o),
(361,687,o),
(160,687,cs),
(105,687,ls),
(86,687,o),
(75,677,o),
(75,658,cs),
(75,20,ls),
(75,1,o),
(86,-11,o),
(104,-11,cs)
);
},
{
closed = 1;
nodes = (
(134,627,l),
(159,627,ls),
(323,627,o),
(370,519,o),
(370,337,cs),
(370,156,o),
(323,49,o),
(160,49,cs),
(134,49,l)
);
}
);
width = 465;
},
{
anchors = (
{
name = bottom;
pos = (352,-3);
},
{
name = center;
pos = (352,365);
},
{
name = top;
pos = (322,700);
}
);
layerId = "988D29BF-96E2-481F-8769-6B283BD5795A";
shapes = (
{
closed = 1;
nodes = (
(309,-11,ls),
(512,-11,o),
(632,120,o),
(632,342,cs),
(632,559,o),
(513,687,o),
(312,687,cs),
(107,688,ls),
(88,688,o),
(77,677,o),
(77,658,cs),
(77,20,ls),
(77,1,o),
(88,-11,o),
(106,-11,cs)
);
},
{
closed = 1;
nodes = (
(136,627,l),
(311,627,ls),
(475,627,o),
(572,519,o),
(572,337,cs),
(572,156,o),
(475,49,o),
(312,49,cs),
(136,49,l)
);
}
);
width = 704;
},
{
anchors = (
{
name = bottom;
pos = (260,0);
},
{
name = center;
pos = (260,350);
},
{
name = top;
pos = (260,700);
}
);
layerId = "C221B64C-0844-4CE6-BA2A-18F986CD7755";
shapes = (
{
closed = 1;
nodes = (
(246,-8,ls),
(440,-8,o),
(528,150,o),
(528,345,cs),
(528,535,o),
(439,691,o),
(249,691,cs),
(137,691,ls),
(45,691,o),
(45,645,o),
(45,601,cs),
(45,84,ls),
(45,35,o),
(50,-8,o),
(136,-8,cs)
);
},
{
closed = 1;
nodes = (
(228,508,l),
(248,508,ls),
(340,508,o),
(345,433,o),
(345,341,cs),
(345,249,o),
(339,175,o),
(249,175,cs),
(228,175,l)
);
}
);
width = 563;
},
{
anchors = (
{
name = bottom;
pos = (488,0);
},
{
name = center;
pos = (488,350);
},
{
name = top;
pos = (488,700);
}
);
layerId = "F1D2FE0C-0290-44F9-97DF-753285E87900";
shapes = (
{
closed = 1;
nodes = (
(552,-11,ls),
(764,-11,o),
(925,110,o),
(925,342,cs),
(925,568,o),
(765,687,o),
(555,687,cs),
(100,687,ls),
(80,687,o),
(70,678,o),
(70,658,cs),
(70,20,ls),
(70,0,o),
(80,-11,o),
(99,-11,cs)
);
},
{
closed = 1;
nodes = (
(129,627,l),
(554,627,ls),
(726,627,o),
(865,528,o),
(865,337,cs),
(865,148,o),
(726,49,o),
(555,49,cs),
(129,49,l)
);
}
);
width = 975;
},
{
anchors = (
{
name = bottom;
pos = (562,0);
},
{
name = center;
pos = (562,350);
},
{
name = top;
pos = (562,700);
}
);
layerId = "D56FD762-6887-41EE-B8AF-857F7388911F";
shapes = (
{
closed = 1;
nodes = (
(616,-8,ls),
(810,-8,o),
(968,150,o),
(968,345,cs),
(968,535,o),
(809,691,o),
(619,691,c),
(147,691,l),
(55,692,o),
(55,645,o),
(55,601,cs),
(55,84,ls),
(55,35,o),
(60,-8,o),
(146,-8,cs)
);
},
{
closed = 1;
nodes = (
(238,508,l),
(618,508,ls),
(710,508,o),
(785,433,o),
(785,341,cs),
(785,249,o),
(709,175,o),
(619,175,cs),
(238,175,l)
);
}
);
width = 1003;
}
);
note = D;
unicode = 68;
},
{
color = 6;
glyphname = E;
layers = (
{
anchors = (
{
name = bottom;
pos = (307,0);
},
{
name = ogonek;
pos = (595,9);
},
{
name = top;
pos = (307,700);
},
{
name = topleft;
pos = (30,700);
}
);
layerId = "05A6575B-AA27-4212-BC78-A0BDA398BBDE";
shapes = (
{
closed = 1;
nodes = (
(497,-9,ls),
(542,-9,o),
(589,-9,o),
(589,82,cs),
(589,174,o),
(543,174,o),
(498,174,cs),
(221,174,l),
(221,263,l),
(404,263,ls),
(450,263,o),
(487,263,o),
(487,340,cs),
(487,419,o),
(451,419,o),
(406,419,cs),
(221,419,l),
(221,508,l),
(497,508,ls),
(542,508,o),
(589,508,o),
(589,599,cs),
(589,691,o),
(543,691,o),
(498,691,cs),
(132,691,ls),
(61,691,o),
(38,669,o),
(38,600,cs),
(38,83,ls),
(38,38,o),
(38,-9,o),
(129,-9,cs)
);
}
);
width = 603;
},
{
anchors = (
{
name = bottom;
pos = (153,0);
},
{
name = ogonek;
pos = (326,10);
},
{
name = top;
pos = (193,700);
},
{
name = topleft;
pos = (44,700);
}
);
layerId = "4383C18A-60F2-4889-B7DB-EDD0F2222092";
shapes = (
{
closed = 1;
nodes = (
(320,-11,ls),
(342,-11,o),
(350,-3,o),
(350,19,cs),
(350,41,o),
(343,49,o),
(321,49,cs),
(134,49,l),
(134,320,l),
(253,320,ls),
(277,320,o),
(285,327,o),
(285,349,cs),
(285,372,o),
(277,380,o),
(255,380,cs),
(134,380,l),
(134,627,l),
(320,627,ls),
(342,627,o),
(350,634,o),
(350,656,cs),
(350,679,o),
(343,687,o),
(321,687,cs),
(107,687,ls),
(83,687,o),
(75,679,o),
(75,657,cs),
(75,20,ls),
(75,-3,o),
(82,-11,o),
(104,-11,cs)
);
}
);
width = 395;
},
{
anchors = (
{
name = bottom;
pos = (319,0);
},
{
name = ogonek;
pos = (534,7);
},
{
name = top;
pos = (319,700);
},
{
name = topleft;
pos = (20,700);
}
);
layerId = "988D29BF-96E2-481F-8769-6B283BD5795A";
shapes = (
{
closed = 1;
nodes = (
(534,-11,ls),
(556,-11,o),
(564,-3,o),
(564,19,cs),
(564,41,o),
(557,49,o),
(535,49,cs),
(148,49,l),
(148,320,l),
(417,320,ls),
(441,320,o),
(449,327,o),
(449,349,cs),
(449,372,o),
(441,380,o),
(419,380,cs),
(148,380,l),
(148,627,l),
(534,627,ls),
(556,627,o),
(564,634,o),
(564,656,cs),
(564,679,o),
(557,687,o),
(535,687,cs),
(121,687,ls),
(97,687,o),
(89,679,o),
(89,657,cs),
(89,20,ls),
(89,-3,o),
(96,-11,o),
(118,-11,cs)
);
}
);
width = 630;
},
{
anchors = (
{
name = bottom;
pos = (196,0);
},
{
name = ogonek;
pos = (447,10);
},
{
name = top;
pos = (235,700);
},
{
name = topleft;
pos = (17,700);
}
);
layerId = "C221B64C-0844-4CE6-BA2A-18F986CD7755";
shapes = (
{
closed = 1;
nodes = (
(344,-9,ls),
(389,-9,o),
(436,-9,o),
(436,82,cs),
(436,174,o),
(390,174,o),
(345,174,cs),
(228,174,l),
(228,263,l),
(281,263,ls),
(327,263,o),
(364,263,o),
(364,340,cs),
(364,419,o),
(328,419,o),
(283,419,cs),
(228,419,l),
(228,508,l),
(344,508,ls),
(389,508,o),
(436,508,o),
(436,599,cs),
(436,691,o),
(390,691,o),
(345,691,cs),
(139,691,ls),
(68,691,o),
(45,669,o),
(45,600,cs),
(45,83,ls),
(45,38,o),
(45,-9,o),
(136,-9,cs)
);
}
);
width = 461;
},
{
anchors = (
{
name = bottom;
pos = (483,0);
},
{
name = ogonek;
pos = (800,10);
},
{
name = top;
pos = (433,700);
},
{
name = topleft;
pos = (105,700);
}
);
layerId = "F1D2FE0C-0290-44F9-97DF-753285E87900";
shapes = (
{
closed = 1;
nodes = (
(800,-11,ls),
(822,-11,o),
(830,-3,o),
(830,19,cs),
(830,41,o),
(823,49,o),
(801,49,cs),
(114,49,l),
(114,320,l),
(683,320,ls),
(707,320,o),
(715,327,o),
(715,349,cs),
(715,372,o),
(707,380,o),
(685,380,cs),
(114,380,l),
(114,627,l),
(800,627,ls),
(822,627,o),
(830,634,o),
(830,656,cs),
(830,679,o),
(823,687,o),
(801,687,cs),
(87,687,ls),
(63,687,o),
(55,679,o),
(55,657,cs),
(55,20,ls),
(55,-3,o),
(62,-11,o),
(84,-11,cs)
);
}
);
width = 875;
},
{
anchors = (
{
name = bottom;
pos = (528,0);
},
{
name = ogonek;
pos = (848,10);
},
{
name = top;
pos = (458,700);
},
{
name = topleft;
pos = (147,700);
}
);
layerId = "D56FD762-6887-41EE-B8AF-857F7388911F";
shapes = (
{
closed = 1;
nodes = (
(814,-9,ls),
(859,-9,o),
(906,-9,o),
(906,82,cs),
(906,174,o),
(860,174,o),
(815,174,cs),
(238,174,l),
(238,263,l),
(721,263,ls),
(767,263,o),
(804,263,o),
(804,340,cs),
(804,419,o),
(768,419,o),
(723,419,cs),
(238,419,l),
(238,508,l),
(814,508,ls),
(859,508,o),
(906,508,o),
(906,599,cs),
(906,691,o),
(860,691,o),
(815,691,cs),
(149,691,ls),
(78,691,o),
(55,669,o),
(55,600,cs),
(55,83,ls),
(55,38,o),
(55,-9,o),
(146,-9,cs)
);
}
);
width = 941;
}
);
note = E;
unicode = 69;
},
{
color = 6;
glyphname = F;
layers = (
{
anchors = (
{
name = bottom;
pos = (306,0);
},
{
name = top;
pos = (306,700);
}
);
layerId = "05A6575B-AA27-4212-BC78-A0BDA398BBDE";
shapes = (
{
closed = 1;
nodes = (
(221,-9,o),
(221,37,o),
(221,82,cs),
(221,263,l),
(404,263,ls),
(449,263,o),
(486,263,o),
(486,339,cs),
(486,419,o),
(451,419,o),
(405,419,cs),
(221,419,l),
(221,508,l),
(496,508,ls),
(542,508,o),
(588,508,o),
(588,599,cs),
(588,691,o),
(543,691,o),
(498,691,cs),
(132,691,ls),
(61,691,o),
(38,669,o),
(38,600,cs),
(38,83,ls),
(38,38,o),
(38,-9,o),
(129,-9,cs)
);
}
);
width = 613;
},
{
anchors = (
{
name = bottom;
pos = (102,0);
},
{
name = top;
pos = (212,700);
}
);
layerId = "4383C18A-60F2-4889-B7DB-EDD0F2222092";
shapes = (
{
closed = 1;
nodes = (
(126,-11,o),
(134,-3,o),
(134,19,cs),
(134,320,l),
(253,320,ls),
(276,320,o),
(284,327,o),
(284,349,cs),
(284,372,o),
(276,380,o),
(254,380,cs),
(134,380,l),
(134,627,l),
(319,627,ls),
(341,627,o),
(349,634,o),
(349,656,cs),
(349,679,o),
(342,687,o),
(321,687,cs),
(107,687,ls),
(83,687,o),
(75,679,o),
(75,657,cs),
(75,20,ls),
(75,-3,o),
(82,-11,o),
(104,-11,cs)
);
}
);
width = 374;
},
{
anchors = (
{
name = bottom;
pos = (319,0);
},
{
name = top;
pos = (319,700);
}
);
layerId = "988D29BF-96E2-481F-8769-6B283BD5795A";
shapes = (
{
closed = 1;
nodes = (
(140,-11,o),
(148,-3,o),
(148,19,cs),
(148,320,l),
(417,320,ls),
(440,320,o),
(448,327,o),
(448,349,cs),
(448,372,o),
(440,380,o),
(418,380,cs),
(148,380,l),
(148,627,l),
(533,627,ls),
(555,627,o),
(563,634,o),
(563,656,cs),
(563,679,o),
(556,687,o),
(535,687,cs),
(121,687,ls),
(97,687,o),
(89,679,o),
(89,657,cs),
(89,20,ls),
(89,-3,o),
(96,-11,o),
(118,-11,cs)
);
}
);
width = 637;
},
{
anchors = (
{
name = bottom;
pos = (206,0);
},
{
name = top;
pos = (206,700);
}
);
layerId = "C221B64C-0844-4CE6-BA2A-18F986CD7755";
shapes = (
{
closed = 1;
nodes = (
(238,-9,o),
(238,37,o),
(238,82,cs),
(238,263,l),
(281,263,ls),
(326,263,o),
(363,263,o),
(363,339,cs),
(363,419,o),
(328,419,o),
(282,419,cs),
(238,419,l),
(238,508,l),
(353,508,ls),
(399,508,o),
(445,508,o),
(445,599,cs),
(445,691,o),
(400,691,o),
(355,691,cs),
(149,691,ls),
(78,691,o),
(55,669,o),
(55,600,cs),
(55,83,ls),
(55,38,o),
(55,-9,o),
(146,-9,cs)
);
}
);
width = 465;
},
{
anchors = (
{
name = bottom;
pos = (442,0);
},
{
name = top;
pos = (442,700);
}
);
layerId = "F1D2FE0C-0290-44F9-97DF-753285E87900";
shapes = (
{
closed = 1;
nodes = (
(106,-11,o),
(114,-3,o),
(114,19,cs),
(114,320,l),
(683,320,ls),
(706,320,o),
(714,327,o),
(714,349,cs),
(714,372,o),
(706,380,o),
(684,380,cs),
(114,380,l),
(114,627,l),
(799,627,ls),
(821,627,o),
(829,634,o),
(829,656,cs),
(829,679,o),
(822,687,o),
(801,687,cs),
(87,687,ls),
(63,687,o),
(55,679,o),
(55,657,cs),
(55,20,ls),
(55,-3,o),
(62,-11,o),
(84,-11,cs)
);
}
);
width = 864;
},
{
anchors = (
{
name = bottom;
pos = (507,0);
},
{
name = top;
pos = (507,700);
}
);
layerId = "D56FD762-6887-41EE-B8AF-857F7388911F";
shapes = (
{
closed = 1;
nodes = (
(248,-9,o),
(248,37,o),
(248,82,cs),
(248,263,l),
(731,263,ls),
(776,263,o),
(813,263,o),
(813,339,cs),
(813,419,o),
(778,419,o),
(732,419,cs),
(248,419,l),
(248,508,l),
(823,508,ls),
(869,508,o),
(915,508,o),
(915,599,cs),
(915,691,o),
(870,691,o),
(825,691,cs),
(159,691,ls),
(88,691,o),
(65,669,o),
(65,600,cs),
(65,83,ls),
(65,38,o),
(65,-9,o),
(156,-9,cs)
);
}
);
width = 950;
}
);
note = F;
unicode = 70;
},
{
color = 6;
glyphname = G;
kernRight = d;
layers = (
{
anchors = (
{
name = bottom;
pos = (360,0);
},
{
name = top;
pos = (360,700);
}
);
layerId = "05A6575B-AA27-4212-BC78-A0BDA398BBDE";
shapes = (
{
closed = 1;
nodes = (
(466,-19,o),
(535,-6,o),
(585,20,cs),
(639,48,o),
(674,90,o),
(674,128,cs),
(674,333,ls),
(674,374,o),
(674,417,o),
(595,420,c),
(420,420,ls),
(385,420,o),
(347,420,o),
(347,343,cs),
(347,265,o),
(380,265,o),
(417,265,cs),
(491,265,l),
(491,179,l),
(464,169,o),
(426,166,o),
(391,166,cs),
(299,166,o),
(218,251,o),
(218,349,cs),
(218,445,o),
(294,520,o),
(389,520,cs),
(441,520,o),
(489,500,o),
(502,492,cs),
(528,476,o),
(541,469,o),
(556,469,cs),
(579,469,o),
(604,485,o),
(630,522,cs),
(645,543,o),
(653,562,o),
(653,578,cs),
(653,610,o),
(625,629,o),
(597,648,cs),
(544,684,o),
(457,703,o),
(394,703,cs),
(197,703,o),
(35,545,o),
(35,351,cs),
(35,148,o),
(195,-19,o),
(387,-19,cs)
);
}
);
width = 719;
},
{
anchors = (
{
name = bottom;
pos = (236,0);
},
{
name = top;
pos = (236,700);
}
);
layerId = "4383C18A-60F2-4889-B7DB-EDD0F2222092";
shapes = (
{
closed = 1;
nodes = (
(288,-10,o),
(340,-1,o),
(373,17,cs),
(396,30,o),
(420,61,o),
(420,77,cs),
(420,350,ls),
(420,369,o),
(409,380,o),
(390,380,cs),
(260,380,ls),
(241,380,o),
(230,368,o),
(230,349,cs),
(230,331,o),
(242,320,o),
(261,320,cs),
(360,320,l),
(360,71,l),
(333,54,o),
(294,50,o),
(263,50,cs),
(172,50,o),
(97,168,o),
(95,346,cs),
(93,518,o),
(169,632,o),
(266,632,cs),
(284,632,o),
(330,627,o),
(352,613,cs),
(369,602,o),
(379,598,o),
(389,600,cs),
(398,602,o),
(407,608,o),
(410,617,cs),
(413,625,o),
(416,635,o),
(412,642,c),
(409,651,o),
(393,662,o),
(370,673,cs),
(342,687,o),
(295,693,o),
(270,693,cs),
(137,693,o),
(35,556,o),
(35,350,cs),
(35,134,o),
(133,-10,o),
(259,-10,cs)
);
}
);
width = 475;
},
{
anchors = (
{
name = bottom;
pos = (347,-2);
},
{
name = top;
pos = (377,700);
}
);
layerId = "988D29BF-96E2-481F-8769-6B283BD5795A";
shapes = (
{
closed = 1;
nodes = (
(461,-10,o),
(525,8,o),
(569,30,cs),
(607,49,o),
(628,66,o),
(628,82,cs),
(628,342,ls),
(628,367,o),
(615,380,o),
(590,380,cs),
(358,380,ls),
(336,380,o),
(328,372,o),
(328,349,cs),
(328,327,o),
(336,320,o),
(359,320,cs),
(568,320,l),
(568,91,l),
(518,65,o),
(456,50,o),
(401,50,cs),
(228,50,o),
(125,161,o),
(123,346,cs),
(125,526,o),
(229,632,o),
(404,632,cs),
(459,632,o),
(515,616,o),
(555,590,cs),
(574,578,o),
(586,571,o),
(589,571,cs),
(598,571,o),
(607,576,o),
(612,584,cs),
(617,592,o),
(620,602,o),
(618,609,c),
(616,619,o),
(602,633,o),
(581,646,cs),
(534,676,o),
(470,693,o),
(408,693,cs),
(192,689,o),
(63,561,o),
(63,350,cs),
(63,124,o),
(187,-10,o),
(397,-10,cs)
);
}
);
width = 704;
},
{
anchors = (
{
name = bottom;
pos = (268,0);
},
{
name = top;
pos = (268,700);
}
);
layerId = "C221B64C-0844-4CE6-BA2A-18F986CD7755";
shapes = (
{
closed = 1;
nodes = (
(333,-19,o),
(387,-3,o),
(432,20,cs),
(485,47,o),
(521,91,o),
(521,128,cs),
(521,333,ls),
(521,383,o),
(489,418,o),
(442,420,c),
(330,420,ls),
(295,420,o),
(277,420,o),
(277,343,cs),
(277,265,o),
(290,265,o),
(327,265,cs),
(338,265,l),
(338,172,l),
(317,167,o),
(312,166,o),
(291,166,cs),
(237,166,o),
(218,239,o),
(218,349,cs),
(218,452,o),
(236,520,o),
(289,520,cs),
(317,520,o),
(332,509,o),
(359,492,cs),
(381,478,o),
(403,469,o),
(413,469,cs),
(435,469,o),
(465,490,o),
(487,522,cs),
(500,541,o),
(510,564,o),
(510,578,cs),
(510,597,o),
(488,625,o),
(454,648,cs),
(405,681,o),
(325,703,o),
(294,703,cs),
(129,703,o),
(35,562,o),
(35,351,cs),
(35,129,o),
(126,-19,o),
(287,-19,cs)
);
}
);
width = 569;
},
{
anchors = (
{
name = bottom;
pos = (514,0);
},
{
name = top;
pos = (514,700);
}
);
layerId = "F1D2FE0C-0290-44F9-97DF-753285E87900";
shapes = (
{
closed = 1;
nodes = (
(668,-10,o),
(757,18,o),
(811,46,cs),
(846,64,o),
(870,86,o),
(870,102,cs),
(870,330,ls),
(870,367,o),
(857,380,o),
(820,380,cs),
(450,380,ls),
(432,380,o),
(420,368,o),
(420,349,cs),
(420,332,o),
(432,320,o),
(451,320,cs),
(810,320,l),
(810,111,l),
(751,80,o),
(664,50,o),
(493,50,cs),
(248,50,o),
(117,168,o),
(115,346,cs),
(113,518,o),
(245,632,o),
(496,632,cs),
(667,632,o),
(747,601,o),
(797,570,cs),
(815,559,o),
(829,551,o),
(831,551,cs),
(840,551,o),
(849,556,o),
(854,564,cs),
(859,573,o),
(862,583,o),
(860,589,c),
(858,599,o),
(843,613,o),
(823,626,cs),
(767,662,o),
(677,694,o),
(500,693,cs),
(213,691,o),
(55,553,o),
(55,350,cs),
(55,134,o),
(209,-10,o),
(489,-10,cs)
);
}
);
width = 925;
},
{
anchors = (
{
name = bottom;
pos = (486,0);
},
{
name = top;
pos = (486,700);
}
);
layerId = "D56FD762-6887-41EE-B8AF-857F7388911F";
shapes = (
{
closed = 1;
nodes = (
(653,-17,o),
(766,7,o),
(844,46,cs),
(902,75,o),
(941,120,o),
(941,158,cs),
(941,333,ls),
(941,383,o),
(909,418,o),
(862,420,c),
(533,420,ls),
(498,420,o),
(460,420,o),
(460,343,cs),
(460,265,o),
(493,265,o),
(530,265,cs),
(758,265,l),
(758,199,l),
(707,179,o),
(630,167,o),
(511,166,cs),
(309,164,o),
(208,233,o),
(208,341,cs),
(208,445,o),
(308,517,o),
(509,520,cs),
(641,522,o),
(723,501,o),
(769,472,cs),
(791,458,o),
(812,449,o),
(823,449,cs),
(846,449,o),
(875,470,o),
(897,502,cs),
(911,522,o),
(920,544,o),
(920,558,cs),
(920,577,o),
(898,605,o),
(864,628,cs),
(797,673,o),
(679,705,o),
(514,703,cs),
(201,699,o),
(25,556,o),
(25,343,cs),
(25,123,o),
(198,-23,o),
(507,-19,cs)
);
}
);
width = 981;
}
);
note = G;
unicode = 71;
},
{
color = 6;
glyphname = H;
layers = (
{
anchors = (
{
name = bottom;
pos = (325,0);
},
{
name = center;
pos = (325,350);
},
{
name = top;
pos = (325,700);
},
{
name = topleft;
pos = (20,700);
}
);
layerId = "05A6575B-AA27-4212-BC78-A0BDA398BBDE";
shapes = (
{
closed = 1;
nodes = (
(622,-8,o),
(622,38,o),
(622,83,cs),
(622,599,ls),
(622,644,o),
(622,691,o),
(531,691,cs),
(439,691,o),
(439,644,o),
(439,600,cs),
(439,84,ls),
(439,39,o),
(439,-8,o),
(530,-8,cs)
);
},
{
closed = 1;
nodes = (
(211,-8,o),
(211,38,o),
(211,83,cs),
(211,599,ls),
(211,644,o),
(211,691,o),
(120,691,cs),
(28,691,o),
(28,644,o),
(28,600,cs),
(28,84,ls),
(28,39,o),
(28,-8,o),
(119,-8,cs)
);
},
{
closed = 1;
nodes = (
(455,263,l),
(455,419,l),
(195,419,l),
(195,263,l)
);
}
);
width = 650;
},
{
anchors = (
{
name = bottom;
pos = (237,0);
},
{
name = center;
pos = (237,350);
},
{
name = top;
pos = (237,700);
},
{
name = topleft;
pos = (40,700);
}
);
layerId = "4383C18A-60F2-4889-B7DB-EDD0F2222092";
shapes = (
{
closed = 1;
nodes = (
(398,-11,o),
(408,-1,o),
(408,19,cs),
(408,656,ls),
(408,676,o),
(398,687,o),
(379,687,cs),
(359,687,o),
(349,677,o),
(349,657,cs),
(349,20,ls),
(349,0,o),
(359,-11,o),
(378,-11,cs)
);
},
{
closed = 1;
nodes = (
(114,-11,o),
(124,-1,o),
(124,19,cs),
(124,656,ls),
(124,676,o),
(114,687,o),
(95,687,cs),
(75,687,o),
(65,677,o),
(65,657,cs),
(65,20,ls),
(65,0,o),
(75,-11,o),
(94,-11,cs)
);
},
{
closed = 1;
nodes = (
(364,320,l),
(365,380,l),
(75,380,l),
(75,320,l)
);
}
);
width = 473;
},
{
anchors = (
{
name = bottom;
pos = (347,0);
},
{
name = center;
pos = (350,350);
},
{
name = top;
pos = (347,700);
},
{
name = topleft;
pos = (30,700);
}
);
layerId = "988D29BF-96E2-481F-8769-6B283BD5795A";
shapes = (
{
closed = 1;
nodes = (
(603,-11,o),
(611,-3,o),
(611,19,cs),
(611,656,ls),
(611,679,o),
(604,687,o),
(582,687,cs),
(560,687,o),
(552,679,o),
(552,657,cs),
(552,20,ls),
(552,-3,o),
(559,-11,o),
(581,-11,cs)
);
},
{
closed = 1;
nodes = (
(139,-11,o),
(147,-3,o),
(147,19,cs),
(147,656,ls),
(147,679,o),
(140,687,o),
(118,687,cs),
(96,687,o),
(88,679,o),
(88,657,cs),
(88,20,ls),
(88,-3,o),
(95,-11,o),
(117,-11,cs)
);
},
{
closed = 1;
nodes = (
(567,320,l),
(568,380,l),
(98,380,l),
(98,320,l)
);
}
);
width = 699;
},
{
anchors = (
{
name = bottom;
pos = (272,0);
},
{
name = center;
pos = (252,350);
},
{
name = top;
pos = (272,700);
},
{
name = topleft;
pos = (20,700);
}
);
layerId = "C221B64C-0844-4CE6-BA2A-18F986CD7755";
shapes = (
{
closed = 1;
nodes = (
(509,-8,o),
(509,38,o),
(509,83,cs),
(509,599,ls),
(509,644,o),
(509,691,o),
(418,691,cs),
(326,691,o),
(326,644,o),
(326,600,cs),
(326,84,ls),
(326,39,o),
(326,-8,o),
(417,-8,cs)
);
},
{
closed = 1;
nodes = (
(228,-8,o),
(228,38,o),
(228,83,cs),
(228,599,ls),
(228,644,o),
(228,691,o),
(137,691,cs),
(45,691,o),
(45,644,o),
(45,600,cs),
(45,84,ls),
(45,39,o),
(45,-8,o),
(136,-8,cs)
);
},
{
closed = 1;
nodes = (
(342,263,l),
(342,419,l),
(212,419,l),
(212,263,l)
);
}
);
width = 554;
},
{
anchors = (
{
name = bottom;
pos = (470,0);
},
{
name = center;
pos = (470,350);
},
{
name = top;
pos = (470,700);
},
{
name = topleft;
pos = (80,700);
}
);
layerId = "F1D2FE0C-0290-44F9-97DF-753285E87900";
shapes = (
{
closed = 1;
nodes = (
(875,-11,o),
(883,-3,o),
(883,19,cs),
(883,656,ls),
(883,679,o),
(876,687,o),
(854,687,cs),
(832,687,o),
(824,679,o),
(824,657,cs),
(824,20,ls),
(824,-3,o),
(831,-11,o),
(853,-11,cs)
);
},
{
closed = 1;
nodes = (
(111,-11,o),
(119,-3,o),
(119,19,cs),
(119,656,ls),
(119,679,o),
(112,687,o),
(90,687,cs),
(68,687,o),
(60,679,o),
(60,657,cs),
(60,20,ls),
(60,-3,o),
(67,-11,o),
(89,-11,cs)
);
},
{
closed = 1;
nodes = (
(839,320,l),
(840,380,l),
(70,380,l),
(70,320,l)
);
}
);
width = 943;
},
{
anchors = (
{
name = bottom;
pos = (507,0);
},
{
name = center;
pos = (507,350);
},
{
name = top;
pos = (507,700);
},
{
name = topleft;
pos = (130,700);
}
);
layerId = "D56FD762-6887-41EE-B8AF-857F7388911F";
shapes = (
{
closed = 1;
nodes = (
(949,-8,o),
(949,38,o),
(949,83,cs),
(949,599,ls),
(949,644,o),
(949,691,o),
(858,691,cs),
(766,691,o),
(766,644,o),
(766,600,cs),
(766,84,ls),
(766,39,o),
(766,-8,o),
(857,-8,cs)
);
},
{
closed = 1;
nodes = (
(238,-8,o),
(238,38,o),
(238,83,cs),
(238,599,ls),
(238,644,o),
(238,691,o),
(147,691,cs),
(55,691,o),
(55,644,o),
(55,600,cs),
(55,84,ls),
(55,39,o),
(55,-8,o),
(146,-8,cs)
);
},
{
closed = 1;
nodes = (
(782,263,l),
(782,419,l),
(222,419,l),
(222,263,l)
);
}
);
width = 1004;
}
);
note = H;
unicode = 72;
},
{
color = 6;
glyphname = I;
kernLeft = I;
kernRight = d;
layers = (
{
anchors = (
{
name = bottom;
pos = (120,0);
},
{
name = ogonek;
pos = (215,10);
},
{
name = top;
pos = (120,700);
},
{
name = topleft;
pos = (20,700);
}
);
layerId = "05A6575B-AA27-4212-BC78-A0BDA398BBDE";
shapes = (
{
closed = 1;
nodes = (
(211,-9,o),
(211,37,o),
(211,82,cs),
(211,599,ls),
(211,644,o),
(211,691,o),
(120,691,cs),
(28,691,o),
(28,644,o),
(28,600,cs),
(28,83,ls),
(28,38,o),
(28,-9,o),
(119,-9,cs)
);
}
);
width = 239;
},
{
anchors = (
{
name = bottom;
pos = (85,0);
},
{
name = ogonek;
pos = (160,10);
},
{
name = top;
pos = (85,700);
},
{
name = topleft;
pos = (10,700);
}
);
layerId = "4383C18A-60F2-4889-B7DB-EDD0F2222092";
shapes = (
{
closed = 1;
nodes = (
(104,-11,o),
(114,-1,o),
(114,19,cs),
(114,656,ls),
(114,676,o),
(104,687,o),
(85,687,cs),
(65,687,o),
(55,677,o),
(55,657,cs),
(55,20,ls),
(55,0,o),
(65,-11,o),
(84,-11,cs)
);
}
);
width = 169;
},
{
anchors = (
{
name = bottom;
pos = (100,0);
},
{
name = ogonek;
pos = (202,10);
},
{
name = top;
pos = (100,700);
},
{
name = topleft;
pos = (-9,700);
}
);
layerId = "988D29BF-96E2-481F-8769-6B283BD5795A";
shapes = (
{
closed = 1;
nodes = (
(126,-11,o),
(134,-3,o),
(134,19,cs),
(134,656,ls),
(134,679,o),
(127,687,o),
(105,687,cs),
(83,687,o),
(75,679,o),
(75,657,cs),
(75,20,ls),
(75,-3,o),
(82,-11,o),
(104,-11,cs)
);
}
);
width = 209;
},
{
anchors = (
{
name = bottom;
pos = (137,0);
},
{
name = ogonek;
pos = (238,10);
},
{
name = top;
pos = (137,700);
},
{
name = topleft;
pos = (30,700);
}
);
layerId = "C221B64C-0844-4CE6-BA2A-18F986CD7755";
shapes = (
{
closed = 1;
nodes = (
(228,-9,o),
(228,37,o),
(228,82,cs),
(228,599,ls),
(228,644,o),
(228,691,o),
(137,691,cs),
(45,691,o),
(45,644,o),
(45,600,cs),
(45,83,ls),
(45,38,o),
(45,-9,o),
(136,-9,cs)
);
}
);
width = 273;
},
{
anchors = (
{
name = bottom;
pos = (80,0);
},
{
name = ogonek;
pos = (202,10);
},
{
name = top;
pos = (80,700);
},
{
name = topleft;
pos = (-54,700);
}
);
layerId = "F1D2FE0C-0290-44F9-97DF-753285E87900";
shapes = (
{
closed = 1;
nodes = (
(106,-11,o),
(114,-3,o),
(114,19,cs),
(114,656,ls),
(114,679,o),
(107,687,o),
(85,687,cs),
(63,687,o),
(55,679,o),
(55,657,cs),
(55,20,ls),
(55,-3,o),
(62,-11,o),
(84,-11,cs)
);
}
);
width = 169;
},
{
anchors = (
{
name = bottom;
pos = (170,0);
},
{
name = ogonek;
pos = (265,10);
},
{
name = top;
pos = (170,700);
},
{
name = topleft;
pos = (70,700);
}
);
layerId = "D56FD762-6887-41EE-B8AF-857F7388911F";
shapes = (
{
closed = 1;
nodes = (
(261,-9,o),
(261,37,o),
(261,82,cs),
(261,599,ls),
(261,644,o),
(261,691,o),
(170,691,cs),
(78,691,o),
(78,644,o),
(78,600,cs),
(78,83,ls),
(78,38,o),
(78,-9,o),
(169,-9,cs)
);
}
);
width = 339;
}
);
note = I;
unicode = 73;
},
{
color = 6;
glyphname = J;
kernRight = d;
layers = (
{
anchors = (
{
name = bottom;
pos = (266,0);
},
{
name = top;
pos = (406,700);
}
);
layerId = "05A6575B-AA27-4212-BC78-A0BDA398BBDE";
shapes = (
{
closed = 1;
nodes = (
(377,-19,o),
(493,96,o),
(493,238,cs),
(493,598,ls),
(493,642,o),
(490,691,o),
(403,691,cs),
(311,691,o),
(309,638,o),
(309,592,cs),
(309,245,ls),
(309,198,o),
(280,166,o),
(237,166,cs),
(205,166,o),
(188,182,o),
(181,189,cs),
(163,207,o),
(141,227,o),
(115,227,cs),
(94,227,o),
(73,215,o),
(50,191,cs),
(26,166,o),
(15,144,o),
(15,123,cs),
(15,98,o),
(32,79,o),
(50,61,c),
(50,61,o),
(119,-19,o),
(232,-19,cs)
);
}
);
width = 531;
},
{
anchors = (
{
name = bottom;
pos = (169,0);
},
{
name = top;
pos = (169,700);
}
);
layerId = "4383C18A-60F2-4889-B7DB-EDD0F2222092";
shapes = (
{
closed = 1;
nodes = (
(247,-11,o),
(272,93,o),
(272,206,cs),
(272,656,ls),
(272,679,o),
(265,687,o),
(245,687,cs),
(221,687,o),
(213,677,o),
(213,649,cs),
(213,216,ls),
(213,135,o),
(206,45,o),
(157,45,cs),
(134,45,o),
(118,53,o),
(104,61,cs),
(78,76,o),
(73,83,o),
(62,83,cs),
(52,83,o),
(48,80,o),
(40,69,cs),
(36,64,o),
(31,51,o),
(32,43,cs),
(33,36,o),
(44,28,o),
(61,17,cs),
(84,2,o),
(115,-11,o),
(153,-11,cs)
);
}
);
width = 327;
},
{
anchors = (
{
name = bottom;
pos = (275,0);
},
{
name = top;
pos = (265,700);
}
);
layerId = "988D29BF-96E2-481F-8769-6B283BD5795A";
shapes = (
{
closed = 1;
nodes = (
(394,-11,o),
(458,83,o),
(458,225,cs),
(458,656,ls),
(458,679,o),
(451,687,o),
(431,687,cs),
(407,687,o),
(399,677,o),
(399,649,cs),
(399,233,ls),
(399,126,o),
(356,45,o),
(253,45,cs),
(199,45,o),
(151,74,o),
(128,93,cs),
(103,114,o),
(100,126,o),
(86,126,cs),
(79,126,o),
(75,125,o),
(63,113,cs),
(59,109,o),
(50,98,o),
(50,90,cs),
(50,83,o),
(59,74,o),
(72,61,cs),
(115,18,o),
(181,-11,o),
(249,-11,cs)
);
}
);
width = 549;
},
{
anchors = (
{
name = bottom;
pos = (249,0);
},
{
name = top;
pos = (249,700);
}
);
layerId = "C221B64C-0844-4CE6-BA2A-18F986CD7755";
shapes = (
{
closed = 1;
nodes = (
(347,-19,o),
(443,76,o),
(443,218,cs),
(443,598,ls),
(443,642,o),
(440,691,o),
(353,691,cs),
(261,691,o),
(259,638,o),
(259,592,cs),
(259,225,ls),
(259,178,o),
(250,166,o),
(234,166,cs),
(210,166,o),
(193,182,o),
(186,189,cs),
(161,214,o),
(151,227,o),
(125,227,cs),
(104,227,o),
(83,215,o),
(60,191,cs),
(36,166,o),
(25,144,o),
(25,123,cs),
(25,98,o),
(42,79,o),
(60,61,c),
(60,61,o),
(129,-19,o),
(222,-19,cs)
);
}
);
width = 498;
},
{
anchors = (
{
name = bottom;
pos = (383,0);
},
{
name = top;
pos = (383,700);
}
);
layerId = "F1D2FE0C-0290-44F9-97DF-753285E87900";
shapes = (
{
closed = 1;
nodes = (
(590,-11,o),
(734,103,o),
(734,245,cs),
(734,656,ls),
(734,679,o),
(727,687,o),
(707,687,cs),
(683,687,o),
(675,677,o),
(675,649,cs),
(675,246,ls),
(675,133,o),
(557,44,o),
(369,44,cs),
(229,44,o),
(139,104,o),
(94,142,cs),
(68,164,o),
(65,177,o),
(51,177,cs),
(44,177,o),
(40,176,o),
(28,164,cs),
(24,160,o),
(15,149,o),
(15,141,cs),
(15,134,o),
(24,125,o),
(37,112,cs),
(80,69,o),
(177,-11,o),
(365,-11,cs)
);
}
);
width = 784;
},
{
anchors = (
{
name = bottom;
pos = (474,0);
},
{
name = top;
pos = (474,700);
}
);
layerId = "D56FD762-6887-41EE-B8AF-857F7388911F";
shapes = (
{
closed = 1;
nodes = (
(619,-19,o),
(813,94,o),
(813,248,cs),
(813,598,ls),
(813,642,o),
(810,691,o),
(723,691,cs),
(631,691,o),
(629,638,o),
(629,592,cs),
(629,255,ls),
(629,208,o),
(510,166,o),
(407,166,cs),
(289,166,o),
(223,187,o),
(191,219,cs),
(168,242,o),
(142,257,o),
(125,257,cs),
(107,257,o),
(81,243,o),
(60,221,cs),
(39,199,o),
(25,172,o),
(25,153,cs),
(25,137,o),
(39,112,o),
(60,91,c),
(126,25,o),
(243,-19,o),
(402,-19,cs)
);
}
);
width = 868;
}
);
note = J;
unicode = 74;
},
{
color = 6;
glyphname = K;
kernRight = d;
layers = (
{
anchors = (
{
name = bottom;
pos = (309,0);
},
{
name = top;
pos = (309,700);
}
);
layerId = "05A6575B-AA27-4212-BC78-A0BDA398BBDE";
shapes = (
{
closed = 1;
nodes = (
(223,-9,o),
(223,37,o),
(223,82,cs),
(223,223,l),
(398,24,ls),
(442,-28,o),
(468,-35,o),
(528,13,cs),
(583,58,o),
(586,94,o),
(537,143,cs),
(340,340,l),
(536,540,ls),
(581,588,o),
(582,620,o),
(527,669,cs),
(476,716,o),
(442,710,o),
(397,660,cs),
(223,461,l),
(223,599,ls),
(223,644,o),
(223,691,o),
(132,691,cs),
(40,691,o),
(40,644,o),
(40,600,cs),
(40,83,ls),
(40,38,o),
(40,-9,o),
(131,-9,cs)
);
}
);
width = 597;
},
{
anchors = (
{
name = bottom;
pos = (177,0);
},
{
name = top;
pos = (177,700);
}
);
layerId = "4383C18A-60F2-4889-B7DB-EDD0F2222092";
shapes = (
{
closed = 1;
nodes = (
(117,-11,o),
(125,-4,o),
(125,18,cs),
(125,293,l),
(263,2,ls),
(273,-19,o),
(287,-16,o),
(305,-2,cs),
(324,13,o),
(317,19,o),
(307,40,cs),
(159,345,l),
(297,631,ls),
(307,651,o),
(314,657,o),
(295,673,cs),
(278,688,o),
(263,690,o),
(253,669,cs),
(125,396,l),
(125,657,ls),
(125,679,o),
(117,687,o),
(95,687,cs),
(73,687,o),
(65,680,o),
(65,658,cs),
(65,19,ls),
(65,-3,o),
(72,-11,o),
(94,-11,cs)
);
}
);
width = 357;
},
{
anchors = (
{
name = bottom;
pos = (305,0);
},
{
name = top;
pos = (305,700);
}
);
layerId = "988D29BF-96E2-481F-8769-6B283BD5795A";
shapes = (
{
closed = 1;
nodes = (
(131,-11,o),
(139,-4,o),
(139,18,cs),
(139,298,l),
(479,-3,ls),
(497,-19,o),
(506,-17,o),
(521,-1,cs),
(537,16,o),
(535,26,o),
(518,41,cs),
(181,340,l),
(513,634,ls),
(530,649,o),
(532,659,o),
(516,676,cs),
(501,692,o),
(491,693,o),
(474,678,cs),
(139,381,l),
(139,657,ls),
(139,679,o),
(131,687,o),
(109,687,cs),
(87,687,o),
(79,680,o),
(79,658,cs),
(79,19,ls),
(79,-3,o),
(86,-11,o),
(108,-11,cs)
);
}
);
width = 589;
},
{
anchors = (
{
name = bottom;
pos = (268,0);
},
{
name = top;
pos = (268,700);
}
);
layerId = "C221B64C-0844-4CE6-BA2A-18F986CD7755";
shapes = (
{
closed = 1;
nodes = (
(228,-9,o),
(228,37,o),
(228,82,cs),
(228,197,l),
(325,46,ls),
(361,-9,o),
(389,-21,o),
(452,18,cs),
(512,56,o),
(519,91,o),
(480,144,cs),
(333,346,l),
(480,537,ls),
(518,589,o),
(514,624,o),
(452,663,cs),
(391,701,o),
(362,692,o),
(325,635,cs),
(228,486,l),
(228,599,ls),
(228,644,o),
(228,691,o),
(137,691,cs),
(45,691,o),
(45,644,o),
(45,600,cs),
(45,83,ls),
(45,38,o),
(45,-9,o),
(136,-9,cs)
);
}
);
width = 530;
},
{
anchors = (
{
name = bottom;
pos = (489,0);
},
{
name = top;
pos = (489,700);
}
);
layerId = "F1D2FE0C-0290-44F9-97DF-753285E87900";
shapes = (
{
closed = 1;
nodes = (
(107,-11,o),
(115,-4,o),
(115,18,cs),
(115,301,l),
(777,-7,ls),
(797,-16,o),
(806,-14,o),
(817,5,cs),
(828,24,o),
(824,36,o),
(804,45,cs),
(170,337,l),
(804,630,ls),
(824,639,o),
(828,651,o),
(817,670,cs),
(806,689,o),
(796,691,o),
(777,682,cs),
(115,375,l),
(115,657,ls),
(115,679,o),
(107,687,o),
(85,687,cs),
(63,687,o),
(55,680,o),
(55,658,cs),
(55,19,ls),
(55,-3,o),
(62,-11,o),
(84,-11,cs)
);
}
);
width = 868;
},
{
anchors = (
{
name = bottom;
pos = (424,0);
},
{
name = top;
pos = (424,700);
}
);
layerId = "D56FD762-6887-41EE-B8AF-857F7388911F";
shapes = (
{
closed = 1;
nodes = (
(238,-9,o),
(238,37,o),
(238,82,cs),
(238,260,l),
(737,8,ls),
(800,-24,o),
(821,-30,o),
(865,34,cs),
(905,93,o),
(894,124,o),
(838,161,c),
(410,351,l),
(837,518,ls),
(898,542,o),
(908,578,o),
(871,643,cs),
(835,706,o),
(808,704,o),
(746,677,cs),
(238,457,l),
(238,599,ls),
(238,644,o),
(238,691,o),
(147,691,cs),
(55,691,o),
(55,644,o),
(55,600,cs),
(55,83,ls),
(55,38,o),
(55,-9,o),
(146,-9,cs)
);
}
);
width = 928;
}
);
note = K;
unicode = 75;
},
{
color = 6;
glyphname = L;
kernRight = L;
layers = (
{
anchors = (
{
name = bottom;
pos = (295,0);
},
{
name = center;
pos = (295,350);
},
{
name = top;
pos = (295,700);
},
{
name = topright;
pos = (548,700);
}
);
layerId = "05A6575B-AA27-4212-BC78-A0BDA398BBDE";
shapes = (
{
closed = 1;
nodes = (
(476,-9,ls),
(513,-9,o),
(554,-8,o),
(554,69,cs),
(554,147,o),
(514,147,o),
(477,147,cs),
(233,147,l),
(233,599,ls),
(233,644,o),
(233,691,o),
(142,691,cs),
(50,691,o),
(50,644,o),
(50,600,cs),
(50,83,ls),
(50,38,o),
(50,-9,o),
(141,-9,cs)
);
}
);
width = 569;
},
{
anchors = (
{
name = bottom;
pos = (187,0);
},
{
name = center;
pos = (187,350);
},
{
name = top;
pos = (187,700);
},
{
name = topright;
pos = (314,700);
}
);
layerId = "4383C18A-60F2-4889-B7DB-EDD0F2222092";
shapes = (
{
closed = 1;
nodes = (
(291,-11,ls),
(312,-11,o),
(319,-3,o),
(319,20,cs),
(319,42,o),
(311,49,o),
(289,49,cs),
(124,49,l),
(124,657,l),
(124,679,o),
(116,687,o),
(94,687,cs),
(72,687,o),
(65,679,o),
(65,656,cs),
(65,19,ls),
(65,-3,o),
(73,-11,o),
(97,-11,cs)
);
}
);
width = 354;
},
{
anchors = (
{
name = bottom;
pos = (274,-3);
},
{
name = center;
pos = (274,365);
},
{
name = top;
pos = (104,700);
},
{
name = topright;
pos = (561,700);
}
);
layerId = "988D29BF-96E2-481F-8769-6B283BD5795A";
shapes = (
{
closed = 1;
nodes = (
(496,-11,ls),
(517,-11,o),
(524,-3,o),
(524,20,cs),
(524,42,o),
(516,49,o),
(494,49,cs),
(129,49,l),
(129,657,l),
(129,679,o),
(121,687,o),
(99,687,cs),
(77,687,o),
(70,679,o),
(70,656,cs),
(70,19,ls),
(70,-3,o),
(78,-11,o),
(102,-11,cs)
);
}
);
width = 554;
},
{
anchors = (
{
name = bottom;
pos = (251,0);
},
{
name = center;
pos = (251,350);
},
{
name = top;
pos = (251,700);
},
{
name = topright;
pos = (464,700);
}
);
layerId = "C221B64C-0844-4CE6-BA2A-18F986CD7755";
shapes = (
{
closed = 1;
nodes = (
(381,-9,ls),
(418,-9,o),
(459,-8,o),
(459,69,cs),
(459,147,o),
(419,147,o),
(382,147,cs),
(228,147,l),
(228,599,ls),
(228,644,o),
(228,691,o),
(137,691,cs),
(45,691,o),
(45,644,o),
(45,600,cs),
(45,83,ls),
(45,38,o),
(45,-9,o),
(136,-9,cs)
);
}
);
width = 484;
},
{
anchors = (
{
name = bottom;
pos = (435,0);
},
{
name = center;
pos = (435,350);
},
{
name = top;
pos = (435,700);
},
{
name = topright;
pos = (839,700);
}
);
layerId = "F1D2FE0C-0290-44F9-97DF-753285E87900";
shapes = (
{
closed = 1;
nodes = (
(781,-11,ls),
(802,-11,o),
(809,-3,o),
(809,20,cs),
(809,42,o),
(801,49,o),
(779,49,cs),
(114,49,l),
(114,657,l),
(114,679,o),
(106,687,o),
(84,687,cs),
(62,687,o),
(55,679,o),
(55,656,cs),
(55,19,ls),
(55,-3,o),
(63,-11,o),
(87,-11,cs)
);
}
);
width = 839;
},
{
anchors = (
{
name = bottom;
pos = (507,0);
},
{
name = center;
pos = (507,350);
},
{
name = top;
pos = (507,700);
},
{
name = topright;
pos = (864,700);
}
);
layerId = "D56FD762-6887-41EE-B8AF-857F7388911F";
shapes = (
{
closed = 1;
nodes = (
(781,-9,ls),
(818,-9,o),
(859,-8,o),
(859,69,cs),
(859,147,o),
(819,147,o),
(782,147,cs),
(238,147,l),
(238,599,ls),
(238,644,o),
(238,691,o),
(147,691,cs),
(55,691,o),
(55,644,o),
(55,600,cs),
(55,83,ls),
(55,38,o),
(55,-9,o),
(146,-9,cs)
);
}
);
width = 884;
}
);
note = L;
unicode = 76;
},
{
color = 3;
glyphname = Lslash;
kernRight = L;
layers = (
{
layerId = "05A6575B-AA27-4212-BC78-A0BDA398BBDE";
shapes = (
{
closed = 1;
nodes = (
(389,334,ls),
(433,347,o),
(444,369,o),
(435,418,cs),
(422,464,o),
(401,477,o),
(352,466,cs),
(66,386,ls),
(19,374,o),
(7,352,o),
(19,302,cs),
(34,250,o),
(56,238,o),
(103,253,cs)
);
},
{
pos = (80,0);
ref = L;
}
);
width = 659;
},
{
layerId = "4383C18A-60F2-4889-B7DB-EDD0F2222092";
shapes = (
{
closed = 1;
nodes = (
(283,308,ls),
(303,315,o),
(309,325,o),
(301,346,cs),
(293,368,o),
(285,373,o),
(265,366,cs),
(45,287,ls),
(24,279,o),
(21,270,o),
(28,248,cs),
(35,227,o),
(46,223,o),
(66,230,cs)
);
},
{
pos = (60,0);
ref = L;
}
);
width = 404;
},
{
layerId = "988D29BF-96E2-481F-8769-6B283BD5795A";
shapes = (
{
closed = 1;
nodes = (
(313,320,ls),
(333,327,o),
(339,337,o),
(331,358,cs),
(323,380,o),
(315,385,o),
(295,378,cs),
(35,287,ls),
(14,280,o),
(11,270,o),
(18,248,cs),
(25,227,o),
(36,223,o),
(56,230,cs)
);
},
{
pos = (50,0);
ref = L;
}
);
width = 599;
},
{
layerId = "C221B64C-0844-4CE6-BA2A-18F986CD7755";
shapes = (
{
closed = 1;
nodes = (
(339,314,ls),
(384,326,o),
(394,349,o),
(385,398,cs),
(376,445,o),
(351,459,o),
(302,446,cs),
(76,386,ls),
(29,374,o),
(17,352,o),
(29,302,cs),
(42,249,o),
(65,240,o),
(113,253,cs)
);
},
{
pos = (70,0);
ref = L;
}
);
width = 557;
},
{
layerId = "F1D2FE0C-0290-44F9-97DF-753285E87900";
shapes = (
{
closed = 1;
nodes = (
(390,342,ls),
(410,349,o),
(416,359,o),
(408,380,cs),
(400,402,o),
(392,407,o),
(372,400,cs),
(45,287,ls),
(24,280,o),
(21,270,o),
(28,248,cs),
(35,227,o),
(46,223,o),
(66,230,cs)
);
},
{
pos = (90,0);
ref = L;
}
);
width = 924;
},
{
layerId = "D56FD762-6887-41EE-B8AF-857F7388911F";
shapes = (
{
closed = 1;
nodes = (
(567,338,ls),
(612,351,o),
(622,373,o),
(613,422,cs),
(604,469,o),
(579,484,o),
(530,470,cs),
(76,341,ls),
(30,328,o),
(17,307,o),
(29,257,cs),
(42,204,o),
(65,194,o),
(113,208,cs)
);
},
{
pos = (160,0);
ref = L;
}
);
width = 1044;
}
);
note = Lslash;
unicode = 321;
},
{
color = 6;
glyphname = M;
kernRight = d;
layers = (
{
anchors = (
{
name = bottom;
pos = (405,0);
},
{
name = top;
pos = (405,700);
}
);
layerId = "05A6575B-AA27-4212-BC78-A0BDA398BBDE";
shapes = (
{
closed = 1;
nodes = (
(210,-8,o),
(210,37,o),
(210,82,cs),
(210,367,l),
(326,209,l),
(334,197,o),
(350,168,o),
(404,168,cs),
(458,168,o),
(472,199,o),
(481,209,c),
(598,368,l),
(598,84,ls),
(598,39,o),
(598,-8,o),
(689,-8,cs),
(780,-8,o),
(781,37,o),
(781,82,cs),
(781,598,ls),
(781,644,o),
(780,690,o),
(690,690,cs),
(635,690,o),
(626,682,o),
(607,661,c),
(401,396,l),
(407,396,l),
(200,662,l),
(185,677,o),
(182,690,o),
(120,690,cs),
(28,690,o),
(28,644,o),
(28,600,cs),
(28,84,ls),
(28,37,o),
(29,-8,o),
(118,-8,cs)
);
}
);
width = 809;
},
{
anchors = (
{
name = bottom;
pos = (280,0);
},
{
name = top;
pos = (280,700);
}
);
layerId = "4383C18A-60F2-4889-B7DB-EDD0F2222092";
shapes = (
{
closed = 1;
nodes = (
(114,-11,o),
(124,-1,o),
(124,18,cs),
(124,574,l),
(259,230,ls),
(264,218,o),
(274,214,o),
(286,214,cs),
(297,214,o),
(309,217,o),
(313,228,cs),
(449,574,l),
(449,20,ls),
(449,0,o),
(459,-11,o),
(478,-11,cs),
(498,-11,o),
(509,-1,o),
(509,18,cs),
(509,656,ls),
(509,676,o),
(499,687,o),
(480,687,cs),
(461,687,o),
(443,684,o),
(438,672,cs),
(262,237,l),
(311,237,l),
(138,668,ls),
(132,683,o),
(116,687,o),
(96,687,cs),
(76,687,o),
(65,677,o),
(65,658,cs),
(65,20,ls),
(65,0,o),
(75,-11,o),
(94,-11,cs)
);
}
);
width = 574;
},
{
anchors = (
{
name = bottom;
pos = (435,-3);
},
{
name = top;
pos = (401,700);
}
);
layerId = "988D29BF-96E2-481F-8769-6B283BD5795A";
shapes = (
{
closed = 1;
nodes = (
(132,-11,o),
(142,-1,o),
(142,18,cs),
(142,594,l),
(387,229,l),
(398,217,o),
(402,214,o),
(414,214,cs),
(425,214,o),
(435,219,o),
(441,227,c),
(687,594,l),
(687,20,ls),
(687,0,o),
(697,-11,o),
(716,-11,cs),
(736,-11,o),
(747,-1,o),
(747,18,cs),
(747,656,ls),
(747,676,o),
(736,687,o),
(717,687,cs),
(698,687,o),
(686,687,o),
(678,677,c),
(394,257,l),
(434,257,l),
(154,673,l),
(144,684,o),
(134,687,o),
(114,687,cs),
(94,687,o),
(83,677,o),
(83,658,cs),
(83,20,ls),
(83,0,o),
(93,-11,o),
(112,-11,cs)
);
}
);
width = 830;
},
{
anchors = (
{
name = bottom;
pos = (377,0);
},
{
name = top;
pos = (377,700);
}
);
layerId = "C221B64C-0844-4CE6-BA2A-18F986CD7755";
shapes = (
{
closed = 1;
nodes = (
(217,-8,o),
(217,37,o),
(217,82,cs),
(217,358,l),
(298,209,ls),
(309,188,o),
(322,168,o),
(376,168,cs),
(430,168,o),
(442,189,o),
(453,209,cs),
(535,359,l),
(535,84,ls),
(535,39,o),
(535,-8,o),
(626,-8,cs),
(717,-8,o),
(718,37,o),
(718,82,cs),
(718,598,ls),
(718,644,o),
(717,690,o),
(627,690,cs),
(572,690,o),
(558,685,o),
(544,661,cs),
(363,356,l),
(389,356,l),
(207,661,ls),
(197,680,o),
(179,690,o),
(127,690,cs),
(35,690,o),
(35,644,o),
(35,600,cs),
(35,84,ls),
(35,37,o),
(36,-8,o),
(125,-8,cs)
);
}
);
width = 753;
},
{
anchors = (
{
name = bottom;
pos = (537,0);
},
{
name = top;
pos = (537,700);
}
);
layerId = "F1D2FE0C-0290-44F9-97DF-753285E87900";
shapes = (
{
closed = 1;
nodes = (
(104,-11,o),
(114,-1,o),
(114,18,cs),
(114,603,l),
(509,199,ls),
(519,188,o),
(524,184,o),
(536,184,cs),
(547,184,o),
(556,189,o),
(563,197,cs),
(959,603,l),
(959,20,ls),
(959,0,o),
(969,-11,o),
(988,-11,cs),
(1008,-11,o),
(1019,-1,o),
(1019,18,cs),
(1019,656,ls),
(1019,676,o),
(1008,687,o),
(989,687,cs),
(970,687,o),
(958,687,o),
(950,677,c),
(519,237,l),
(553,237,l),
(126,673,l),
(116,684,o),
(106,687,o),
(86,687,cs),
(66,687,o),
(55,677,o),
(55,658,cs),
(55,20,ls),
(55,0,o),
(65,-11,o),
(84,-11,cs)
);
}
);
width = 1074;
},
{
anchors = (
{
name = bottom;
pos = (582,0);
},
{
name = top;
pos = (582,700);
}
);
layerId = "D56FD762-6887-41EE-B8AF-857F7388911F";
shapes = (
{
closed = 1;
nodes = (
(237,-8,o),
(237,37,o),
(237,82,cs),
(237,430,l),
(503,209,ls),
(518,196,o),
(538,168,o),
(581,168,cs),
(624,168,o),
(644,197,o),
(658,209,cs),
(925,430,l),
(925,84,ls),
(925,39,o),
(925,-8,o),
(1016,-8,cs),
(1107,-8,o),
(1108,37,o),
(1108,82,cs),
(1108,598,ls),
(1108,644,o),
(1107,690,o),
(1017,690,cs),
(982,690,o),
(962,685,o),
(934,661,cs),
(568,346,l),
(594,346,l),
(227,662,ls),
(205,681,o),
(189,690,o),
(147,690,cs),
(55,690,o),
(55,644,o),
(55,600,cs),
(55,84,ls),
(55,37,o),
(56,-8,o),
(145,-8,cs)
);
}
);
width = 1163;
}
);
note = M;
unicode = 77;
},
{
color = 6;
glyphname = N;
kernLeft = N;
kernRight = N;
layers = (
{
anchors = (
{
name = bottom;
pos = (335,0);
},
{
name = top;
pos = (335,700);
}
);
layerId = "05A6575B-AA27-4212-BC78-A0BDA398BBDE";
shapes = (
{
closed = 1;
nodes = (
(210,-9,o),
(210,37,o),
(210,82,c),
(210,360,l),
(469,18,l),
(485,-3,o),
(505,-9,o),
(550,-9,cs),
(642,-9,o),
(642,37,o),
(642,82,cs),
(642,598,ls),
(642,643,o),
(642,690,o),
(551,690,cs),
(461,690,o),
(459,646,o),
(459,602,cs),
(459,315,l),
(209,651,ls),
(192,673,o),
(178,690,o),
(120,690,cs),
(29,690,o),
(28,646,o),
(28,602,cs),
(28,83,ls),
(28,37,o),
(29,-9,o),
(118,-9,cs)
);
}
);
width = 670;
},
{
anchors = (
{
name = bottom;
pos = (248,0);
},
{
name = top;
pos = (248,700);
}
);
layerId = "4383C18A-60F2-4889-B7DB-EDD0F2222092";
shapes = (
{
closed = 1;
nodes = (
(113,-10,o),
(124,0,o),
(124,20,cs),
(124,558,l),
(341,9,ls),
(347,-6,o),
(362,-10,o),
(376,-10,cs),
(396,-10,o),
(411,0,o),
(411,20,cs),
(411,656,ls),
(411,676,o),
(401,687,o),
(383,687,cs),
(363,687,o),
(352,678,o),
(352,661,cs),
(352,115,l),
(135,670,ls),
(130,684,o),
(118,687,o),
(98,687,cs),
(78,687,o),
(65,678,o),
(65,661,cs),
(65,21,ls),
(65,1,o),
(75,-10,o),
(93,-10,cs)
);
}
);
width = 476;
},
{
anchors = (
{
name = bottom;
pos = (360,0);
},
{
name = top;
pos = (360,700);
}
);
layerId = "988D29BF-96E2-481F-8769-6B283BD5795A";
shapes = (
{
closed = 1;
nodes = (
(125,-10,o),
(136,0,o),
(136,20,cs),
(136,596,l),
(554,6,l),
(565,-7,o),
(574,-10,o),
(588,-10,cs),
(608,-10,o),
(623,0,o),
(623,20,cs),
(623,656,ls),
(623,676,o),
(613,687,o),
(595,687,cs),
(575,687,o),
(564,678,o),
(564,661,cs),
(564,79,l),
(146,676,ls),
(137,687,o),
(130,687,o),
(110,687,cs),
(90,687,o),
(77,678,o),
(77,661,cs),
(77,21,ls),
(77,1,o),
(87,-10,o),
(105,-10,cs)
);
}
);
width = 720;
},
{
anchors = (
{
name = bottom;
pos = (316,0);
},
{
name = top;
pos = (316,700);
}
);
layerId = "C221B64C-0844-4CE6-BA2A-18F986CD7755";
shapes = (
{
closed = 1;
nodes = (
(217,-9,o),
(217,37,o),
(217,82,c),
(217,330,l),
(426,18,l),
(442,-3,o),
(462,-9,o),
(507,-9,cs),
(599,-9,o),
(599,37,o),
(599,82,cs),
(599,598,ls),
(599,643,o),
(599,690,o),
(508,690,cs),
(418,690,o),
(416,646,o),
(416,602,cs),
(416,345,l),
(216,651,ls),
(199,673,o),
(185,690,o),
(127,690,cs),
(36,690,o),
(35,646,o),
(35,602,cs),
(35,83,ls),
(35,37,o),
(36,-9,o),
(125,-9,cs)
);
}
);
width = 634;
},
{
anchors = (
{
name = bottom;
pos = (498,0);
},
{
name = top;
pos = (498,700);
}
);
layerId = "F1D2FE0C-0290-44F9-97DF-753285E87900";
shapes = (
{
closed = 1;
nodes = (
(103,-10,o),
(114,0,o),
(114,20,cs),
(114,602,l),
(832,5,l),
(843,-7,o),
(852,-10,o),
(866,-10,cs),
(886,-10,o),
(901,0,o),
(901,20,cs),
(901,656,ls),
(901,676,o),
(891,687,o),
(873,687,cs),
(853,687,o),
(842,678,o),
(842,661,cs),
(842,73,l),
(124,676,ls),
(113,685,o),
(108,687,o),
(88,687,cs),
(68,687,o),
(55,678,o),
(55,661,cs),
(55,21,ls),
(55,1,o),
(65,-10,o),
(83,-10,cs)
);
}
);
width = 956;
},
{
anchors = (
{
name = bottom;
pos = (532,0);
},
{
name = top;
pos = (532,700);
}
);
layerId = "D56FD762-6887-41EE-B8AF-857F7388911F";
shapes = (
{
closed = 1;
nodes = (
(237,-9,o),
(237,37,o),
(237,82,c),
(237,420,l),
(796,18,ls),
(823,-1,o),
(852,-9,o),
(887,-9,cs),
(969,-9,o),
(969,37,o),
(969,82,cs),
(969,598,ls),
(969,643,o),
(969,690,o),
(878,690,cs),
(788,690,o),
(786,646,o),
(786,602,cs),
(786,255,l),
(236,651,ls),
(206,673,o),
(185,690,o),
(147,690,cs),
(66,690,o),
(55,646,o),
(55,602,cs),
(55,83,ls),
(55,37,o),
(56,-9,o),
(145,-9,cs)
);
}
);
width = 1024;
}
);
note = N;
unicode = 78;
},
{
color = 6;
glyphname = O;
kernRight = O;
layers = (
{
anchors = (
{
name = bottom;
pos = (361,0);
},
{
name = center;
pos = (361,350);
},
{
name = ogonek;
pos = (450,2);
},
{
name = top;
pos = (361,700);
},
{
name = topleft;
pos = (20,700);
},
{
name = topright;
pos = (701,700);
}
);
layerId = "05A6575B-AA27-4212-BC78-A0BDA398BBDE";
shapes = (
{
closed = 1;
nodes = (
(553,-20,o),
(707,142,o),
(707,339,cs),
(707,541,o),
(552,699,o),
(357,699,cs),
(167,699,o),
(14,538,o),
(14,335,cs),
(14,139,o),
(171,-20,o),
(365,-20,cs)
);
},
{
closed = 1;
nodes = (
(272,163,o),
(197,242,o),
(197,339,cs),
(197,438,o),
(271,516,o),
(361,516,cs),
(450,516,o),
(524,438,o),
(524,339,cs),
(524,239,o),
(451,163,o),
(360,163,cs)
);
}
);
width = 721;
},
{
anchors = (
{
name = bottom;
pos = (262,0);
},
{
name = center;
pos = (262,350);
},
{
name = ogonek;
pos = (304,10);
},
{
name = top;
pos = (262,700);
},
{
name = topleft;
pos = (-20,700);
},
{
name = topright;
pos = (543,700);
}
);
layerId = "4383C18A-60F2-4889-B7DB-EDD0F2222092";
shapes = (
{
closed = 1;
nodes = (
(406,-12,o),
(478,109,o),
(478,342,cs),
(478,576,o),
(403,698,o),
(258,698,cs),
(118,698,o),
(45,575,o),
(45,338,cs),
(45,108,o),
(121,-12,o),
(267,-12,cs)
);
},
{
closed = 1;
nodes = (
(157,46,o),
(103,147,o),
(103,342,cs),
(103,538,o),
(158,640,o),
(262,640,cs),
(366,640,o),
(420,538,o),
(420,343,cs),
(420,148,o),
(365,46,o),
(261,46,cs)
);
}
);
width = 523;
},
{
anchors = (
{
name = bottom;
pos = (368,0);
},
{
name = center;
pos = (368,350);
},
{
name = ogonek;
pos = (381,4);
},
{
name = top;
pos = (368,700);
},
{
name = topleft;
pos = (20,700);
},
{
name = topright;
pos = (715,700);
}
);
layerId = "988D29BF-96E2-481F-8769-6B283BD5795A";
shapes = (
{
closed = 1;
nodes = (
(554,-16,o),
(705,144,o),
(705,336,cs),
(705,534,o),
(553,690,o),
(364,690,cs),
(180,690,o),
(30,530,o),
(30,332,cs),
(30,141,o),
(184,-16,o),
(373,-16,cs)
);
},
{
closed = 1;
nodes = (
(216,44,o),
(90,176,o),
(90,336,cs),
(90,499,o),
(215,630,o),
(368,630,cs),
(520,630,o),
(645,498,o),
(645,337,cs),
(645,174,o),
(521,44,o),
(367,44,cs)
);
}
);
width = 735;
},
{
anchors = (
{
name = bottom;
pos = (290,0);
},
{
name = center;
pos = (290,350);
},
{
name = ogonek;
pos = (383,0);
},
{
name = top;
pos = (290,700);
},
{
name = topleft;
pos = (-20,700);
},
{
name = topright;
pos = (599,700);
}
);
layerId = "C221B64C-0844-4CE6-BA2A-18F986CD7755";
shapes = (
{
closed = 1;
nodes = (
(452,-20,o),
(544,113,o),
(544,339,cs),
(544,565,o),
(449,699,o),
(287,699,cs),
(129,699,o),
(35,564,o),
(35,335,cs),
(35,112,o),
(132,-20,o),
(295,-20,cs)
);
},
{
closed = 1;
nodes = (
(251,163,o),
(228,228,o),
(228,339,cs),
(228,450,o),
(251,516,o),
(290,516,cs),
(329,516,o),
(352,450,o),
(352,339,cs),
(352,228,o),
(329,163,o),
(289,163,cs)
);
}
);
width = 579;
},
{
anchors = (
{
name = bottom;
pos = (522,0);
},
{
name = center;
pos = (522,350);
},
{
name = ogonek;
pos = (541,6);
},
{
name = top;
pos = (522,700);
},
{
name = topleft;
pos = (54,700);
},
{
name = topright;
pos = (989,700);
}
);
layerId = "F1D2FE0C-0290-44F9-97DF-753285E87900";
shapes = (
{
closed = 1;
nodes = (
(819,-14,o),
(1008,116,o),
(1008,340,cs),
(1008,567,o),
(815,697,o),
(518,697,cs),
(225,697,o),
(35,565,o),
(35,336,cs),
(35,115,o),
(229,-14,o),
(527,-14,cs)
);
},
{
closed = 1;
nodes = (
(264,44,o),
(93,152,o),
(93,340,cs),
(93,530,o),
(264,639,o),
(522,639,cs),
(779,639,o),
(950,530,o),
(950,341,cs),
(950,157,o),
(783,44,o),
(521,44,cs)
);
}
);
width = 1043;
},
{
anchors = (
{
name = bottom;
pos = (530,0);
},
{
name = center;
pos = (530,350);
},
{
name = ogonek;
pos = (542,10);
},
{
name = top;
pos = (530,700);
},
{
name = topleft;
pos = (96,700);
},
{
name = topright;
pos = (963,700);
}
);
layerId = "D56FD762-6887-41EE-B8AF-857F7388911F";
shapes = (
{
closed = 1;
nodes = (
(847,-25,o),
(1023,121,o),
(1023,339,cs),
(1023,558,o),
(844,704,o),
(526,704,cs),
(211,704,o),
(35,556,o),
(35,335,cs),
(35,119,o),
(215,-25,o),
(534,-25,cs)
);
},
{
closed = 1;
nodes = (
(322,157,o),
(218,230,o),
(218,339,cs),
(218,449,o),
(323,522,o),
(530,522,cs),
(737,522,o),
(841,449,o),
(841,339,cs),
(841,230,o),
(736,157,o),
(529,157,cs)
);
}
);
width = 1058;
}
);
note = O;
unicode = 79;
},
{
color = 6;
glyphname = Oslash;
kernRight = O;
layers = (
{
anchors = (
{
name = bottom;
pos = (361,0);
},
{
name = top;
pos = (361,700);
}
);
layerId = "05A6575B-AA27-4212-BC78-A0BDA398BBDE";
shapes = (
{
closed = 1;
nodes = (
(563,-20,o),
(717,142,o),
(717,339,cs),
(717,541,o),
(562,699,o),
(367,699,cs),
(177,699,o),
(24,538,o),
(24,335,cs),
(24,139,o),
(181,-20,o),
(375,-20,cs)
);
},
{
closed = 1;
nodes = (
(281,163,o),
(207,241,o),
(207,339,cs),
(207,438,o),
(280,516,o),
(371,516,cs),
(460,516,o),
(534,438,o),
(534,339,cs),
(534,239,o),
(461,163,o),
(370,163,cs)
);
},
{
closed = 1;
nodes = (
(245,-74,o),
(270,-67,o),
(297,-11,cs),
(596,610,ls),
(624,667,o),
(619,689,o),
(554,721,cs),
(495,750,o),
(468,743,o),
(441,687,cs),
(141,60,ls),
(115,5,o),
(123,-17,o),
(185,-46,cs)
);
}
);
width = 742;
},
{
anchors = (
{
name = bottom;
pos = (252,0);
},
{
name = top;
pos = (252,700);
}
);
layerId = "4383C18A-60F2-4889-B7DB-EDD0F2222092";
shapes = (
{
closed = 1;
nodes = (
(396,-12,o),
(468,109,o),
(468,342,cs),
(468,576,o),
(393,698,o),
(248,698,cs),
(108,698,o),
(35,575,o),
(35,338,cs),
(35,108,o),
(111,-12,o),
(257,-12,cs)
);
},
{
closed = 1;
nodes = (
(147,46,o),
(93,147,o),
(93,342,cs),
(93,538,o),
(148,640,o),
(252,640,cs),
(356,640,o),
(410,538,o),
(410,343,cs),
(410,148,o),
(355,46,o),
(251,46,cs)
);
},
{
closed = 1;
nodes = (
(96,-36,o),
(107,-32,o),
(116,-12,cs),
(434,661,ls),
(443,681,o),
(441,692,o),
(422,701,cs),
(402,711,o),
(392,707,o),
(382,687,cs),
(63,14,ls),
(53,-6,o),
(56,-17,o),
(75,-26,cs)
);
}
);
width = 503;
},
{
anchors = (
{
name = bottom;
pos = (368,0);
},
{
name = top;
pos = (368,700);
}
);
layerId = "988D29BF-96E2-481F-8769-6B283BD5795A";
shapes = (
{
closed = 1;
nodes = (
(554,-16,o),
(705,144,o),
(705,336,cs),
(705,534,o),
(553,690,o),
(364,690,cs),
(180,690,o),
(30,530,o),
(30,332,cs),
(30,141,o),
(184,-16,o),
(373,-16,cs)
);
},
{
closed = 1;
nodes = (
(216,44,o),
(90,176,o),
(90,336,cs),
(90,499,o),
(215,630,o),
(368,630,cs),
(520,630,o),
(645,498,o),
(645,337,cs),
(645,174,o),
(521,44,o),
(367,44,cs)
);
},
{
closed = 1;
nodes = (
(213,-36,o),
(224,-32,o),
(233,-12,cs),
(551,661,ls),
(560,681,o),
(558,692,o),
(539,701,cs),
(519,711,o),
(509,707,o),
(499,687,cs),
(180,14,ls),
(170,-6,o),
(173,-17,o),
(192,-26,cs)
);
}
);
width = 735;
},
{
anchors = (
{
name = bottom;
pos = (350,0);
},
{
name = top;
pos = (350,700);
}
);
layerId = "C221B64C-0844-4CE6-BA2A-18F986CD7755";
shapes = (
{
closed = 1;
nodes = (
(535,-20,o),
(654,123,o),
(654,339,cs),
(654,555,o),
(532,699,o),
(347,699,cs),
(166,699,o),
(45,553,o),
(45,335,cs),
(45,122,o),
(169,-20,o),
(355,-20,cs)
);
},
{
closed = 1;
nodes = (
(283,163,o),
(238,233,o),
(238,339,cs),
(238,445,o),
(283,516,o),
(350,516,cs),
(416,516,o),
(462,445,o),
(462,339,cs),
(462,233,o),
(416,163,o),
(349,163,cs)
);
},
{
closed = 1;
nodes = (
(163,-113,o),
(192,-105,o),
(215,-63,cs),
(623,679,ls),
(648,725,o),
(638,755,o),
(591,779,cs),
(544,803,o),
(515,801,o),
(490,755,cs),
(79,8,ls),
(55,-36,o),
(73,-67,o),
(114,-88,cs)
);
}
);
width = 699;
},
{
anchors = (
{
name = bottom;
pos = (488,0);
},
{
name = top;
pos = (488,700);
}
);
layerId = "F1D2FE0C-0290-44F9-97DF-753285E87900";
shapes = (
{
closed = 1;
nodes = (
(735,-14,o),
(924,116,o),
(924,340,cs),
(924,567,o),
(731,697,o),
(484,697,cs),
(241,697,o),
(51,565,o),
(51,336,cs),
(51,115,o),
(245,-14,o),
(493,-14,cs)
);
},
{
closed = 1;
nodes = (
(280,44,o),
(109,152,o),
(109,340,cs),
(109,530,o),
(280,639,o),
(488,639,cs),
(695,639,o),
(866,530,o),
(866,341,cs),
(866,157,o),
(699,44,o),
(487,44,cs)
);
},
{
closed = 1;
nodes = (
(229,-55,o),
(239,-53,o),
(251,-36,cs),
(755,679,ls),
(769,699,o),
(770,710,o),
(753,722,cs),
(736,734,o),
(724,731,o),
(711,712,cs),
(208,-2,ls),
(195,-21,o),
(196,-33,o),
(212,-44,cs)
);
}
);
width = 975;
},
{
anchors = (
{
name = bottom;
pos = (519,0);
},
{
name = top;
pos = (519,700);
}
);
layerId = "D56FD762-6887-41EE-B8AF-857F7388911F";
shapes = (
{
closed = 1;
nodes = (
(837,-25,o),
(1013,121,o),
(1013,339,cs),
(1013,558,o),
(834,704,o),
(516,704,cs),
(201,704,o),
(25,556,o),
(25,335,cs),
(25,119,o),
(205,-25,o),
(524,-25,cs)
);
},
{
closed = 1;
nodes = (
(312,157,o),
(208,230,o),
(208,339,cs),
(208,449,o),
(313,522,o),
(520,522,cs),
(727,522,o),
(831,449,o),
(831,339,cs),
(831,230,o),
(726,157,o),
(519,157,cs)
);
},
{
closed = 1;
nodes = (
(261,-107,o),
(290,-104,o),
(318,-65,cs),
(832,664,ls),
(862,707,o),
(855,738,o),
(811,767,cs),
(767,796,o),
(738,797,o),
(708,755,cs),
(191,21,ls),
(162,-20,o),
(176,-53,o),
(215,-78,cs)
);
}
);
width = 1038;
}
);
note = Oslash;
unicode = 216;
},
{
color = 6;
glyphname = OE;
kernRight = d;
layers = (
{
anchors = (
{
name = bottom;
pos = (548,0);
},
{
name = top;
pos = (548,700);
}
);
layerId = "05A6575B-AA27-4212-BC78-A0BDA398BBDE";
shapes = (
{
closed = 1;
nodes = (
(910,-9,ls),
(954,-9,o),
(1002,-9,o),
(1002,82,cs),
(1002,174,o),
(955,174,o),
(910,170,cs),
(633,170,l),
(633,249,l),
(806,249,ls),
(852,249,o),
(899,249,o),
(899,340,cs),
(899,432,o),
(853,432,o),
(808,432,cs),
(633,432,l),
(633,508,l),
(910,508,ls),
(954,508,o),
(1002,508,o),
(1002,599,cs),
(1002,691,o),
(955,691,o),
(910,691,cs),
(347,691,ls),
(164,691,o),
(14,532,o),
(14,337,cs),
(14,153,o),
(160,1,o),
(346,-9,cs)
);
},
{
closed = 1;
nodes = (
(263,177,o),
(197,250,o),
(197,339,cs),
(197,431,o),
(262,504,o),
(348,508,c),
(450,508,l),
(450,170,l),
(347,170,l)
);
}
);
width = 1016;
},
{
anchors = (
{
name = bottom;
pos = (358,0);
},
{
name = top;
pos = (358,700);
}
);
layerId = "4383C18A-60F2-4889-B7DB-EDD0F2222092";
shapes = (
{
closed = 1;
nodes = (
(573,-11,ls),
(595,-11,o),
(603,-4,o),
(603,18,cs),
(603,41,o),
(596,48,o),
(574,48,cs),
(387,48,l),
(387,320,l),
(456,320,ls),
(479,320,o),
(487,327,o),
(487,349,cs),
(487,372,o),
(480,380,o),
(458,380,cs),
(387,380,l),
(387,630,l),
(573,630,ls),
(595,630,o),
(603,634,o),
(603,656,cs),
(603,679,o),
(596,687,o),
(574,687,cs),
(307,687,ls),
(126,687,o),
(35,542,o),
(35,337,cs),
(35,128,o),
(127,-11,o),
(309,-11,cs)
);
},
{
closed = 1;
nodes = (
(161,48,o),
(95,163,o),
(95,340,cs),
(95,509,o),
(161,630,o),
(305,630,cs),
(327,630,l),
(327,48,l),
(305,48,ls)
);
}
);
width = 628;
},
{
anchors = (
{
name = bottom;
pos = (574,-3);
},
{
name = top;
pos = (574,700);
}
);
layerId = "988D29BF-96E2-481F-8769-6B283BD5795A";
shapes = (
{
closed = 1;
nodes = (
(993,-11,ls),
(1015,-11,o),
(1023,-4,o),
(1023,18,cs),
(1023,41,o),
(1016,47,o),
(994,47,cs),
(607,47,l),
(607,312,l),
(876,312,ls),
(899,312,o),
(907,319,o),
(907,341,cs),
(907,364,o),
(900,372,o),
(878,372,cs),
(607,372,l),
(607,628,l),
(993,628,ls),
(1015,628,o),
(1023,634,o),
(1023,656,cs),
(1023,679,o),
(1016,687,o),
(994,687,cs),
(357,687,ls),
(176,687,o),
(55,542,o),
(55,337,cs),
(55,128,o),
(177,-11,o),
(359,-11,cs)
);
},
{
closed = 1;
nodes = (
(211,47,o),
(115,163,o),
(115,340,cs),
(115,509,o),
(211,628,o),
(355,628,cs),
(547,628,l),
(547,47,l),
(355,47,ls)
);
}
);
width = 1078;
},
{
anchors = (
{
name = bottom;
pos = (459,0);
},
{
name = top;
pos = (459,700);
}
);
layerId = "C221B64C-0844-4CE6-BA2A-18F986CD7755";
shapes = (
{
closed = 1;
nodes = (
(721,-9,ls),
(765,-9,o),
(813,-9,o),
(813,82,cs),
(813,174,o),
(766,174,o),
(721,174,cs),
(544,174,l),
(544,249,l),
(617,249,ls),
(663,249,o),
(710,249,o),
(710,340,cs),
(710,432,o),
(664,432,o),
(619,432,cs),
(544,432,l),
(544,509,l),
(721,509,ls),
(765,509,o),
(813,508,o),
(813,599,cs),
(813,691,o),
(766,691,o),
(721,691,cs),
(338,691,ls),
(155,691,o),
(25,532,o),
(25,337,cs),
(25,153,o),
(151,-9,o),
(338,-9,c)
);
},
{
closed = 1;
nodes = (
(254,181,o),
(208,250,o),
(208,339,cs),
(208,431,o),
(253,505,o),
(338,509,c),
(361,509,l),
(361,174,l),
(338,174,l)
);
}
);
width = 838;
},
{
anchors = (
{
name = bottom;
pos = (844,0);
},
{
name = top;
pos = (844,700);
}
);
layerId = "F1D2FE0C-0290-44F9-97DF-753285E87900";
shapes = (
{
closed = 1;
nodes = (
(1573,-11,ls),
(1595,-11,o),
(1603,-4,o),
(1603,18,cs),
(1603,41,o),
(1596,48,o),
(1574,48,cs),
(887,48,l),
(887,312,l),
(1456,312,ls),
(1479,312,o),
(1487,319,o),
(1487,341,cs),
(1487,364,o),
(1480,372,o),
(1458,372,cs),
(887,372,l),
(887,627,l),
(1573,627,ls),
(1595,627,o),
(1603,634,o),
(1603,656,cs),
(1603,679,o),
(1596,687,o),
(1574,687,cs),
(387,687,ls),
(178,687,o),
(35,557,o),
(35,337,cs),
(35,118,o),
(179,-11,o),
(389,-11,cs)
);
},
{
closed = 1;
nodes = (
(215,48,o),
(95,155,o),
(95,340,cs),
(95,523,o),
(215,627,o),
(385,627,cs),
(827,627,l),
(827,48,l),
(385,48,ls)
);
}
);
width = 1638;
},
{
anchors = (
{
name = bottom;
pos = (809,0);
},
{
name = top;
pos = (809,700);
}
);
layerId = "D56FD762-6887-41EE-B8AF-857F7388911F";
shapes = (
{
closed = 1;
nodes = (
(1421,-9,ls),
(1465,-9,o),
(1513,-9,o),
(1513,82,cs),
(1513,174,o),
(1466,173,o),
(1421,173,cs),
(894,173,l),
(894,249,l),
(1317,249,ls),
(1363,249,o),
(1410,249,o),
(1410,340,cs),
(1410,432,o),
(1364,432,o),
(1319,432,cs),
(894,432,l),
(894,509,l),
(1421,509,ls),
(1465,509,o),
(1513,508,o),
(1513,599,cs),
(1513,691,o),
(1466,691,o),
(1421,691,cs),
(408,691,ls),
(180,691,o),
(25,560,o),
(25,337,cs),
(25,120,o),
(179,-9,o),
(407,-9,cs)
);
},
{
closed = 1;
nodes = (
(265,173,o),
(208,242,o),
(208,339,cs),
(208,437,o),
(265,509,o),
(379,509,cs),
(711,509,l),
(711,173,l),
(378,173,ls)
);
}
);
width = 1538;
}
);
note = OE;
unicode = 338;
},
{
color = 6;
glyphname = P;
kernLeft = P;
kernRight = P;
layers = (
{
anchors = (
{
name = bottom;
pos = (301,0);
},
{
name = top;
pos = (301,700);
}
);
layerId = "05A6575B-AA27-4212-BC78-A0BDA398BBDE";
shapes = (
{
closed = 1;
nodes = (
(218,-8,o),
(218,38,o),
(218,83,cs),
(218,179,l),
(325,179,ls),
(428,179,o),
(581,260,o),
(581,434,cs),
(581,609,o),
(427,691,o),
(326,691,cs),
(127,691,ls),
(35,691,o),
(35,644,o),
(35,600,cs),
(35,84,ls),
(35,39,o),
(35,-8,o),
(126,-8,cs)
);
},
{
closed = 1;
nodes = (
(218,508,l),
(325,508,ls),
(366,508,o),
(399,476,o),
(399,435,cs),
(399,379,o),
(352,362,o),
(326,362,cs),
(218,362,l)
);
}
);
width = 595;
},
{
anchors = (
{
name = bottom;
pos = (188,0);
},
{
name = top;
pos = (188,700);
}
);
layerId = "4383C18A-60F2-4889-B7DB-EDD0F2222092";
shapes = (
{
closed = 1;
nodes = (
(117,-11,o),
(125,-3,o),
(125,19,cs),
(125,255,l),
(169,255,ls),
(284,255,o),
(334,335,o),
(334,470,cs),
(334,606,o),
(285,687,o),
(170,687,cs),
(95,687,ls),
(76,687,o),
(65,676,o),
(65,657,cs),
(65,20,ls),
(65,-3,o),
(72,-11,o),
(94,-11,cs)
);
},
{
closed = 1;
nodes = (
(125,627,l),
(171,627,ls),
(249,627,o),
(275,569,o),
(275,472,cs),
(275,373,o),
(249,315,o),
(172,315,cs),
(125,315,l)
);
}
);
width = 369;
},
{
anchors = (
{
name = bottom;
pos = (307,-3);
},
{
name = top;
pos = (307,700);
}
);
layerId = "988D29BF-96E2-481F-8769-6B283BD5795A";
shapes = (
{
closed = 1;
nodes = (
(132,-11,o),
(140,-3,o),
(140,19,cs),
(140,255,l),
(334,255,ls),
(469,255,o),
(549,335,o),
(549,470,cs),
(549,606,o),
(470,687,o),
(335,687,cs),
(110,687,ls),
(91,687,o),
(80,676,o),
(80,657,cs),
(80,20,ls),
(80,-3,o),
(87,-11,o),
(109,-11,cs)
);
},
{
closed = 1;
nodes = (
(140,627,l),
(334,627,ls),
(432,627,o),
(490,569,o),
(490,472,cs),
(490,373,o),
(432,315,o),
(335,315,cs),
(140,315,l)
);
}
);
width = 603;
},
{
anchors = (
{
name = bottom;
pos = (278,0);
},
{
name = top;
pos = (278,700);
}
);
layerId = "C221B64C-0844-4CE6-BA2A-18F986CD7755";
shapes = (
{
closed = 1;
nodes = (
(228,-8,o),
(228,38,o),
(228,83,cs),
(228,179,l),
(255,179,ls),
(358,179,o),
(511,260,o),
(511,434,cs),
(511,609,o),
(357,691,o),
(256,691,cs),
(137,691,ls),
(45,691,o),
(45,644,o),
(45,600,cs),
(45,84,ls),
(45,39,o),
(45,-8,o),
(136,-8,cs)
);
},
{
closed = 1;
nodes = (
(228,508,l),
(255,508,ls),
(296,508,o),
(329,476,o),
(329,435,cs),
(329,379,o),
(282,362,o),
(256,362,cs),
(228,362,l)
);
}
);
width = 536;
},
{
anchors = (
{
name = bottom;
pos = (490,0);
},
{
name = top;
pos = (490,700);
}
);
layerId = "F1D2FE0C-0290-44F9-97DF-753285E87900";
shapes = (
{
closed = 1;
nodes = (
(117,-11,o),
(125,-3,o),
(125,19,cs),
(125,255,l),
(569,255,ls),
(704,255,o),
(834,335,o),
(834,470,cs),
(834,606,o),
(705,687,o),
(570,687,cs),
(95,687,ls),
(76,687,o),
(65,676,o),
(65,657,cs),
(65,20,ls),
(65,-3,o),
(72,-11,o),
(94,-11,cs)
);
},
{
closed = 1;
nodes = (
(125,627,l),
(569,627,ls),
(667,627,o),
(775,569,o),
(775,472,cs),
(775,373,o),
(667,315,o),
(570,315,cs),
(125,315,l)
);
}
);
width = 869;
},
{
anchors = (
{
name = bottom;
pos = (528,0);
},
{
name = top;
pos = (528,700);
}
);
layerId = "D56FD762-6887-41EE-B8AF-857F7388911F";
shapes = (
{
closed = 1;
nodes = (
(238,-8,o),
(238,38,o),
(238,83,cs),
(238,179,l),
(645,179,ls),
(748,179,o),
(901,260,o),
(901,434,cs),
(901,609,o),
(747,691,o),
(646,691,cs),
(147,691,ls),
(55,691,o),
(55,644,o),
(55,600,cs),
(55,84,ls),
(55,39,o),
(55,-8,o),
(146,-8,cs)
);
},
{
closed = 1;
nodes = (
(238,508,l),
(645,508,ls),
(686,508,o),
(719,476,o),
(719,435,cs),
(719,379,o),
(672,362,o),
(646,362,cs),
(238,362,l)
);
}
);
width = 936;
}
);
note = P;
unicode = 80;
},
{
color = 6;
glyphname = Thorn;
kernRight = d;
layers = (
{
anchors = (
{
name = bottom;
pos = (307,0);
},
{
name = top;
pos = (307,700);
}
);
layerId = "05A6575B-AA27-4212-BC78-A0BDA398BBDE";
shapes = (
{
closed = 1;
nodes = (
(223,-8,o),
(223,38,o),
(223,83,cs),
(223,85,l),
(330,85,ls),
(433,85,o),
(586,166,o),
(586,340,cs),
(586,515,o),
(432,597,o),
(331,597,cs),
(223,597,l),
(223,599,ls),
(223,644,o),
(223,691,o),
(132,691,cs),
(40,691,o),
(40,644,o),
(40,600,cs),
(40,84,ls),
(40,39,o),
(40,-8,o),
(131,-8,cs)
);
},
{
closed = 1;
nodes = (
(223,414,l),
(330,414,ls),
(371,414,o),
(404,383,o),
(404,341,cs),
(404,285,o),
(357,268,o),
(331,268,cs),
(223,268,l)
);
}
);
width = 606;
},
{
anchors = (
{
name = bottom;
pos = (245,0);
},
{
name = top;
pos = (245,700);
}
);
layerId = "4383C18A-60F2-4889-B7DB-EDD0F2222092";
shapes = (
{
closed = 1;
nodes = (
(132,-11,o),
(140,-3,o),
(140,19,cs),
(140,126,l),
(234,126,ls),
(352,126,o),
(449,222,o),
(449,341,cs),
(449,461,o),
(352,558,o),
(235,558,cs),
(140,558,l),
(140,656,ls),
(140,679,o),
(132,687,o),
(110,687,cs),
(88,687,o),
(80,679,o),
(80,657,cs),
(80,20,ls),
(80,-3,o),
(87,-11,o),
(109,-11,cs)
);
},
{
closed = 1;
nodes = (
(140,498,l),
(234,498,ls),
(320,498,o),
(390,430,o),
(390,342,cs),
(390,255,o),
(321,186,o),
(235,186,cs),
(140,186,l)
);
}
);
width = 489;
},
{
anchors = (
{
name = bottom;
pos = (310,0);
},
{
name = top;
pos = (310,700);
}
);
layerId = "988D29BF-96E2-481F-8769-6B283BD5795A";
shapes = (
{
closed = 1;
nodes = (
(127,-11,o),
(135,-3,o),
(135,19,cs),
(135,126,l),
(329,126,ls),
(447,126,o),
(544,222,o),
(544,341,cs),
(544,461,o),
(447,558,o),
(330,558,cs),
(135,558,l),
(135,656,ls),
(135,679,o),
(127,687,o),
(105,687,cs),
(83,687,o),
(75,679,o),
(75,657,cs),
(75,20,ls),
(75,-3,o),
(82,-11,o),
(104,-11,cs)
);
},
{
closed = 1;
nodes = (
(135,498,l),
(329,498,ls),
(415,498,o),
(485,430,o),
(485,342,cs),
(485,255,o),
(416,186,o),
(330,186,cs),
(135,186,l)
);
}
);
width = 588;
},
{
anchors = (
{
name = bottom;
pos = (268,0);
},
{
name = top;
pos = (268,700);
}
);
layerId = "C221B64C-0844-4CE6-BA2A-18F986CD7755";
shapes = (
{
closed = 1;
nodes = (
(228,-8,o),
(228,38,o),
(228,83,cs),
(228,85,l),
(235,85,ls),
(338,85,o),
(491,166,o),
(491,340,cs),
(491,515,o),
(337,597,o),
(236,597,cs),
(228,597,l),
(228,599,ls),
(228,644,o),
(228,691,o),
(137,691,cs),
(45,691,o),
(45,644,o),
(45,600,cs),
(45,84,ls),
(45,39,o),
(45,-8,o),
(136,-8,cs)
);
},
{
closed = 1;
nodes = (
(228,414,l),
(235,414,ls),
(276,414,o),
(309,383,o),
(309,341,cs),
(309,285,o),
(262,268,o),
(236,268,cs),
(228,268,l)
);
}
);
width = 516;
},
{
anchors = (
{
name = bottom;
pos = (388,0);
},
{
name = top;
pos = (388,700);
}
);
layerId = "F1D2FE0C-0290-44F9-97DF-753285E87900";
shapes = (
{
closed = 1;
nodes = (
(132,-11,o),
(140,-3,o),
(140,19,cs),
(140,126,l),
(514,126,ls),
(662,126,o),
(749,206,o),
(749,341,cs),
(749,477,o),
(662,558,o),
(515,558,cs),
(140,558,l),
(140,656,ls),
(140,679,o),
(132,687,o),
(110,687,cs),
(88,687,o),
(80,679,o),
(80,657,cs),
(80,20,ls),
(80,-3,o),
(87,-11,o),
(109,-11,cs)
);
},
{
closed = 1;
nodes = (
(140,498,l),
(514,498,ls),
(625,498,o),
(690,440,o),
(690,342,cs),
(690,244,o),
(625,186,o),
(515,186,cs),
(140,186,l)
);
}
);
width = 784;
},
{
anchors = (
{
name = bottom;
pos = (422,0);
},
{
name = top;
pos = (422,700);
}
);
layerId = "D56FD762-6887-41EE-B8AF-857F7388911F";
shapes = (
{
closed = 1;
nodes = (
(233,-8,o),
(233,38,o),
(233,83,cs),
(233,85,l),
(540,85,ls),
(643,85,o),
(796,166,o),
(796,340,cs),
(796,515,o),
(642,597,o),
(541,597,cs),
(233,597,l),
(233,599,ls),
(233,644,o),
(233,691,o),
(142,691,cs),
(50,691,o),
(50,644,o),
(50,600,cs),
(50,84,ls),
(50,39,o),
(50,-8,o),
(141,-8,cs)
);
},
{
closed = 1;
nodes = (
(233,414,l),
(540,414,ls),
(581,414,o),
(614,383,o),
(614,341,cs),
(614,285,o),
(567,268,o),
(541,268,cs),
(233,268,l)
);
}
);
width = 821;
}
);
note = Thorn;
unicode = 222;
},
{
color = 6;
glyphname = Q;
kernRight = d;
layers = (
{
anchors = (
{
name = bottom;
pos = (386,0);
},
{
name = top;
pos = (386,700);
}
);
layerId = "05A6575B-AA27-4212-BC78-A0BDA398BBDE";
shapes = (
{
closed = 1;
nodes = (
(674,188,l),
(695,235,o),
(707,286,o),
(707,339,cs),
(707,541,o),
(552,699,o),
(357,699,cs),
(167,699,o),
(14,538,o),
(14,335,cs),
(14,139,o),
(171,-20,o),
(365,-20,cs),
(437,-20,o),
(503,4,o),
(558,44,c),
(614,8,ls),
(670,-28,o),
(697,-32,o),
(741,31,cs),
(782,90,o),
(776,120,o),
(719,158,cs)
);
},
{
closed = 1;
nodes = (
(271,163,o),
(197,241,o),
(197,339,cs),
(197,438,o),
(270,516,o),
(361,516,cs),
(450,516,o),
(524,438,o),
(524,339,cs),
(524,239,o),
(451,163,o),
(360,163,cs)
);
}
);
width = 782;
},
{
anchors = (
{
name = bottom;
pos = (260,0);
},
{
name = top;
pos = (260,700);
}
);
layerId = "4383C18A-60F2-4889-B7DB-EDD0F2222092";
shapes = (
{
closed = 1;
nodes = (
(411,82,l),
(447,147,o),
(459,240,o),
(459,342,cs),
(459,558,o),
(401,698,o),
(249,698,cs),
(102,698,o),
(46,556,o),
(46,338,cs),
(46,126,o),
(105,-12,o),
(258,-12,cs),
(303,-12,o),
(344,5,o),
(376,35,c),
(437,-6,ls),
(455,-18,o),
(465,-18,o),
(477,1,cs),
(489,19,o),
(487,29,o),
(469,42,cs)
);
},
{
closed = 1;
nodes = (
(137,46,o),
(104,164,o),
(104,342,cs),
(104,521,o),
(137,640,o),
(253,640,cs),
(368,640,o),
(401,521,o),
(401,343,cs),
(401,164,o),
(368,46,o),
(252,46,cs)
);
}
);
width = 530;
},
{
anchors = (
{
name = bottom;
pos = (415,-2);
},
{
name = top;
pos = (375,700);
}
);
layerId = "988D29BF-96E2-481F-8769-6B283BD5795A";
shapes = (
{
closed = 1;
nodes = (
(647,140,l),
(684,196,o),
(705,264,o),
(705,336,cs),
(705,534,o),
(553,690,o),
(364,690,cs),
(180,690,o),
(30,530,o),
(30,332,cs),
(30,141,o),
(184,-16,o),
(373,-16,cs),
(466,-16,o),
(551,26,o),
(612,93,c),
(740,6,ls),
(758,-7,o),
(769,-5,o),
(781,13,cs),
(793,31,o),
(791,41,o),
(773,54,cs)
);
},
{
closed = 1;
nodes = (
(216,44,o),
(90,176,o),
(90,336,cs),
(90,499,o),
(215,630,o),
(368,630,cs),
(520,630,o),
(645,498,o),
(645,337,cs),
(645,174,o),
(521,44,o),
(367,44,cs)
);
}
);
width = 820;
},
{
anchors = (
{
name = bottom;
pos = (286,0);
},
{
name = top;
pos = (286,700);
}
);
layerId = "C221B64C-0844-4CE6-BA2A-18F986CD7755";
shapes = (
{
closed = 1;
nodes = (
(525,180,l),
(538,226,o),
(544,279,o),
(544,339,cs),
(544,565,o),
(449,699,o),
(287,699,cs),
(129,699,o),
(35,564,o),
(35,335,cs),
(35,112,o),
(132,-20,o),
(295,-20,cs),
(347,-20,o),
(393,-5,o),
(429,23,c),
(452,8,ls),
(508,-29,o),
(535,-32,o),
(579,31,cs),
(620,90,o),
(614,120,o),
(557,158,cs)
);
},
{
closed = 1;
nodes = (
(251,163,o),
(228,228,o),
(228,339,cs),
(228,450,o),
(251,516,o),
(290,516,cs),
(329,516,o),
(352,450,o),
(352,339,cs),
(352,228,o),
(329,163,o),
(289,163,cs)
);
}
);
width = 631;
},
{
anchors = (
{
name = bottom;
pos = (562,0);
},
{
name = top;
pos = (562,700);
}
);
layerId = "F1D2FE0C-0290-44F9-97DF-753285E87900";
shapes = (
{
closed = 1;
nodes = (
(950,128,l),
(997,184,o),
(1024,255,o),
(1024,340,cs),
(1024,567,o),
(831,697,o),
(534,697,cs),
(241,697,o),
(51,565,o),
(51,336,cs),
(51,115,o),
(245,-14,o),
(543,-14,cs),
(718,-14,o),
(829,21,o),
(907,86,c),
(1025,6,ls),
(1043,-6,o),
(1054,-5,o),
(1066,13,cs),
(1078,31,o),
(1076,41,o),
(1058,54,cs)
);
},
{
closed = 1;
nodes = (
(280,44,o),
(109,152,o),
(109,340,cs),
(109,530,o),
(280,639,o),
(538,639,cs),
(795,639,o),
(966,530,o),
(966,341,cs),
(966,157,o),
(799,44,o),
(537,44,cs)
);
}
);
width = 1114;
},
{
anchors = (
{
name = bottom;
pos = (529,0);
},
{
name = top;
pos = (529,700);
}
);
layerId = "D56FD762-6887-41EE-B8AF-857F7388911F";
shapes = (
{
closed = 1;
nodes = (
(990,188,l),
(1012,233,o),
(1023,284,o),
(1023,339,cs),
(1023,558,o),
(844,704,o),
(526,704,cs),
(211,704,o),
(35,556,o),
(35,335,cs),
(35,119,o),
(215,-25,o),
(534,-25,cs),
(696,-25,o),
(793,2,o),
(866,49,c),
(930,8,ls),
(986,-28,o),
(1013,-32,o),
(1057,31,cs),
(1098,90,o),
(1091,120,o),
(1035,158,cs)
);
},
{
closed = 1;
nodes = (
(322,157,o),
(218,230,o),
(218,339,cs),
(218,449,o),
(323,522,o),
(530,522,cs),
(737,522,o),
(841,449,o),
(841,339,cs),
(841,230,o),
(736,157,o),
(529,157,cs)
);
}
);
width = 1118;
}
);
note = Q;
unicode = 81;
},
{
color = 6;
glyphname = R;
kernRight = d;
layers = (
{
anchors = (
{
name = bottom;
pos = (301,0);
},
{
name = top;
pos = (301,700);
}
);
layerId = "05A6575B-AA27-4212-BC78-A0BDA398BBDE";
shapes = (
{
closed = 1;
nodes = (
(218,-8,o),
(218,38,o),
(218,83,cs),
(218,180,l),
(379,180,l),
(507,218,o),
(582,312,o),
(582,434,cs),
(582,609,o),
(429,691,o),
(328,691,cs),
(127,691,ls),
(35,691,o),
(35,644,o),
(35,600,cs),
(35,84,ls),
(35,39,o),
(35,-8,o),
(126,-8,cs)
);
},
{
closed = 1;
nodes = (
(605,61,o),
(606,86,o),
(566,144,cs),
(442,311,l),
(234,285,l),
(418,35,ls),
(458,-19,o),
(485,-29,o),
(545,16,cs)
);
},
{
closed = 1;
nodes = (
(218,508,l),
(326,508,ls),
(366,508,o),
(399,476,o),
(399,435,cs),
(399,379,o),
(353,362,o),
(328,362,cs),
(218,362,l)
);
}
);
width = 604;
},
{
anchors = (
{
name = bottom;
pos = (201,0);
},
{
name = top;
pos = (201,700);
}
);
layerId = "4383C18A-60F2-4889-B7DB-EDD0F2222092";
shapes = (
{
closed = 1;
nodes = (
(125,-11,o),
(133,-3,o),
(133,19,cs),
(133,258,l),
(183,258,l),
(295,258,o),
(344,387,o),
(344,471,cs),
(344,613,o),
(271,687,o),
(151,687,cs),
(104,687,ls),
(84,687,o),
(74,677,o),
(74,658,cs),
(74,20,ls),
(74,-3,o),
(81,-11,o),
(103,-11,cs)
);
},
{
closed = 1;
nodes = (
(340,-2,o),
(345,11,o),
(335,35,c),
(233,293,l),
(170,292,l),
(278,13,l),
(283,-6,o),
(296,-13,o),
(316,-8,cs)
);
},
{
closed = 1;
nodes = (
(133,627,l),
(149,627,ls),
(232,627,o),
(285,574,o),
(285,472,cs),
(285,369,o),
(232,315,o),
(181,315,cs),
(133,315,l)
);
}
);
width = 389;
},
{
anchors = (
{
name = bottom;
pos = (315,-3);
},
{
name = top;
pos = (295,700);
}
);
layerId = "988D29BF-96E2-481F-8769-6B283BD5795A";
shapes = (
{
closed = 1;
nodes = (
(140,-11,o),
(148,-3,o),
(148,19,cs),
(148,258,l),
(378,258,l),
(510,258,o),
(559,387,o),
(559,471,cs),
(559,613,o),
(486,687,o),
(346,687,cs),
(119,687,ls),
(99,687,o),
(89,677,o),
(89,658,cs),
(89,20,ls),
(89,-3,o),
(96,-11,o),
(118,-11,cs)
);
},
{
closed = 1;
nodes = (
(572,7,o),
(576,19,o),
(562,41,c),
(419,279,l),
(357,268,l),
(509,10,l),
(518,-8,o),
(532,-13,o),
(550,-4,cs)
);
},
{
closed = 1;
nodes = (
(148,627,l),
(344,627,ls),
(447,627,o),
(500,574,o),
(500,472,cs),
(500,369,o),
(447,315,o),
(376,315,cs),
(148,315,l)
);
}
);
width = 631;
},
{
anchors = (
{
name = bottom;
pos = (266,0);
},
{
name = top;
pos = (266,700);
}
);
layerId = "C221B64C-0844-4CE6-BA2A-18F986CD7755";
shapes = (
{
closed = 1;
nodes = (
(228,-8,o),
(228,38,o),
(228,83,cs),
(228,180,l),
(309,180,l),
(437,218,o),
(512,312,o),
(512,434,cs),
(512,609,o),
(359,691,o),
(258,691,cs),
(137,691,ls),
(45,691,o),
(45,644,o),
(45,600,cs),
(45,84,ls),
(45,39,o),
(45,-8,o),
(136,-8,cs)
);
},
{
closed = 1;
nodes = (
(535,61,o),
(538,88,o),
(496,144,cs),
(372,311,l),
(183,259,l),
(348,35,ls),
(387,-18,o),
(415,-29,o),
(475,16,cs)
);
},
{
closed = 1;
nodes = (
(228,508,l),
(256,508,ls),
(296,508,o),
(329,476,o),
(329,435,cs),
(329,379,o),
(283,362,o),
(258,362,cs),
(228,362,l)
);
}
);
width = 549;
},
{
anchors = (
{
name = bottom;
pos = (396,0);
},
{
name = top;
pos = (396,700);
}
);
layerId = "F1D2FE0C-0290-44F9-97DF-753285E87900";
shapes = (
{
closed = 1;
nodes = (
(106,-11,o),
(114,-3,o),
(114,19,cs),
(114,258,l),
(594,258,l),
(726,258,o),
(825,387,o),
(825,471,cs),
(825,613,o),
(702,687,o),
(562,687,cs),
(85,687,ls),
(65,687,o),
(55,677,o),
(55,658,cs),
(55,20,ls),
(55,-3,o),
(62,-11,o),
(84,-11,cs)
);
},
{
closed = 1;
nodes = (
(838,7,o),
(842,19,o),
(828,41,c),
(635,279,l),
(573,268,l),
(775,10,l),
(784,-8,o),
(798,-13,o),
(816,-4,cs)
);
},
{
closed = 1;
nodes = (
(114,627,l),
(560,627,ls),
(663,627,o),
(766,574,o),
(766,472,cs),
(766,369,o),
(663,315,o),
(592,315,cs),
(114,315,l)
);
}
);
width = 876;
},
{
anchors = (
{
name = bottom;
pos = (445,0);
},
{
name = top;
pos = (445,700);
}
);
layerId = "D56FD762-6887-41EE-B8AF-857F7388911F";
shapes = (
{
closed = 1;
nodes = (
(238,-8,o),
(238,38,o),
(238,83,cs),
(238,180,l),
(679,180,l),
(807,218,o),
(902,312,o),
(902,434,cs),
(902,609,o),
(729,691,o),
(628,691,cs),
(147,691,ls),
(55,691,o),
(55,644,o),
(55,600,cs),
(55,84,ls),
(55,39,o),
(55,-8,o),
(146,-8,cs)
);
},
{
closed = 1;
nodes = (
(925,61,o),
(932,91,o),
(886,144,cs),
(742,311,l),
(524,298,l),
(738,35,ls),
(778,-14,o),
(805,-29,o),
(865,16,cs)
);
},
{
closed = 1;
nodes = (
(238,508,l),
(626,508,ls),
(666,508,o),
(719,476,o),
(719,435,cs),
(719,379,o),
(653,362,o),
(628,362,cs),
(238,362,l)
);
}
);
width = 951;
}
);
note = R;
unicode = 82;
},
{
color = 6;
glyphname = S;
kernLeft = S;
kernRight = S;
layers = (
{
anchors = (
{
name = bottom;
pos = (271,0);
},
{
name = top;
pos = (271,700);
}
);
layerId = "05A6575B-AA27-4212-BC78-A0BDA398BBDE";
shapes = (
{
closed = 1;
nodes = (
(374,-19,o),
(528,43,o),
(528,217,cs),
(528,341,o),
(462,387,o),
(390,410,cs),
(303,437,o),
(208,431,o),
(208,488,cs),
(208,512,o),
(233,531,o),
(261,531,cs),
(315,531,o),
(322,511,o),
(339,499,cs),
(389,467,o),
(425,472,o),
(465,529,cs),
(501,582,o),
(497,602,o),
(453,642,cs),
(445,649,o),
(392,702,o),
(262,702,cs),
(126,702,o),
(26,611,o),
(26,489,cs),
(26,375,o),
(86,323,o),
(154,295,cs),
(243,257,o),
(344,259,o),
(344,214,cs),
(344,171,o),
(321,153,o),
(267,153,cs),
(237,153,o),
(219,163,o),
(187,199,cs),
(146,245,o),
(103,262,o),
(57,219,cs),
(7,171,o),
(0,140,o),
(40,90,c),
(49,80,o),
(109,-19,o),
(271,-19,cs)
);
}
);
width = 542;
},
{
anchors = (
{
name = bottom;
pos = (188,0);
},
{
name = top;
pos = (188,700);
}
);
layerId = "4383C18A-60F2-4889-B7DB-EDD0F2222092";
shapes = (
{
closed = 1;
nodes = (
(254,-20,o),
(321,33,o),
(321,154,cs),
(321,265,o),
(257,322,o),
(208,377,cs),
(171,419,o),
(120,470,o),
(120,539,cs),
(120,601,o),
(140,638,o),
(194,638,cs),
(216,638,o),
(237,624,o),
(259,587,cs),
(269,570,o),
(289,574,o),
(303,589,cs),
(318,605,o),
(315,611,o),
(302,633,cs),
(281,669,o),
(239,697,o),
(195,697,cs),
(103,697,o),
(61,630,o),
(61,540,cs),
(61,450,o),
(112,388,o),
(150,345,cs),
(200,288,o),
(262,241,o),
(262,151,cs),
(262,61,o),
(217,39,o),
(175,39,cs),
(157,39,o),
(128,52,o),
(112,92,cs),
(101,119,o),
(87,131,o),
(61,114,cs),
(39,99,o),
(44,92,o),
(54,66,cs),
(76,10,o),
(128,-20,o),
(177,-20,cs)
);
}
);
width = 366;
},
{
anchors = (
{
name = bottom;
pos = (282,-2);
},
{
name = top;
pos = (273,700);
}
);
layerId = "988D29BF-96E2-481F-8769-6B283BD5795A";
shapes = (
{
closed = 1;
nodes = (
(407,-20,o),
(508,51,o),
(508,172,cs),
(508,306,o),
(396,348,o),
(292,381,cs),
(207,408,o),
(127,439,o),
(127,519,cs),
(127,596,o),
(187,638,o),
(271,638,cs),
(326,638,o),
(375,628,o),
(422,575,cs),
(436,559,o),
(449,558,o),
(465,572,cs),
(484,588,o),
(479,599,o),
(462,619,cs),
(432,655,o),
(361,697,o),
(272,697,cs),
(150,697,o),
(68,625,o),
(68,520,cs),
(68,398,o),
(166,361,o),
(264,330,cs),
(356,301,o),
(449,268,o),
(449,169,cs),
(449,79,o),
(368,39,o),
(267,39,cs),
(215,39,o),
(151,62,o),
(118,111,cs),
(102,135,o),
(91,150,o),
(65,133,cs),
(43,118,o),
(48,108,o),
(62,85,cs),
(102,19,o),
(192,-20,o),
(271,-20,cs)
);
}
);
width = 558;
},
{
anchors = (
{
name = bottom;
pos = (235,0);
},
{
name = top;
pos = (235,700);
}
);
layerId = "C221B64C-0844-4CE6-BA2A-18F986CD7755";
shapes = (
{
closed = 1;
nodes = (
(336,-19,o),
(465,33,o),
(465,207,cs),
(465,313,o),
(393,365,o),
(323,402,cs),
(258,437,o),
(194,459,o),
(194,500,cs),
(194,516,o),
(213,530,o),
(234,530,cs),
(266,530,o),
(282,488,o),
(303,473,cs),
(346,442,o),
(373,461,o),
(412,519,cs),
(448,572,o),
(445,593,o),
(400,632,cs),
(392,639,o),
(319,702,o),
(229,702,cs),
(93,702,o),
(23,621,o),
(23,499,cs),
(23,396,o),
(90,340,o),
(157,300,cs),
(225,260,o),
(293,236,o),
(293,195,cs),
(293,152,o),
(260,155,o),
(246,155,cs),
(236,155,o),
(204,160,o),
(187,197,cs),
(162,252,o),
(102,261,o),
(57,217,cs),
(7,169,o),
(2,147,o),
(40,88,cs),
(47,77,o),
(115,-19,o),
(238,-19,cs)
);
}
);
width = 480;
},
{
anchors = (
{
name = bottom;
pos = (419,0);
},
{
name = top;
pos = (419,700);
}
);
layerId = "F1D2FE0C-0290-44F9-97DF-753285E87900";
shapes = (
{
closed = 1;
nodes = (
(637,-19,o),
(790,45,o),
(790,171,cs),
(790,316,o),
(590,355,o),
(408,389,cs),
(257,417,o),
(119,441,o),
(119,519,cs),
(119,613,o),
(251,637,o),
(381,637,cs),
(548,637,o),
(656,599,o),
(708,569,cs),
(729,557,o),
(743,565,o),
(754,585,cs),
(763,601,o),
(754,614,o),
(732,626,cs),
(702,642,o),
(574,696,o),
(373,696,cs),
(205,696,o),
(60,644,o),
(60,520,cs),
(60,395,o),
(238,363,o),
(410,332,cs),
(573,303,o),
(731,274,o),
(731,168,cs),
(731,75,o),
(599,40,o),
(440,40,cs),
(267,40,o),
(158,73,o),
(110,118,cs),
(85,141,o),
(71,142,o),
(55,123,cs),
(42,108,o),
(40,96,o),
(62,77,cs),
(118,28,o),
(244,-19,o),
(444,-19,cs)
);
}
);
width = 835;
},
{
anchors = (
{
name = bottom;
pos = (441,0);
},
{
name = top;
pos = (441,700);
}
);
layerId = "D56FD762-6887-41EE-B8AF-857F7388911F";
shapes = (
{
closed = 1;
nodes = (
(705,-19,o),
(848,65,o),
(848,207,cs),
(848,360,o),
(641,398,o),
(468,422,cs),
(344,439,o),
(238,449,o),
(238,488,cs),
(238,514,o),
(279,531,o),
(421,531,cs),
(525,531,o),
(600,519,o),
(659,489,cs),
(712,462,o),
(745,462,o),
(785,519,cs),
(822,571,o),
(825,601,o),
(773,632,cs),
(702,674,o),
(612,702,o),
(432,702,cs),
(180,702,o),
(46,617,o),
(46,489,cs),
(46,328,o),
(259,289,o),
(433,266,cs),
(553,250,o),
(654,241,o),
(654,204,cs),
(654,167,o),
(613,152,o),
(457,152,cs),
(334,152,o),
(256,173,o),
(207,207,cs),
(156,243,o),
(122,273,o),
(77,227,cs),
(29,177,o),
(20,140,o),
(60,98,cs),
(115,41,o),
(229,-19,o),
(441,-19,cs)
);
}
);
width = 883;
}
);
note = S;
unicode = 83;
},
{
color = 6;
glyphname = T;
kernRight = d;
layers = (
{
anchors = (
{
name = bottom;
pos = (320,0);
},
{
name = center;
pos = (320,350);
},
{
name = top;
pos = (320,700);
}
);
layerId = "05A6575B-AA27-4212-BC78-A0BDA398BBDE";
shapes = (
{
closed = 1;
nodes = (
(92,692,ls),
(55,692,o),
(15,692,o),
(15,616,cs),
(15,538,o),
(54,538,o),
(91,538,cs),
(230,538,l),
(230,81,ls),
(230,37,o),
(230,-9,o),
(319,-9,cs),
(410,-9,o),
(410,36,o),
(410,80,cs),
(410,538,l),
(548,538,ls),
(585,538,o),
(625,538,o),
(625,615,cs),
(625,692,o),
(586,692,o),
(549,692,cs)
);
}
);
width = 640;
},
{
anchors = (
{
name = bottom;
pos = (231,0);
},
{
name = center;
pos = (231,350);
},
{
name = top;
pos = (231,700);
}
);
layerId = "4383C18A-60F2-4889-B7DB-EDD0F2222092";
shapes = (
{
closed = 1;
nodes = (
(68,687,ls),
(50,687,o),
(40,676,o),
(40,656,cs),
(40,637,o),
(50,627,o),
(70,627,cs),
(203,627,l),
(203,20,ls),
(203,0,o),
(213,-11,o),
(232,-11,cs),
(252,-11,o),
(262,-1,o),
(262,19,cs),
(262,627,l),
(392,627,ls),
(412,627,o),
(422,637,o),
(422,656,cs),
(422,676,o),
(412,687,o),
(394,687,cs)
);
}
);
width = 462;
},
{
anchors = (
{
name = bottom;
pos = (330,-3);
},
{
name = center;
pos = (330,365);
},
{
name = top;
pos = (330,700);
}
);
layerId = "988D29BF-96E2-481F-8769-6B283BD5795A";
shapes = (
{
closed = 1;
nodes = (
(73,687,ls),
(52,687,o),
(45,679,o),
(45,656,cs),
(45,634,o),
(53,627,o),
(75,627,cs),
(308,627,l),
(308,20,ls),
(308,-3,o),
(315,-11,o),
(337,-11,cs),
(359,-11,o),
(367,-3,o),
(367,19,cs),
(367,627,l),
(597,627,ls),
(619,627,o),
(627,634,o),
(627,656,cs),
(627,679,o),
(620,687,o),
(599,687,cs)
);
}
);
width = 672;
},
{
anchors = (
{
name = bottom;
pos = (270,0);
},
{
name = center;
pos = (270,350);
},
{
name = top;
pos = (270,700);
}
);
layerId = "C221B64C-0844-4CE6-BA2A-18F986CD7755";
shapes = (
{
closed = 1;
nodes = (
(102,692,ls),
(65,692,o),
(25,692,o),
(25,616,cs),
(25,538,o),
(64,538,o),
(101,538,cs),
(180,538,l),
(180,81,ls),
(180,37,o),
(180,-9,o),
(269,-9,cs),
(360,-9,o),
(360,36,o),
(360,80,cs),
(360,538,l),
(438,538,ls),
(475,538,o),
(515,538,o),
(515,615,cs),
(515,692,o),
(476,692,o),
(439,692,cs)
);
}
);
width = 540;
},
{
anchors = (
{
name = bottom;
pos = (491,0);
},
{
name = center;
pos = (491,350);
},
{
name = top;
pos = (491,700);
}
);
layerId = "F1D2FE0C-0290-44F9-97DF-753285E87900";
shapes = (
{
closed = 1;
nodes = (
(78,687,ls),
(60,687,o),
(50,676,o),
(50,656,cs),
(50,637,o),
(60,627,o),
(80,627,cs),
(413,627,l),
(413,20,ls),
(413,0,o),
(423,-11,o),
(442,-11,cs),
(462,-11,o),
(472,-1,o),
(472,19,cs),
(472,627,l),
(802,627,ls),
(822,627,o),
(832,637,o),
(832,656,cs),
(832,676,o),
(822,687,o),
(804,687,cs)
);
}
);
width = 882;
},
{
anchors = (
{
name = bottom;
pos = (460,0);
},
{
name = center;
pos = (460,350);
},
{
name = top;
pos = (460,700);
}
);
layerId = "D56FD762-6887-41EE-B8AF-857F7388911F";
shapes = (
{
closed = 1;
nodes = (
(102,692,ls),
(65,692,o),
(25,692,o),
(25,616,cs),
(25,538,o),
(64,538,o),
(101,538,cs),
(370,538,l),
(370,81,ls),
(370,37,o),
(370,-9,o),
(459,-9,cs),
(550,-9,o),
(550,36,o),
(550,80,cs),
(550,538,l),
(818,538,ls),
(855,538,o),
(895,538,o),
(895,615,cs),
(895,692,o),
(856,692,o),
(819,692,cs)
);
}
);
width = 920;
}
);
note = T;
unicode = 84;
},
{
color = 6;
glyphname = U;
kernLeft = U;
kernRight = U;
layers = (
{
anchors = (
{
name = bottom;
pos = (338,0);
},
{
name = ogonek;
pos = (416,10);
},
{
name = top;
pos = (338,700);
},
{
name = topright;
pos = (655,700);
}
);
layerId = "05A6575B-AA27-4212-BC78-A0BDA398BBDE";
shapes = (
{
closed = 1;
nodes = (
(539,-20,o),
(647,159,o),
(647,318,cs),
(647,599,ls),
(647,644,o),
(647,692,o),
(556,692,cs),
(466,692,o),
(464,648,o),
(464,605,cs),
(464,321,ls),
(464,227,o),
(415,164,o),
(339,164,cs),
(239,164,o),
(212,254,o),
(212,320,cs),
(212,599,ls),
(212,646,o),
(211,692,o),
(120,692,cs),
(28,692,o),
(28,645,o),
(28,600,cs),
(28,320,ls),
(28,162,o),
(134,-20,o),
(336,-20,cs)
);
}
);
width = 675;
},
{
anchors = (
{
name = bottom;
pos = (231,0);
},
{
name = ogonek;
pos = (274,10);
},
{
name = top;
pos = (231,700);
},
{
name = topright;
pos = (412,700);
}
);
layerId = "4383C18A-60F2-4889-B7DB-EDD0F2222092";
shapes = (
{
closed = 1;
nodes = (
(356,-11,o),
(407,86,o),
(407,259,cs),
(407,656,ls),
(407,679,o),
(400,687,o),
(378,687,cs),
(355,687,o),
(347,681,o),
(347,663,cs),
(347,262,ls),
(347,122,o),
(321,47,o),
(232,47,cs),
(142,47,o),
(116,122,o),
(116,261,cs),
(116,656,ls),
(116,679,o),
(108,687,o),
(85,687,cs),
(63,687,o),
(55,679,o),
(55,657,cs),
(55,261,ls),
(55,86,o),
(105,-11,o),
(229,-11,cs)
);
}
);
width = 462;
},
{
anchors = (
{
name = bottom;
pos = (363,-2);
},
{
name = ogonek;
pos = (387,8);
},
{
name = top;
pos = (361,700);
},
{
name = topright;
pos = (723,733);
}
);
layerId = "988D29BF-96E2-481F-8769-6B283BD5795A";
shapes = (
{
closed = 1;
nodes = (
(536,-11,o),
(639,104,o),
(639,298,cs),
(639,656,ls),
(639,679,o),
(632,687,o),
(610,687,cs),
(587,687,o),
(579,681,o),
(579,663,cs),
(579,301,ls),
(579,143,o),
(499,48,o),
(364,48,cs),
(228,48,o),
(148,143,o),
(148,300,cs),
(148,656,ls),
(148,679,o),
(140,687,o),
(117,687,cs),
(95,687,o),
(87,679,o),
(87,657,cs),
(87,300,ls),
(87,105,o),
(189,-11,o),
(361,-11,cs)
);
}
);
width = 726;
},
{
anchors = (
{
name = bottom;
pos = (295,0);
},
{
name = ogonek;
pos = (401,10);
},
{
name = top;
pos = (295,700);
},
{
name = topright;
pos = (569,700);
}
);
layerId = "C221B64C-0844-4CE6-BA2A-18F986CD7755";
shapes = (
{
closed = 1;
nodes = (
(451,-20,o),
(544,83,o),
(544,258,cs),
(544,599,ls),
(544,644,o),
(544,692,o),
(453,692,cs),
(363,692,o),
(361,648,o),
(361,605,cs),
(361,243,ls),
(361,193,o),
(337,164,o),
(296,164,cs),
(254,164,o),
(229,193,o),
(229,242,cs),
(229,599,ls),
(229,646,o),
(228,692,o),
(137,692,cs),
(45,692,o),
(45,645,o),
(45,600,cs),
(45,260,ls),
(45,84,o),
(137,-20,o),
(293,-20,cs)
);
}
);
width = 589;
},
{
anchors = (
{
name = bottom;
pos = (486,0);
},
{
name = ogonek;
pos = (514,10);
},
{
name = top;
pos = (486,700);
},
{
name = topright;
pos = (902,700);
}
);
layerId = "F1D2FE0C-0290-44F9-97DF-753285E87900";
shapes = (
{
closed = 1;
nodes = (
(782,-11,o),
(912,115,o),
(912,318,cs),
(912,656,ls),
(912,676,o),
(902,687,o),
(883,687,cs),
(863,687,o),
(852,679,o),
(852,663,cs),
(852,321,ls),
(852,155,o),
(744,47,o),
(487,47,cs),
(229,47,o),
(121,154,o),
(121,320,cs),
(121,656,ls),
(121,676,o),
(110,687,o),
(90,687,cs),
(70,687,o),
(60,677,o),
(60,657,cs),
(60,320,ls),
(60,116,o),
(188,-11,o),
(484,-11,cs)
);
}
);
width = 972;
},
{
anchors = (
{
name = bottom;
pos = (515,0);
},
{
name = ogonek;
pos = (550,10);
},
{
name = top;
pos = (515,700);
},
{
name = topright;
pos = (929,700);
}
);
layerId = "D56FD762-6887-41EE-B8AF-857F7388911F";
shapes = (
{
closed = 1;
nodes = (
(833,-20,o),
(974,116,o),
(974,338,cs),
(974,599,ls),
(974,644,o),
(974,692,o),
(883,692,cs),
(793,692,o),
(791,648,o),
(791,605,cs),
(791,341,ls),
(791,238,o),
(714,164,o),
(516,164,cs),
(317,164,o),
(239,237,o),
(239,340,cs),
(239,599,ls),
(239,646,o),
(238,692,o),
(147,692,cs),
(55,692,o),
(55,645,o),
(55,600,cs),
(55,340,ls),
(55,117,o),
(195,-20,o),
(513,-20,cs)
);
}
);
width = 1029;
}
);
note = U;
unicode = 85;
},
{
color = 6;
glyphname = V;
kernRight = d;
layers = (
{
anchors = (
{
name = bottom;
pos = (364,0);
},
{
name = top;
pos = (364,700);
}
);
layerId = "05A6575B-AA27-4212-BC78-A0BDA398BBDE";
shapes = (
{
closed = 1;
nodes = (
(404,-8,o),
(438,12,o),
(452,42,cs),
(689,563,l),
(715,622,o),
(709,648,o),
(643,680,c),
(582,714,o),
(547,699,o),
(522,638,cs),
(364,249,l),
(206,638,ls),
(181,699,o),
(149,715,o),
(85,680,c),
(23,650,o),
(13,622,o),
(39,563,c),
(276,42,ls),
(291,9,o),
(322,-8,o),
(366,-8,cs)
);
}
);
width = 728;
},
{
anchors = (
{
name = bottom;
pos = (230,0);
},
{
name = top;
pos = (225,700);
}
);
layerId = "4383C18A-60F2-4889-B7DB-EDD0F2222092";
shapes = (
{
closed = 1;
nodes = (
(248,-11,o),
(260,-6,o),
(263,6,cs),
(419,643,ls),
(423,658,o),
(435,677,o),
(406,688,cs),
(377,699,o),
(368,683,o),
(364,665,cs),
(229,62,l),
(92,676,ls),
(88,694,o),
(74,695,o),
(58,689,cs),
(40,682,o),
(31,678,o),
(37,655,cs),
(196,5,ls),
(199,-8,o),
(211,-11,o),
(229,-11,cs)
);
}
);
width = 460;
},
{
anchors = (
{
name = bottom;
pos = (361,0);
},
{
name = top;
pos = (362,700);
}
);
layerId = "988D29BF-96E2-481F-8769-6B283BD5795A";
shapes = (
{
closed = 1;
nodes = (
(380,-11,o),
(390,-6,o),
(395,6,cs),
(651,643,ls),
(657,658,o),
(668,674,o),
(640,688,cs),
(611,702,o),
(604,685,o),
(596,665,cs),
(361,72,l),
(124,676,ls),
(116,696,o),
(103,697,o),
(87,689,cs),
(69,680,o),
(60,678,o),
(69,655,cs),
(328,5,ls),
(333,-8,o),
(343,-11,o),
(361,-11,cs)
);
}
);
width = 723;
},
{
anchors = (
{
name = bottom;
pos = (308,0);
},
{
name = top;
pos = (308,700);
}
);
layerId = "C221B64C-0844-4CE6-BA2A-18F986CD7755";
shapes = (
{
closed = 1;
nodes = (
(352,-11,o),
(382,11,o),
(394,45,cs),
(581,577,ls),
(602,636,o),
(591,664,o),
(527,685,cs),
(459,707,o),
(426,689,o),
(409,629,cs),
(308,272,l),
(207,629,ls),
(190,689,o),
(157,707,o),
(89,685,cs),
(25,664,o),
(14,636,o),
(35,577,cs),
(222,45,ls),
(234,11,o),
(264,-11,o),
(308,-11,cs)
);
}
);
width = 616;
},
{
anchors = (
{
name = bottom;
pos = (470,0);
},
{
name = top;
pos = (470,700);
}
);
layerId = "F1D2FE0C-0290-44F9-97DF-753285E87900";
shapes = (
{
closed = 1;
nodes = (
(488,-11,o),
(495,-8,o),
(503,5,cs),
(900,653,ls),
(912,673,o),
(902,680,o),
(885,689,cs),
(868,698,o),
(858,697,o),
(847,678,cs),
(470,62,l),
(93,678,ls),
(82,697,o),
(72,698,o),
(55,689,cs),
(38,680,o),
(28,673,o),
(40,653,cs),
(437,5,ls),
(445,-8,o),
(452,-11,o),
(470,-11,cs)
);
}
);
width = 940;
},
{
anchors = (
{
name = bottom;
pos = (506,0);
},
{
name = top;
pos = (506,700);
}
);
layerId = "D56FD762-6887-41EE-B8AF-857F7388911F";
shapes = (
{
closed = 1;
nodes = (
(545,-8,o),
(574,15,o),
(593,42,cs),
(970,563,ls),
(1004,611,o),
(990,640,o),
(924,680,cs),
(863,717,o),
(840,691,o),
(803,638,cs),
(505,219,l),
(207,638,ls),
(170,691,o),
(149,718,o),
(86,680,cs),
(24,643,o),
(6,611,o),
(40,563,cs),
(417,42,ls),
(438,12,o),
(463,-8,o),
(507,-8,cs)
);
}
);
width = 1011;
}
);
note = V;
unicode = 86;
},
{
color = 6;
glyphname = W;
kernRight = d;
layers = (
{
anchors = (
{
name = bottom;
pos = (474,0);
},
{
name = top;
pos = (474,700);
}
);
layerId = "05A6575B-AA27-4212-BC78-A0BDA398BBDE";
shapes = (
{
closed = 1;
nodes = (
(359,-8,o),
(376,50,o),
(379,60,c),
(473,367,l),
(567,59,l),
(569,52,o),
(587,-8,o),
(656,-8,cs),
(724,-8,o),
(739,41,o),
(743,54,c),
(922,570,ls),
(941,635,o),
(937,661,o),
(865,687,cs),
(796,710,o),
(771,694,o),
(749,629,cs),
(645,323,l),
(563,623,l),
(557,638,o),
(547,691,o),
(471,691,cs),
(403,691,o),
(388,644,o),
(383,624,c),
(301,325,l),
(197,629,ls),
(174,696,o),
(150,708,o),
(82,686,cs),
(13,663,o),
(4,636,o),
(24,570,cs),
(204,54,l),
(207,43,o),
(226,-8,o),
(290,-8,cs)
);
}
);
width = 947;
},
{
anchors = (
{
name = bottom;
pos = (375,0);
},
{
name = top;
pos = (375,700);
}
);
layerId = "4383C18A-60F2-4889-B7DB-EDD0F2222092";
shapes = (
{
closed = 1;
nodes = (
(228,-6,o),
(235,0,o),
(241,17,c),
(374,581,l),
(507,17,l),
(513,0,o),
(520,-6,o),
(536,-6,cs),
(552,-6,o),
(559,-1,o),
(564,14,c),
(711,647,ls),
(716,670,o),
(715,680,o),
(696,686,cs),
(673,693,o),
(660,688,o),
(655,665,cs),
(535,102,l),
(403,669,l),
(400,682,o),
(392,687,o),
(373,687,cs),
(356,687,o),
(347,681,o),
(343,664,cs),
(213,105,l),
(93,667,ls),
(89,687,o),
(77,691,o),
(55,684,cs),
(34,677,o),
(32,667,o),
(37,647,cs),
(184,15,l),
(187,-1,o),
(194,-6,o),
(212,-6,cs)
);
}
);
width = 749;
},
{
anchors = (
{
name = bottom;
pos = (486,-3);
},
{
name = top;
pos = (486,700);
}
);
layerId = "988D29BF-96E2-481F-8769-6B283BD5795A";
shapes = (
{
closed = 1;
nodes = (
(294,-6,o),
(301,0,o),
(307,17,c),
(485,588,l),
(663,17,l),
(669,0,o),
(676,-6,o),
(692,-6,cs),
(708,-6,o),
(715,-1,o),
(720,14,c),
(932,647,ls),
(940,670,o),
(936,680,o),
(917,686,cs),
(894,694,o),
(883,688,o),
(876,665,cs),
(691,95,l),
(514,669,l),
(511,682,o),
(503,687,o),
(484,687,cs),
(467,687,o),
(459,681,o),
(454,664,cs),
(279,98,l),
(94,667,ls),
(87,687,o),
(78,691,o),
(56,684,cs),
(35,677,o),
(31,667,o),
(38,647,cs),
(250,15,l),
(253,-1,o),
(260,-6,o),
(278,-6,cs)
);
}
);
width = 971;
},
{
anchors = (
{
name = bottom;
pos = (428,0);
},
{
name = top;
pos = (428,700);
}
);
layerId = "C221B64C-0844-4CE6-BA2A-18F986CD7755";
shapes = (
{
closed = 1;
nodes = (
(349,-8,o),
(371,19,o),
(379,63,cs),
(433,377,l),
(487,63,ls),
(494,21,o),
(517,-8,o),
(586,-8,cs),
(654,-8,o),
(664,32,o),
(673,63,cs),
(822,573,ls),
(841,637,o),
(837,665,o),
(765,690,cs),
(697,714,o),
(664,698,o),
(649,632,cs),
(575,313,l),
(523,626,ls),
(517,661,o),
(507,694,o),
(431,694,cs),
(363,694,o),
(350,667,o),
(343,626,cs),
(291,315,l),
(217,632,ls),
(201,699,o),
(170,710,o),
(102,689,cs),
(33,668,o),
(25,639,o),
(44,573,cs),
(194,63,ls),
(203,34,o),
(216,-8,o),
(280,-8,cs)
);
}
);
width = 867;
},
{
anchors = (
{
name = bottom;
pos = (688,0);
},
{
name = top;
pos = (688,700);
}
);
layerId = "F1D2FE0C-0290-44F9-97DF-753285E87900";
shapes = (
{
closed = 1;
nodes = (
(390,-6,o),
(396,0,o),
(404,17,cs),
(687,591,l),
(970,17,ls),
(978,0,o),
(984,-6,o),
(999,-6,cs),
(1015,-6,o),
(1020,-1,o),
(1027,14,cs),
(1334,646,ls),
(1345,668,o),
(1340,678,o),
(1319,686,cs),
(1297,694,o),
(1289,688,o),
(1278,665,cs),
(998,92,l),
(716,669,l),
(712,682,o),
(705,687,o),
(686,687,cs),
(670,687,o),
(664,681,o),
(656,664,cs),
(376,95,l),
(96,667,ls),
(86,687,o),
(79,691,o),
(58,684,cs),
(36,677,o),
(30,667,o),
(40,647,cs),
(347,15,ls),
(354,0,o),
(357,-6,o),
(375,-6,cs)
);
}
);
width = 1375;
},
{
anchors = (
{
name = bottom;
pos = (637,0);
},
{
name = top;
pos = (637,700);
}
);
layerId = "D56FD762-6887-41EE-B8AF-857F7388911F";
shapes = (
{
closed = 1;
nodes = (
(448,-8,o),
(459,30,o),
(468,51,cs),
(637,427,l),
(806,51,ls),
(815,31,o),
(826,-8,o),
(895,-8,cs),
(963,-8,o),
(973,32,o),
(982,51,cs),
(1236,570,ls),
(1264,626,o),
(1251,656,o),
(1179,687,cs),
(1111,716,o),
(1095,690,o),
(1063,629,cs),
(884,283,l),
(727,623,ls),
(718,642,o),
(701,691,o),
(635,691,cs),
(577,691,o),
(558,647,o),
(547,624,cs),
(390,285,l),
(211,629,ls),
(179,691,o),
(164,714,o),
(96,686,cs),
(27,658,o),
(10,626,o),
(38,570,cs),
(293,51,ls),
(302,32,o),
(315,-8,o),
(379,-8,cs)
);
}
);
width = 1275;
}
);
note = W;
unicode = 87;
},
{
color = 6;
glyphname = X;
kernRight = d;
layers = (
{
anchors = (
{
name = bottom;
pos = (345,0);
},
{
name = top;
pos = (345,693);
}
);
layerId = "05A6575B-AA27-4212-BC78-A0BDA398BBDE";
shapes = (
{
closed = 1;
nodes = (
(695,64,o),
(691,95,o),
(646,144,cs),
(176,661,ls),
(131,714,o),
(101,716,o),
(47,667,cs),
(-5,619,o),
(-2,585,o),
(42,538,cs),
(512,22,ls),
(557,-31,o),
(587,-33,o),
(641,16,cs)
);
},
{
closed = 1;
nodes = (
(102,-33,o),
(132,-31,o),
(177,22,cs),
(647,538,ls),
(691,585,o),
(695,619,o),
(642,667,cs),
(588,716,o),
(558,714,o),
(513,661,cs),
(43,144,ls),
(-2,95,o),
(-6,64,o),
(48,16,cs)
);
}
);
width = 689;
},
{
anchors = (
{
name = bottom;
pos = (212,0);
},
{
name = top;
pos = (212,693);
}
);
layerId = "4383C18A-60F2-4889-B7DB-EDD0F2222092";
shapes = (
{
closed = 1;
nodes = (
(388,-1,o),
(384,7,o),
(375,28,cs),
(100,677,ls),
(91,697,o),
(76,696,o),
(58,683,cs),
(40,670,o),
(44,662,o),
(53,641,cs),
(328,-6,ls),
(337,-27,o),
(351,-26,o),
(370,-13,cs)
);
},
{
closed = 1;
nodes = (
(77,-26,o),
(91,-27,o),
(100,-6,cs),
(375,641,ls),
(384,662,o),
(388,670,o),
(370,683,cs),
(352,696,o),
(337,697,o),
(328,677,cs),
(53,28,ls),
(44,7,o),
(40,-1,o),
(58,-13,cs)
);
}
);
width = 428;
},
{
anchors = (
{
name = bottom;
pos = (338,-2);
},
{
name = top;
pos = (338,693);
}
);
layerId = "988D29BF-96E2-481F-8769-6B283BD5795A";
shapes = (
{
closed = 1;
nodes = (
(621,-1,o),
(622,10,o),
(608,28,cs),
(134,677,ls),
(121,695,o),
(110,696,o),
(93,683,cs),
(75,670,o),
(74,660,o),
(88,641,cs),
(562,-6,ls),
(576,-25,o),
(585,-26,o),
(603,-13,cs)
);
},
{
closed = 1;
nodes = (
(111,-26,o),
(120,-25,o),
(134,-6,cs),
(608,641,ls),
(622,660,o),
(621,670,o),
(603,683,cs),
(586,696,o),
(575,695,o),
(562,677,cs),
(88,28,ls),
(74,10,o),
(75,-1,o),
(93,-13,cs)
);
}
);
width = 696;
},
{
anchors = (
{
name = bottom;
pos = (296,0);
},
{
name = top;
pos = (296,693);
}
);
layerId = "C221B64C-0844-4CE6-BA2A-18F986CD7755";
shapes = (
{
closed = 1;
nodes = (
(549,39,o),
(558,75,o),
(524,132,cs),
(221,648,ls),
(189,706,o),
(153,715,o),
(96,681,cs),
(40,647,o),
(32,611,o),
(65,555,cs),
(368,40,ls),
(399,-17,o),
(435,-26,o),
(493,7,cs)
);
},
{
closed = 1;
nodes = (
(153,-27,o),
(190,-17,o),
(221,40,cs),
(524,555,ls),
(557,611,o),
(549,647,o),
(493,681,cs),
(436,715,o),
(400,706,o),
(368,648,cs),
(65,132,ls),
(31,75,o),
(40,40,o),
(96,7,cs)
);
}
);
width = 589;
},
{
anchors = (
{
name = bottom;
pos = (455,0);
},
{
name = top;
pos = (455,693);
}
);
layerId = "F1D2FE0C-0290-44F9-97DF-753285E87900";
shapes = (
{
closed = 1;
nodes = (
(875,1,o),
(882,13,o),
(864,28,cs),
(92,677,ls),
(75,692,o),
(68,698,o),
(51,683,cs),
(33,667,o),
(29,655,o),
(46,641,cs),
(818,-6,ls),
(834,-20,o),
(841,-29,o),
(859,-13,cs)
);
},
{
closed = 1;
nodes = (
(69,-29,o),
(76,-20,o),
(92,-6,cs),
(864,641,ls),
(881,655,o),
(877,668,o),
(859,683,cs),
(842,698,o),
(835,692,o),
(818,677,cs),
(46,28,ls),
(28,13,o),
(35,1,o),
(51,-13,cs)
);
}
);
width = 910;
},
{
anchors = (
{
name = bottom;
pos = (520,0);
},
{
name = top;
pos = (520,693);
}
);
layerId = "D56FD762-6887-41EE-B8AF-857F7388911F";
shapes = (
{
closed = 1;
nodes = (
(1017,83,o),
(1010,117,o),
(955,154,cs),
(192,672,ls),
(134,711,o),
(109,714,o),
(64,657,cs),
(19,601,o),
(27,566,o),
(80,530,cs),
(843,11,ls),
(900,-28,o),
(925,-31,o),
(971,27,cs)
);
},
{
closed = 1;
nodes = (
(112,-30,o),
(136,-28,o),
(193,11,cs),
(956,530,ls),
(1009,566,o),
(1017,601,o),
(972,657,cs),
(927,714,o),
(902,711,o),
(844,672,cs),
(81,154,ls),
(26,117,o),
(19,83,o),
(65,27,cs)
);
}
);
width = 1036;
}
);
note = X;
unicode = 88;
},
{
color = 6;
glyphname = Y;
kernLeft = Y;
kernRight = Y;
layers = (
{
anchors = (
{
name = bottom;
pos = (319,0);
},
{
name = top;
pos = (319,700);
},
{
name = topleft;
pos = (20,700);
}
);
layerId = "05A6575B-AA27-4212-BC78-A0BDA398BBDE";
shapes = (
{
closed = 1;
nodes = (
(521,715,o),
(493,709,o),
(455,651,cs),
(316,437,l),
(183,651,ls),
(148,706,o),
(117,718,o),
(55,676,cs),
(-2,638,o),
(-9,605,o),
(28,553,cs),
(227,255,l),
(227,82,ls),
(227,36,o),
(227,-11,o),
(319,-11,cs),
(411,-11,o),
(411,35,o),
(411,80,cs),
(411,255,l),
(610,553,ls),
(645,603,o),
(642,636,o),
(584,676,c)
);
}
);
width = 638;
},
{
anchors = (
{
name = bottom;
pos = (217,0);
},
{
name = top;
pos = (217,700);
},
{
name = topleft;
pos = (-31,700);
}
);
layerId = "4383C18A-60F2-4889-B7DB-EDD0F2222092";
shapes = (
{
closed = 1;
nodes = (
(347,697,o),
(335,689,o),
(329,672,cs),
(217,357,l),
(105,672,ls),
(99,689,o),
(87,697,o),
(66,688,cs),
(47,680,o),
(41,669,o),
(48,652,cs),
(187,287,l),
(187,21,ls),
(187,-3,o),
(195,-11,o),
(217,-11,cs),
(239,-11,o),
(247,-3,o),
(247,19,cs),
(247,289,l),
(386,652,ls),
(393,669,o),
(387,680,o),
(368,688,cs)
);
}
);
width = 434;
},
{
anchors = (
{
name = bottom;
pos = (319,0);
},
{
name = top;
pos = (319,700);
},
{
name = topleft;
pos = (20,700);
}
);
layerId = "988D29BF-96E2-481F-8769-6B283BD5795A";
shapes = (
{
closed = 1;
nodes = (
(568,699,o),
(557,698,o),
(547,682,cs),
(320,326,l),
(92,682,ls),
(81,699,o),
(71,700,o),
(52,686,cs),
(34,673,o),
(31,663,o),
(41,648,cs),
(290,275,l),
(290,21,ls),
(290,-3,o),
(298,-11,o),
(320,-11,cs),
(342,-11,o),
(350,-3,o),
(350,19,cs),
(350,274,l),
(597,650,ls),
(607,665,o),
(605,675,o),
(588,688,c)
);
}
);
width = 638;
},
{
anchors = (
{
name = bottom;
pos = (305,0);
},
{
name = top;
pos = (305,700);
},
{
name = topleft;
pos = (20,700);
}
);
layerId = "C221B64C-0844-4CE6-BA2A-18F986CD7755";
shapes = (
{
closed = 1;
nodes = (
(460,718,o),
(430,705,o),
(403,645,cs),
(305,429,l),
(206,645,ls),
(179,705,o),
(149,718,o),
(82,684,cs),
(21,653,o),
(9,621,o),
(41,564,cs),
(226,238,l),
(226,82,ls),
(226,36,o),
(226,-11,o),
(318,-11,cs),
(410,-11,o),
(410,35,o),
(410,80,cs),
(410,286,l),
(568,564,ls),
(600,621,o),
(588,653,o),
(527,684,cs)
);
}
);
width = 609;
},
{
anchors = (
{
name = bottom;
pos = (463,0);
},
{
name = top;
pos = (463,700);
},
{
name = topleft;
pos = (55,700);
}
);
layerId = "F1D2FE0C-0290-44F9-97DF-753285E87900";
shapes = (
{
closed = 1;
nodes = (
(857,702,o),
(848,696,o),
(834,682,cs),
(463,319,l),
(92,682,ls),
(78,696,o),
(69,702,o),
(51,688,cs),
(34,675,o),
(29,662,o),
(42,649,cs),
(437,261,l),
(437,21,ls),
(437,-3,o),
(445,-11,o),
(467,-11,cs),
(489,-11,o),
(497,-3,o),
(497,19,cs),
(497,270,l),
(884,649,ls),
(897,662,o),
(892,675,o),
(875,688,cs)
);
}
);
width = 926;
},
{
anchors = (
{
name = bottom;
pos = (485,0);
},
{
name = top;
pos = (485,700);
},
{
name = topleft;
pos = (70,700);
}
);
layerId = "D56FD762-6887-41EE-B8AF-857F7388911F";
shapes = (
{
closed = 1;
nodes = (
(863,718,o),
(835,711,o),
(783,670,cs),
(486,440,l),
(187,670,ls),
(135,710,o),
(107,718,o),
(57,662,cs),
(12,611,o),
(11,574,o),
(62,536,cs),
(400,281,l),
(400,82,ls),
(400,36,o),
(400,-11,o),
(492,-11,cs),
(584,-11,o),
(584,35,o),
(584,80,cs),
(584,292,l),
(908,536,ls),
(959,574,o),
(958,611,o),
(913,662,cs)
);
}
);
width = 970;
}
);
note = Y;
unicode = 89;
},
{
color = 6;
glyphname = Z;
kernLeft = Z;
kernRight = Z;
layers = (
{
anchors = (
{
name = bottom;
pos = (299,0);
},
{
name = top;
pos = (299,700);
}
);
layerId = "05A6575B-AA27-4212-BC78-A0BDA398BBDE";
shapes = (
{
closed = 1;
nodes = (
(492,-11,ls),
(537,-11,o),
(584,-11,o),
(584,80,cs),
(584,166,o),
(537,168,o),
(494,168,cs),
(280,168,l),
(558,553,ls),
(567,564,o),
(571,579,o),
(571,598,cs),
(571,651,o),
(530,692,o),
(480,692,cs),
(106,692,ls),
(61,692,o),
(14,692,o),
(14,600,cs),
(14,512,o),
(64,512,o),
(109,512,cs),
(305,512,l),
(27,127,ls),
(18,116,o),
(14,100,o),
(14,82,cs),
(14,28,o),
(54,-11,o),
(105,-11,cs)
);
}
);
width = 598;
},
{
anchors = (
{
name = bottom;
pos = (207,0);
},
{
name = top;
pos = (207,700);
}
);
layerId = "4383C18A-60F2-4889-B7DB-EDD0F2222092";
shapes = (
{
closed = 1;
nodes = (
(332,-10,ls),
(355,-10,o),
(363,-3,o),
(363,19,cs),
(363,39,o),
(356,46,o),
(334,46,cs),
(120,46,l),
(364,630,ls),
(368,639,o),
(370,651,o),
(364,662,cs),
(359,670,o),
(351,677,o),
(339,677,cs),
(97,677,ls),
(74,677,o),
(66,669,o),
(66,646,cs),
(66,627,o),
(75,620,o),
(100,620,cs),
(295,620,l),
(50,33,ls),
(47,26,o),
(45,20,o),
(45,13,cs),
(45,-4,o),
(59,-10,o),
(76,-10,cs)
);
}
);
width = 413;
},
{
anchors = (
{
name = bottom;
pos = (284,-3);
},
{
name = top;
pos = (284,700);
}
);
layerId = "988D29BF-96E2-481F-8769-6B283BD5795A";
shapes = (
{
closed = 1;
nodes = (
(501,-11,ls),
(524,-11,o),
(532,-4,o),
(532,18,cs),
(532,38,o),
(525,45,o),
(503,45,cs),
(116,45,l),
(506,630,ls),
(511,637,o),
(516,647,o),
(516,661,cs),
(516,671,o),
(508,687,o),
(488,687,cs),
(66,687,ls),
(43,687,o),
(35,679,o),
(35,656,cs),
(35,637,o),
(44,630,o),
(69,630,cs),
(438,630,l),
(40,36,l),
(37,32,o),
(35,23,o),
(35,18,cs),
(35,-3,o),
(46,-11,o),
(63,-11,cs)
);
}
);
width = 567;
},
{
anchors = (
{
name = bottom;
pos = (279,0);
},
{
name = top;
pos = (279,700);
}
);
layerId = "C221B64C-0844-4CE6-BA2A-18F986CD7755";
shapes = (
{
closed = 1;
nodes = (
(435,-11,ls),
(480,-11,o),
(527,-11,o),
(527,80,cs),
(527,166,o),
(480,168,o),
(437,168,cs),
(283,168,l),
(501,553,ls),
(508,565,o),
(514,579,o),
(514,598,cs),
(514,651,o),
(473,692,o),
(423,692,cs),
(129,692,ls),
(84,692,o),
(37,692,o),
(37,600,cs),
(37,512,o),
(87,512,o),
(132,512,cs),
(268,512,l),
(50,127,ls),
(43,115,o),
(37,100,o),
(37,82,cs),
(37,28,o),
(77,-11,o),
(128,-11,cs)
);
}
);
width = 558;
},
{
anchors = (
{
name = bottom;
pos = (434,0);
},
{
name = top;
pos = (434,700);
}
);
layerId = "F1D2FE0C-0290-44F9-97DF-753285E87900";
shapes = (
{
closed = 1;
nodes = (
(811,-11,ls),
(834,-11,o),
(842,-4,o),
(842,18,cs),
(842,38,o),
(835,45,o),
(813,45,cs),
(140,45,l),
(816,630,ls),
(824,637,o),
(826,647,o),
(826,661,cs),
(826,671,o),
(818,687,o),
(798,687,cs),
(76,687,ls),
(53,687,o),
(45,679,o),
(45,656,cs),
(45,637,o),
(54,630,o),
(79,630,cs),
(734,630,l),
(50,36,ls),
(45,31,o),
(45,26,o),
(45,18,cs),
(45,-3,o),
(56,-11,o),
(73,-11,cs)
);
}
);
width = 887;
},
{
anchors = (
{
name = bottom;
pos = (468,0);
},
{
name = top;
pos = (468,700);
}
);
layerId = "D56FD762-6887-41EE-B8AF-857F7388911F";
shapes = (
{
closed = 1;
nodes = (
(804,-11,ls),
(849,-11,o),
(901,-11,o),
(901,85,cs),
(901,175,o),
(849,178,o),
(806,178,cs),
(362,178,l),
(872,552,ls),
(888,564,o),
(888,588,o),
(888,603,cs),
(888,659,o),
(844,701,o),
(792,701,cs),
(132,701,ls),
(87,701,o),
(35,701,o),
(35,605,cs),
(35,512,o),
(90,512,o),
(135,512,cs),
(561,512,l),
(51,137,ls),
(35,125,o),
(35,101,o),
(35,87,cs),
(35,31,o),
(79,-11,o),
(131,-11,cs)
);
}
);
width = 936;
}
);
note = Z;
unicode = 90;
},
{
color = 6;
glyphname = a;
kernLeft = a;
kernRight = a;
layers = (
{
anchors = (
{
name = bottom;
pos = (278,0);
},
{
name = ogonek;
pos = (500,10);
},
{
name = top;
pos = (278,500);
}
);
layerId = "05A6575B-AA27-4212-BC78-A0BDA398BBDE";
shapes = (
{
closed = 1;
nodes = (
(527,-7,o),
(527,38,o),
(527,83,cs),
(527,408,ls),
(527,452,o),
(527,499,o),
(437,499,cs),
(377,499,o),
(349,479,o),
(350,446,c),
(361,446,l),
(350,461,o),
(314,498,o),
(246,498,cs),
(127,498,o),
(15,377,o),
(15,247,cs),
(15,114,o),
(126,-7,o),
(246,-7,cs),
(316,-7,o),
(352,28,o),
(363,42,c),
(349,42,l),
(348,17,o),
(376,-7,o),
(436,-7,cs)
);
},
{
closed = 1;
nodes = (
(231,174,o),
(196,207,o),
(196,245,cs),
(196,284,o),
(229,318,o),
(269,318,cs),
(309,318,o),
(340,285,o),
(340,246,cs),
(340,207,o),
(308,174,o),
(271,174,cs)
);
}
);
width = 557;
},
{
anchors = (
{
name = bottom;
pos = (167,0);
},
{
name = ogonek;
pos = (355,10);
},
{
name = top;
pos = (167,500);
}
);
layerId = "4383C18A-60F2-4889-B7DB-EDD0F2222092";
shapes = (
{
closed = 1;
nodes = (
(281,-10,o),
(288,-2,o),
(288,21,cs),
(288,433,ls),
(288,459,o),
(281,468,o),
(261,468,cs),
(240,468,o),
(233,459,o),
(233,433,cs),
(233,422,l),
(220,443,o),
(200,466,o),
(148,466,cs),
(77,466,o),
(35,379,o),
(35,232,cs),
(35,81,o),
(77,-9,o),
(148,-9,cs),
(210,-9,o),
(221,18,o),
(233,42,c),
(233,21,ls),
(233,-2,o),
(240,-10,o),
(261,-10,cs)
);
},
{
closed = 1;
nodes = (
(116,43,o),
(90,112,o),
(90,228,cs),
(90,346,o),
(116,416,o),
(159,416,cs),
(231,416,o),
(230,341,o),
(230,230,cs),
(230,113,o),
(235,43,o),
(161,43,cs)
);
}
);
width = 343;
},
{
anchors = (
{
name = bottom;
pos = (247,0);
},
{
name = ogonek;
pos = (445,10);
},
{
name = top;
pos = (247,500);
}
);
layerId = "C221B64C-0844-4CE6-BA2A-18F986CD7755";
shapes = (
{
closed = 1;
nodes = (
(471,-7,o),
(471,38,o),
(471,83,cs),
(471,408,ls),
(471,452,o),
(471,499,o),
(380,499,cs),
(331,499,o),
(305,478,o),
(295,448,c),
(299,448,l),
(287,476,o),
(238,498,o),
(189,498,cs),
(80,498,o),
(14,377,o),
(14,247,cs),
(14,114,o),
(78,-7,o),
(189,-7,cs),
(246,-7,o),
(286,26,o),
(299,47,c),
(294,47,l),
(294,18,o),
(336,-7,o),
(379,-7,cs)
);
},
{
closed = 1;
nodes = (
(211,174,o),
(195,207,o),
(195,245,cs),
(195,285,o),
(209,318,o),
(240,318,cs),
(271,318,o),
(284,285,o),
(284,246,cs),
(284,207,o),
(270,174,o),
(242,174,cs)
);
}
);
width = 501;
},
{
anchors = (
{
name = bottom;
pos = (295,0);
},
{
name = ogonek;
pos = (494,10);
},
{
name = top;
pos = (284,500);
}
);
layerId = "988D29BF-96E2-481F-8769-6B283BD5795A";
shapes = (
{
closed = 1;
nodes = (
(508,-10,o),
(515,-2,o),
(515,23,cs),
(515,429,ls),
(515,456,o),
(508,466,o),
(489,466,cs),
(467,466,o),
(460,456,o),
(460,429,cs),
(460,372,l),
(417,427,o),
(367,466,o),
(274,466,cs),
(146,466,o),
(45,360,o),
(45,230,cs),
(45,95,o),
(144,-11,o),
(274,-11,cs),
(380,-11,o),
(438,52,o),
(460,90,c),
(460,23,l),
(462,-2,o),
(469,-10,o),
(488,-10,cs)
);
},
{
closed = 1;
nodes = (
(174,41,o),
(100,120,o),
(100,226,cs),
(100,335,o),
(173,416,o),
(283,416,cs),
(376,416,o),
(457,341,o),
(457,228,cs),
(457,120,o),
(380,41,o),
(285,41,cs)
);
}
);
width = 580;
},
{
anchors = (
{
name = bottom;
pos = (372,0);
},
{
name = ogonek;
pos = (631,10);
},
{
name = top;
pos = (372,500);
}
);
layerId = "F1D2FE0C-0290-44F9-97DF-753285E87900";
shapes = (
{
closed = 1;
nodes = (
(686,-10,o),
(693,-2,o),
(693,23,cs),
(693,429,ls),
(693,456,o),
(686,466,o),
(667,466,cs),
(645,466,o),
(638,456,o),
(638,429,cs),
(638,369,l),
(594,425,o),
(499,466,o),
(352,466,cs),
(152,466,o),
(35,372,o),
(35,230,cs),
(35,85,o),
(152,-11,o),
(352,-11,cs),
(509,-11,o),
(603,33,o),
(638,94,c),
(638,23,l),
(640,-2,o),
(647,-10,o),
(666,-10,cs)
);
},
{
closed = 1;
nodes = (
(188,41,o),
(90,115,o),
(90,226,cs),
(90,340,o),
(188,416,o),
(359,416,cs),
(542,416,o),
(635,341,o),
(635,228,cs),
(635,116,o),
(543,41,o),
(361,41,cs)
);
}
);
width = 753;
},
{
anchors = (
{
name = bottom;
pos = (378,0);
},
{
name = ogonek;
pos = (640,10);
},
{
name = top;
pos = (378,500);
}
);
layerId = "D56FD762-6887-41EE-B8AF-857F7388911F";
shapes = (
{
closed = 1;
nodes = (
(721,-7,o),
(721,38,o),
(721,83,cs),
(721,408,ls),
(721,452,o),
(721,499,o),
(630,499,cs),
(567,499,o),
(540,467,o),
(540,431,c),
(558,431,l),
(537,470,o),
(465,498,o),
(342,498,cs),
(132,498,o),
(25,398,o),
(25,247,cs),
(25,95,o),
(132,-7,o),
(342,-7,cs),
(468,-7,o),
(539,20,o),
(558,58,c),
(540,58,l),
(544,29,o),
(569,-7,o),
(630,-7,cs)
);
},
{
closed = 1;
nodes = (
(257,154,o),
(217,190,o),
(217,245,cs),
(217,301,o),
(257,338,o),
(366,338,cs),
(475,338,o),
(514,301,o),
(514,246,cs),
(514,191,o),
(476,154,o),
(368,154,cs)
);
}
);
width = 766;
}
);
note = a;
unicode = 97;
},
{
color = 6;
glyphname = ae;
kernLeft = a;
kernRight = e;
layers = (
{
anchors = (
{
name = bottom;
pos = (423,0);
},
{
name = top;
pos = (423,500);
}
);
layerId = "05A6575B-AA27-4212-BC78-A0BDA398BBDE";
shapes = (
{
closed = 1;
nodes = (
(163,507,o),
(93,470,o),
(63,442,cs),
(15,397,o),
(15,367,o),
(64,310,cs),
(101,266,o),
(149,265,o),
(195,313,cs),
(213,332,o),
(231,338,o),
(258,338,cs),
(307,338,o),
(330,307,o),
(335,243,c),
(306,260,o),
(264,270,o),
(214,270,cs),
(90,270,o),
(14,220,o),
(14,139,cs),
(14,35,o),
(75,-18,o),
(193,-18,cs),
(317,-18,o),
(369,21,o),
(406,58,c),
(454,9,o),
(522,-16,o),
(604,-16,cs),
(702,-16,o),
(808,9,o),
(808,74,cs),
(808,88,o),
(803,105,o),
(795,121,cs),
(780,151,o),
(760,166,o),
(736,166,cs),
(702,166,o),
(685,142,o),
(611,142,cs),
(571,142,o),
(534,162,o),
(526,185,c),
(732,185,ls),
(792,185,o),
(832,233,o),
(832,308,cs),
(832,388,o),
(761,504,o),
(604,504,cs),
(533,504,o),
(469,483,o),
(421,443,c),
(375,485,o),
(317,507,o),
(255,507,cs)
);
},
{
closed = 1;
nodes = (
(532,314,o),
(570,344,o),
(602,344,cs),
(635,344,o),
(655,330,o),
(655,306,cs),
(655,293,o),
(646,286,o),
(631,286,cs),
(525,286,l)
);
},
{
closed = 1;
nodes = (
(190,111,o),
(175,121,o),
(175,144,cs),
(175,159,o),
(196,166,o),
(242,166,cs),
(285,166,o),
(319,158,o),
(338,152,c),
(315,128,o),
(272,111,o),
(228,111,cs)
);
}
);
width = 846;
},
{
anchors = (
{
name = bottom;
pos = (290,0);
},
{
name = top;
pos = (300,500);
}
);
layerId = "4383C18A-60F2-4889-B7DB-EDD0F2222092";
shapes = (
{
closed = 1;
nodes = (
(146,463,o),
(95,441,o),
(68,412,cs),
(48,391,o),
(47,379,o),
(63,367,cs),
(82,353,o),
(86,362,o),
(111,383,cs),
(130,399,o),
(159,412,o),
(185,412,cs),
(229,412,o),
(259,334,o),
(259,217,c),
(223,233,o),
(176,244,o),
(143,244,cs),
(78,244,o),
(35,190,o),
(35,110,cs),
(35,42,o),
(71,-7,o),
(125,-13,cs),
(188,-20,o),
(262,25,o),
(287,102,c),
(304,34,o),
(373,-12,o),
(430,-12,cs),
(501,-12,o),
(549,10,o),
(549,42,cs),
(549,51,o),
(549,53,o),
(544,62,c),
(541,68,o),
(536,74,o),
(526,74,cs),
(497,74,o),
(482,39,o),
(429,39,cs),
(360,39,o),
(317,107,o),
(321,209,c),
(498,209,ls),
(538,209,o),
(564,243,o),
(564,293,cs),
(564,396,o),
(505,464,o),
(416,464,cs),
(369,464,o),
(308,429,o),
(287,358,c),
(271,421,o),
(229,463,o),
(181,463,cs)
);
},
{
closed = 1;
nodes = (
(318,352,o),
(356,416,o),
(417,416,cs),
(473,416,o),
(511,366,o),
(511,292,cs),
(511,271,o),
(498,257,o),
(478,257,c),
(321,257,l)
);
},
{
closed = 1;
nodes = (
(111,36,o),
(90,69,o),
(90,116,cs),
(90,165,o),
(119,197,o),
(163,197,cs),
(188,197,o),
(226,184,o),
(259,165,c),
(248,84,o),
(201,32,o),
(143,35,cs)
);
}
);
width = 599;
},
{
anchors = (
{
name = bottom;
pos = (454,0);
},
{
name = top;
pos = (454,500);
}
);
layerId = "988D29BF-96E2-481F-8769-6B283BD5795A";
shapes = (
{
closed = 1;
nodes = (
(188,463,o),
(137,447,o),
(82,401,cs),
(59,382,o),
(55,370,o),
(68,355,cs),
(83,337,o),
(96,339,o),
(117,362,cs),
(146,393,o),
(213,412,o),
(264,412,cs),
(375,412,o),
(409,333,o),
(409,207,c),
(364,227,o),
(287,245,o),
(216,245,cs),
(103,245,o),
(35,189,o),
(35,110,cs),
(35,36,o),
(104,-13,o),
(203,-13,cs),
(345,-13,o),
(407,42,o),
(440,108,c),
(480,33,o),
(557,-13,o),
(657,-13,cs),
(757,-13,o),
(837,33,o),
(837,52,cs),
(837,61,o),
(834,68,o),
(828,77,c),
(824,84,o),
(814,84,o),
(807,81,cs),
(780,70,o),
(753,39,o),
(656,39,cs),
(568,39,o),
(466,103,o),
(470,209,c),
(785,209,ls),
(828,209,o),
(862,228,o),
(862,293,cs),
(862,382,o),
(775,464,o),
(653,464,cs),
(558,464,o),
(481,419,o),
(440,350,c),
(404,430,o),
(332,463,o),
(260,463,cs)
);
},
{
closed = 1;
nodes = (
(467,347,o),
(554,413,o),
(654,413,cs),
(743,413,o),
(810,356,o),
(810,291,cs),
(810,257,o),
(794,257,o),
(768,257,cs),
(470,257,l)
);
},
{
closed = 1;
nodes = (
(129,35,o),
(90,66,o),
(90,116,cs),
(90,161,o),
(126,198,o),
(236,198,cs),
(298,198,o),
(374,177,o),
(411,156,c),
(398,82,o),
(308,35,o),
(223,35,cs)
);
}
);
width = 897;
},
{
anchors = (
{
name = bottom;
pos = (386,0);
},
{
name = top;
pos = (386,500);
}
);
layerId = "C221B64C-0844-4CE6-BA2A-18F986CD7755";
shapes = (
{
closed = 1;
nodes = (
(167,507,o),
(112,492,o),
(72,465,cs),
(22,431,o),
(19,405,o),
(61,341,cs),
(93,292,o),
(119,284,o),
(159,316,cs),
(190,341,o),
(205,339,o),
(232,339,cs),
(271,339,o),
(288,299,o),
(293,245,c),
(264,262,o),
(215,269,o),
(185,269,cs),
(91,269,o),
(25,212,o),
(25,131,cs),
(25,27,o),
(88,-18,o),
(186,-18,cs),
(265,-18,o),
(331,17,o),
(368,60,c),
(404,13,o),
(461,-21,o),
(551,-21,cs),
(645,-21,o),
(740,17,o),
(740,71,cs),
(740,85,o),
(737,99,o),
(727,117,cs),
(710,148,o),
(692,165,o),
(668,165,cs),
(640,165,o),
(615,140,o),
(559,140,cs),
(519,140,o),
(500,159,o),
(501,182,c),
(645,182,ls),
(705,182,o),
(746,233,o),
(746,308,cs),
(746,389,o),
(698,510,o),
(552,510,cs),
(467,510,o),
(402,475,o),
(362,416,c),
(335,462,o),
(273,507,o),
(219,507,cs)
);
},
{
closed = 1;
nodes = (
(498,314,o),
(517,344,o),
(550,344,cs),
(575,344,o),
(585,330,o),
(585,306,cs),
(585,292,o),
(577,286,o),
(559,286,c),
(498,286,l)
);
},
{
closed = 1;
nodes = (
(171,107,o),
(157,117,o),
(157,142,cs),
(157,160,o),
(174,168,o),
(200,168,cs),
(234,168,o),
(270,160,o),
(289,150,c),
(266,126,o),
(220,107,o),
(186,107,cs)
);
}
);
width = 771;
},
{
anchors = (
{
name = bottom;
pos = (667,0);
},
{
name = top;
pos = (667,500);
}
);
layerId = "F1D2FE0C-0290-44F9-97DF-753285E87900";
shapes = (
{
closed = 1;
nodes = (
(254,460,o),
(173,444,o),
(97,391,cs),
(74,375,o),
(70,360,o),
(83,345,cs),
(98,327,o),
(109,333,o),
(132,352,cs),
(190,400,o),
(279,409,o),
(390,409,cs),
(548,409,o),
(628,349,o),
(638,217,c),
(583,237,o),
(482,255,o),
(332,255,cs),
(136,255,o),
(52,189,o),
(52,110,cs),
(52,36,o),
(146,-13,o),
(319,-13,cs),
(538,-13,o),
(630,47,o),
(664,114,c),
(709,36,o),
(827,-12,o),
(981,-12,cs),
(1135,-12,o),
(1231,17,o),
(1260,38,cs),
(1271,46,o),
(1275,53,o),
(1264,73,cs),
(1258,84,o),
(1248,84,o),
(1238,82,cs),
(1209,76,o),
(1157,41,o),
(980,41,cs),
(827,41,o),
(690,110,o),
(694,211,c),
(1209,211,ls),
(1252,211,o),
(1286,229,o),
(1286,293,cs),
(1286,382,o),
(1178,465,o),
(976,465,cs),
(820,465,o),
(702,403,o),
(659,326,c),
(630,391,o),
(547,460,o),
(386,460,cs)
);
},
{
closed = 1;
nodes = (
(698,348,o),
(813,413,o),
(978,413,cs),
(1147,413,o),
(1234,356,o),
(1234,291,cs),
(1234,254,o),
(1218,260,o),
(1192,260,cs),
(694,260,l)
);
},
{
closed = 1;
nodes = (
(171,35,o),
(107,66,o),
(107,116,cs),
(107,161,o),
(168,208,o),
(352,208,cs),
(493,208,o),
(590,187,o),
(637,166,c),
(624,92,o),
(504,35,o),
(339,35,cs)
);
}
);
width = 1324;
},
{
anchors = (
{
name = bottom;
pos = (594,0);
},
{
name = top;
pos = (594,500);
}
);
layerId = "D56FD762-6887-41EE-B8AF-857F7388911F";
shapes = (
{
closed = 1;
nodes = (
(172,507,o),
(104,470,o),
(74,442,cs),
(25,397,o),
(26,368,o),
(75,309,cs),
(95,285,o),
(116,272,o),
(138,272,cs),
(181,272,o),
(190,338,o),
(359,338,cs),
(418,338,o),
(509,308,o),
(507,246,c),
(469,262,o),
(271,270,o),
(225,270,cs),
(101,270,o),
(25,220,o),
(25,139,cs),
(25,35,o),
(121,-18,o),
(279,-18,cs),
(443,-18,o),
(536,21,o),
(577,58,c),
(625,9,o),
(733,-16,o),
(855,-16,cs),
(993,-16,o),
(1076,-10,o),
(1118,22,cs),
(1147,44,o),
(1156,81,o),
(1136,121,cs),
(1121,151,o),
(1101,166,o),
(1077,166,cs),
(1049,166,o),
(1024,142,o),
(862,142,cs),
(782,142,o),
(705,162,o),
(697,185,c),
(1073,185,ls),
(1133,185,o),
(1173,233,o),
(1173,308,cs),
(1173,388,o),
(1102,504,o),
(855,504,cs),
(744,504,o),
(630,467,o),
(592,417,c),
(556,469,o),
(436,507,o),
(354,507,cs)
);
},
{
closed = 1;
nodes = (
(703,314,o),
(746,344,o),
(863,344,cs),
(976,344,o),
(996,330,o),
(996,306,cs),
(996,293,o),
(987,286,o),
(952,286,cs),
(696,286,l)
);
},
{
closed = 1;
nodes = (
(220,111,o),
(186,121,o),
(186,144,cs),
(186,159,o),
(207,166,o),
(343,166,cs),
(406,166,o),
(490,158,o),
(509,152,c),
(486,128,o),
(373,111,o),
(329,111,cs)
);
}
);
width = 1198;
}
);
note = ae;
unicode = 230;
},
{
color = 6;
glyphname = b;
kernRight = d;
layers = (
{
anchors = (
{
name = bottom;
pos = (278,0);
},
{
name = top;
pos = (278,500);
}
);
layerId = "05A6575B-AA27-4212-BC78-A0BDA398BBDE";
shapes = (
{
closed = 1;
nodes = (
(428,-7,o),
(539,113,o),
(539,247,cs),
(539,376,o),
(426,498,o),
(308,498,cs),
(181,498,o),
(122,378,o),
(120,249,cs),
(118,119,o),
(176,-7,o),
(308,-7,cs)
);
},
{
closed = 1;
nodes = (
(246,173,o),
(213,206,o),
(213,245,cs),
(213,284,o),
(244,317,o),
(285,317,cs),
(325,317,o),
(357,285,o),
(357,245,cs),
(357,207,o),
(323,173,o),
(284,173,cs)
);
},
{
closed = 1;
nodes = (
(174,-8,o),
(198,7,o),
(207,42,c),
(207,637,l),
(208,681,o),
(211,728,o),
(121,728,cs),
(30,728,o),
(30,683,o),
(30,638,cs),
(30,83,ls),
(30,39,o),
(30,-8,o),
(120,-8,cs)
);
}
);
width = 554;
},
{
anchors = (
{
name = bottom;
pos = (183,0);
},
{
name = top;
pos = (183,500);
}
);
layerId = "4383C18A-60F2-4889-B7DB-EDD0F2222092";
shapes = (
{
closed = 1;
nodes = (
(277,-11,o),
(318,72,o),
(318,230,cs),
(318,386,o),
(277,467,o),
(197,467,cs),
(137,467,o),
(83,371,o),
(83,227,c),
(83,70,o),
(135,-11,o),
(197,-11,cs)
);
},
{
closed = 1;
nodes = (
(138,42,o),
(126,116,o),
(126,227,cs),
(126,339,o),
(138,414,o),
(188,414,cs),
(237,414,o),
(262,350,o),
(262,227,cs),
(262,105,o),
(237,42,o),
(188,42,cs)
);
},
{
closed = 1;
nodes = (
(115,-11,o),
(122,-3,o),
(122,19,cs),
(122,656,ls),
(122,679,o),
(115,687,o),
(94,687,cs),
(72,687,o),
(65,679,o),
(65,657,cs),
(65,20,ls),
(65,-3,o),
(72,-11,o),
(93,-11,cs)
);
}
);
width = 353;
},
{
anchors = (
{
name = bottom;
pos = (300,0);
},
{
name = top;
pos = (300,500);
}
);
layerId = "988D29BF-96E2-481F-8769-6B283BD5795A";
shapes = (
{
closed = 1;
nodes = (
(434,-11,o),
(531,85,o),
(531,230,cs),
(531,372,o),
(434,467,o),
(310,467,cs),
(179,467,o),
(86,371,o),
(86,227,c),
(86,84,o),
(179,-11,o),
(310,-11,cs)
);
},
{
closed = 1;
nodes = (
(202,42,o),
(127,117,o),
(127,227,cs),
(127,338,o),
(203,414,o),
(301,414,cs),
(400,414,o),
(476,338,o),
(476,227,cs),
(476,117,o),
(400,42,o),
(301,42,cs)
);
},
{
closed = 1;
nodes = (
(117,-12,o),
(124,-4,o),
(124,19,cs),
(124,656,ls),
(124,678,o),
(116,686,o),
(95,686,cs),
(74,686,o),
(67,678,o),
(67,655,cs),
(67,18,ls),
(67,-4,o),
(75,-12,o),
(96,-12,cs)
);
}
);
width = 591;
},
{
anchors = (
{
name = bottom;
pos = (257,0);
},
{
name = top;
pos = (257,500);
}
);
layerId = "C221B64C-0844-4CE6-BA2A-18F986CD7755";
shapes = (
{
closed = 1;
nodes = (
(422,-7,o),
(489,95,o),
(489,247,cs),
(489,398,o),
(422,498,o),
(302,498,cs),
(184,498,o),
(175,398,o),
(175,245,cs),
(175,100,o),
(179,-7,o),
(302,-7,cs)
);
},
{
closed = 1;
nodes = (
(237,173,o),
(219,202,o),
(219,245,cs),
(219,288,o),
(238,317,o),
(266,317,cs),
(291,317,o),
(308,288,o),
(308,245,cs),
(308,202,o),
(291,173,o),
(265,173,cs)
);
},
{
closed = 1;
nodes = (
(180,-8,o),
(205,7,o),
(214,43,c),
(214,638,ls),
(214,683,o),
(216,728,o),
(125,728,cs),
(35,728,o),
(35,682,o),
(35,637,cs),
(35,82,ls),
(35,37,o),
(35,-8,o),
(127,-8,cs)
);
}
);
width = 504;
},
{
anchors = (
{
name = bottom;
pos = (388,0);
},
{
name = top;
pos = (388,500);
}
);
layerId = "F1D2FE0C-0290-44F9-97DF-753285E87900";
shapes = (
{
closed = 1;
nodes = (
(618,-11,o),
(726,85,o),
(726,230,cs),
(726,372,o),
(618,467,o),
(405,467,cs),
(191,467,o),
(81,371,o),
(81,227,c),
(81,84,o),
(191,-11,o),
(405,-11,cs)
);
},
{
closed = 1;
nodes = (
(212,42,o),
(122,116,o),
(122,227,cs),
(122,339,o),
(212,414,o),
(396,414,cs),
(581,414,o),
(671,339,o),
(671,227,cs),
(671,116,o),
(581,42,o),
(396,42,cs)
);
},
{
closed = 1;
nodes = (
(111,-11,o),
(119,-3,o),
(119,19,cs),
(119,656,ls),
(119,679,o),
(112,687,o),
(90,687,cs),
(68,687,o),
(60,679,o),
(60,657,cs),
(60,20,ls),
(60,-3,o),
(67,-11,o),
(89,-11,cs)
);
}
);
width = 776;
},
{
anchors = (
{
name = bottom;
pos = (400,0);
},
{
name = top;
pos = (400,500);
}
);
layerId = "D56FD762-6887-41EE-B8AF-857F7388911F";
shapes = (
{
closed = 1;
nodes = (
(626,-7,o),
(734,95,o),
(734,247,cs),
(734,398,o),
(626,498,o),
(413,498,cs),
(199,498,o),
(169,378,o),
(169,254,cs),
(169,106,o),
(199,-7,o),
(413,-7,cs)
);
},
{
closed = 1;
nodes = (
(278,153,o),
(238,190,o),
(238,245,cs),
(238,300,o),
(279,337,o),
(390,337,cs),
(501,337,o),
(542,300,o),
(542,245,cs),
(542,190,o),
(501,153,o),
(389,153,cs)
);
},
{
closed = 1;
nodes = (
(191,-8,o),
(218,16,o),
(223,52,c),
(226,637,l),
(226,681,o),
(226,728,o),
(136,728,cs),
(45,728,o),
(45,683,o),
(45,638,cs),
(45,83,ls),
(45,39,o),
(45,-8,o),
(135,-8,cs)
);
}
);
width = 759;
}
);
note = b;
unicode = 98;
},
{
color = 6;
glyphname = c;
kernLeft = c;
kernRight = c;
layers = (
{
anchors = (
{
name = bottom;
pos = (252,0);
},
{
name = top;
pos = (252,500);
}
);
layerId = "05A6575B-AA27-4212-BC78-A0BDA398BBDE";
shapes = (
{
closed = 1;
nodes = (
(367,-14,o),
(416,21,o),
(423,25,c),
(481,61,o),
(496,101,o),
(454,153,cs),
(424,190,o),
(402,206,o),
(379,206,cs),
(361,206,o),
(345,195,o),
(327,184,c),
(325,183,o),
(311,171,o),
(283,171,cs),
(244,171,o),
(211,204,o),
(211,246,cs),
(211,287,o),
(245,320,o),
(285,320,cs),
(330,320,o),
(341,284,o),
(385,284,cs),
(409,284,o),
(432,301,o),
(457,339,cs),
(471,361,o),
(478,379,o),
(478,396,cs),
(478,430,o),
(449,449,o),
(423,465,cs),
(407,475,o),
(360,505,o),
(285,505,cs),
(177,505,o),
(25,418,o),
(25,247,cs),
(25,73,o),
(177,-14,o),
(287,-14,cs)
);
}
);
width = 503;
},
{
anchors = (
{
name = bottom;
pos = (158,0);
},
{
name = top;
pos = (158,500);
}
);
layerId = "4383C18A-60F2-4889-B7DB-EDD0F2222092";
shapes = (
{
closed = 1;
nodes = (
(216,-11,o),
(253,13,o),
(271,50,cs),
(276,60,o),
(279,70,o),
(271,81,cs),
(263,91,o),
(255,96,o),
(246,96,cs),
(238,96,o),
(228,91,o),
(222,78,cs),
(211,55,o),
(192,42,o),
(170,42,cs),
(109,42,o),
(93,117,o),
(93,227,cs),
(93,338,o),
(109,413,o),
(172,413,cs),
(195,413,o),
(211,398,o),
(226,366,cs),
(231,356,o),
(239,351,o),
(249,352,cs),
(259,353,o),
(267,357,o),
(273,365,cs),
(281,376,o),
(276,388,o),
(271,399,cs),
(254,438,o),
(220,466,o),
(173,466,cs),
(76,466,o),
(35,370,o),
(35,227,cs),
(35,84,o),
(77,-11,o),
(175,-11,cs)
);
}
);
width = 312;
},
{
anchors = (
{
name = bottom;
pos = (252,0);
},
{
name = top;
pos = (272,500);
}
);
layerId = "988D29BF-96E2-481F-8769-6B283BD5795A";
shapes = (
{
closed = 1;
nodes = (
(345,-11,o),
(420,18,o),
(462,60,cs),
(472,70,o),
(471,84,o),
(464,92,cs),
(456,102,o),
(449,109,o),
(441,109,cs),
(430,109,o),
(424,102,o),
(414,93,c),
(383,62,o),
(333,43,o),
(288,43,cs),
(178,43,o),
(104,117,o),
(104,227,cs),
(104,338,o),
(178,412,o),
(290,412,cs),
(335,412,o),
(384,388,o),
(412,351,c),
(418,343,o),
(426,337,o),
(435,337,cs),
(443,337,o),
(454,343,o),
(462,352,cs),
(469,360,o),
(469,366,o),
(460,383,cs),
(436,428,o),
(355,466,o),
(290,466,cs),
(143,466,o),
(45,370,o),
(45,227,cs),
(45,84,o),
(144,-11,o),
(292,-11,cs)
);
}
);
width = 510;
},
{
anchors = (
{
name = bottom;
pos = (220,0);
},
{
name = top;
pos = (220,500);
}
);
layerId = "C221B64C-0844-4CE6-BA2A-18F986CD7755";
shapes = (
{
closed = 1;
nodes = (
(297,-14,o),
(346,5,o),
(363,15,cs),
(440,60,o),
(436,91,o),
(394,143,cs),
(364,180,o),
(342,206,o),
(319,196,cs),
(302,189,o),
(287,175,o),
(273,172,cs),
(262,170,o),
(254,170,o),
(243,171,cs),
(218,173,o),
(201,201,o),
(201,246,cs),
(201,290,o),
(219,320,o),
(245,320,cs),
(290,320,o),
(281,294,o),
(325,294,cs),
(349,294,o),
(373,311,o),
(397,349,cs),
(411,371,o),
(418,389,o),
(418,406,cs),
(418,440,o),
(390,460,o),
(363,475,cs),
(350,482,o),
(298,505,o),
(245,505,cs),
(107,505,o),
(15,402,o),
(15,247,cs),
(15,90,o),
(108,-14,o),
(247,-14,cs)
);
}
);
width = 439;
},
{
anchors = (
{
name = bottom;
pos = (397,0);
},
{
name = top;
pos = (397,500);
}
);
layerId = "F1D2FE0C-0290-44F9-97DF-753285E87900";
shapes = (
{
closed = 1;
nodes = (
(508,-11,o),
(618,16,o),
(682,70,cs),
(693,79,o),
(691,94,o),
(684,102,cs),
(676,112,o),
(669,119,o),
(661,119,cs),
(650,119,o),
(644,112,o),
(634,103,c),
(588,67,o),
(504,41,o),
(398,41,cs),
(202,41,o),
(104,117,o),
(104,227,cs),
(104,338,o),
(202,414,o),
(400,414,cs),
(500,414,o),
(585,382,o),
(632,338,c),
(638,330,o),
(647,325,o),
(656,325,cs),
(664,325,o),
(674,332,o),
(682,341,cs),
(690,350,o),
(690,357,o),
(678,372,cs),
(633,427,o),
(512,466,o),
(400,466,cs),
(167,466,o),
(45,370,o),
(45,227,cs),
(45,84,o),
(168,-11,o),
(402,-11,cs)
);
}
);
width = 739;
},
{
anchors = (
{
name = bottom;
pos = (352,0);
},
{
name = top;
pos = (342,500);
}
);
layerId = "D56FD762-6887-41EE-B8AF-857F7388911F";
shapes = (
{
closed = 1;
nodes = (
(537,-14,o),
(596,31,o),
(603,35,c),
(661,71,o),
(666,111,o),
(634,163,cs),
(609,204,o),
(582,216,o),
(559,216,cs),
(541,216,o),
(525,205,o),
(507,194,c),
(505,193,o),
(461,161,o),
(363,161,cs),
(243,161,o),
(210,204,o),
(210,246,cs),
(210,287,o),
(244,330,o),
(365,330,cs),
(500,330,o),
(521,274,o),
(565,274,cs),
(589,274,o),
(613,291,o),
(637,329,cs),
(651,351,o),
(658,369,o),
(658,386,cs),
(658,420,o),
(629,439,o),
(603,455,c),
(599,458,o),
(538,505,o),
(365,505,cs),
(176,505,o),
(24,418,o),
(24,247,cs),
(24,73,o),
(176,-14,o),
(367,-14,cs)
);
}
);
width = 683;
}
);
note = c;
unicode = 99;
},
{
color = 6;
glyphname = d;
kernRight = d;
layers = (
{
anchors = (
{
name = bottom;
pos = (277,0);
},
{
name = center;
pos = (277,250);
},
{
name = top;
pos = (277,500);
},
{
name = topright;
pos = (535,500);
}
);
layerId = "05A6575B-AA27-4212-BC78-A0BDA398BBDE";
shapes = (
{
closed = 1;
nodes = (
(378,-7,o),
(436,119,o),
(434,249,cs),
(432,378,o),
(373,498,o),
(246,498,cs),
(128,498,o),
(15,376,o),
(15,247,cs),
(15,113,o),
(126,-7,o),
(246,-7,cs)
);
},
{
closed = 1;
nodes = (
(231,173,o),
(197,207,o),
(197,245,cs),
(197,285,o),
(229,317,o),
(269,317,cs),
(310,317,o),
(341,284,o),
(341,245,cs),
(341,206,o),
(308,173,o),
(270,173,cs)
);
},
{
closed = 1;
nodes = (
(524,-8,o),
(524,39,o),
(524,83,cs),
(524,638,ls),
(524,683,o),
(524,728,o),
(433,728,cs),
(343,728,o),
(346,681,o),
(347,637,cs),
(347,42,ls),
(356,7,o),
(380,-8,o),
(434,-8,cs)
);
}
);
width = 554;
},
{
anchors = (
{
name = bottom;
pos = (152,0);
},
{
name = center;
pos = (152,250);
},
{
name = top;
pos = (152,500);
},
{
name = topright;
pos = (353,500);
}
);
layerId = "4383C18A-60F2-4889-B7DB-EDD0F2222092";
shapes = (
{
closed = 1;
nodes = (
(218,-11,o),
(270,70,o),
(270,227,c),
(270,371,o),
(216,467,o),
(156,467,cs),
(76,467,o),
(35,386,o),
(35,230,cs),
(35,72,o),
(76,-11,o),
(156,-11,cs)
);
},
{
closed = 1;
nodes = (
(116,42,o),
(91,105,o),
(91,227,cs),
(91,350,o),
(116,414,o),
(165,414,cs),
(215,414,o),
(227,339,o),
(227,227,cs),
(227,116,o),
(215,42,o),
(165,42,cs)
);
},
{
closed = 1;
nodes = (
(281,-11,o),
(288,-3,o),
(288,20,cs),
(288,657,ls),
(288,679,o),
(281,687,o),
(259,687,cs),
(238,687,o),
(231,679,o),
(231,656,cs),
(231,19,ls),
(231,-3,o),
(238,-11,o),
(260,-11,cs)
);
}
);
width = 353;
},
{
anchors = (
{
name = bottom;
pos = (298,0);
},
{
name = center;
pos = (298,250);
},
{
name = top;
pos = (268,500);
},
{
name = topright;
pos = (577,500);
}
);
layerId = "988D29BF-96E2-481F-8769-6B283BD5795A";
shapes = (
{
closed = 1;
nodes = (
(412,-11,o),
(505,84,o),
(505,227,c),
(505,371,o),
(412,467,o),
(281,467,cs),
(157,467,o),
(60,372,o),
(60,230,cs),
(60,85,o),
(157,-11,o),
(281,-11,cs)
);
},
{
closed = 1;
nodes = (
(191,42,o),
(115,117,o),
(115,227,cs),
(115,338,o),
(191,414,o),
(290,414,cs),
(388,414,o),
(464,338,o),
(464,227,cs),
(464,117,o),
(389,42,o),
(290,42,cs)
);
},
{
closed = 1;
nodes = (
(517,-11,o),
(524,-3,o),
(524,20,cs),
(524,657,ls),
(524,679,o),
(516,687,o),
(495,687,cs),
(474,687,o),
(467,679,o),
(467,656,cs),
(467,19,ls),
(467,-3,o),
(475,-11,o),
(496,-11,cs)
);
}
);
width = 596;
},
{
anchors = (
{
name = bottom;
pos = (249,0);
},
{
name = center;
pos = (249,250);
},
{
name = top;
pos = (249,500);
},
{
name = topright;
pos = (486,500);
}
);
layerId = "C221B64C-0844-4CE6-BA2A-18F986CD7755";
shapes = (
{
closed = 1;
nodes = (
(325,-7,o),
(329,100,o),
(329,245,cs),
(329,398,o),
(320,498,o),
(202,498,cs),
(82,498,o),
(15,398,o),
(15,247,cs),
(15,95,o),
(82,-7,o),
(202,-7,cs)
);
},
{
closed = 1;
nodes = (
(213,173,o),
(196,202,o),
(196,245,cs),
(196,288,o),
(213,317,o),
(238,317,cs),
(266,317,o),
(285,288,o),
(285,245,cs),
(285,202,o),
(267,173,o),
(239,173,cs)
);
},
{
closed = 1;
nodes = (
(469,-8,o),
(469,37,o),
(469,82,cs),
(469,637,ls),
(469,682,o),
(469,728,o),
(379,728,cs),
(288,728,o),
(290,683,o),
(290,638,cs),
(290,43,l),
(299,7,o),
(324,-8,o),
(377,-8,cs)
);
}
);
width = 509;
},
{
anchors = (
{
name = bottom;
pos = (368,0);
},
{
name = center;
pos = (368,250);
},
{
name = top;
pos = (368,500);
},
{
name = topright;
pos = (691,500);
}
);
layerId = "F1D2FE0C-0290-44F9-97DF-753285E87900";
shapes = (
{
closed = 1;
nodes = (
(570,-11,o),
(680,84,o),
(680,227,c),
(680,371,o),
(570,467,o),
(356,467,cs),
(143,467,o),
(35,372,o),
(35,230,cs),
(35,85,o),
(143,-11,o),
(356,-11,cs)
);
},
{
closed = 1;
nodes = (
(180,42,o),
(90,116,o),
(90,227,cs),
(90,339,o),
(180,414,o),
(365,414,cs),
(549,414,o),
(639,339,o),
(639,227,cs),
(639,116,o),
(549,42,o),
(365,42,cs)
);
},
{
closed = 1;
nodes = (
(694,-11,o),
(701,-3,o),
(701,20,cs),
(701,657,ls),
(701,679,o),
(693,687,o),
(671,687,cs),
(649,687,o),
(642,679,o),
(642,656,cs),
(642,19,ls),
(642,-3,o),
(650,-11,o),
(672,-11,cs)
);
}
);
width = 761;
},
{
anchors = (
{
name = bottom;
pos = (370,0);
},
{
name = center;
pos = (370,250);
},
{
name = top;
pos = (370,500);
},
{
name = topright;
pos = (669,500);
}
);
layerId = "D56FD762-6887-41EE-B8AF-857F7388911F";
shapes = (
{
closed = 1;
nodes = (
(560,-7,o),
(590,106,o),
(590,254,cs),
(590,378,o),
(560,498,o),
(346,498,cs),
(133,498,o),
(25,398,o),
(25,247,cs),
(25,95,o),
(133,-7,o),
(346,-7,cs)
);
},
{
closed = 1;
nodes = (
(258,153,o),
(217,190,o),
(217,245,cs),
(217,300,o),
(258,337,o),
(369,337,cs),
(480,337,o),
(521,300,o),
(521,245,cs),
(521,190,o),
(481,153,o),
(370,153,cs)
);
},
{
closed = 1;
nodes = (
(714,-8,o),
(714,39,o),
(714,83,cs),
(714,638,ls),
(714,683,o),
(714,728,o),
(623,728,cs),
(533,728,o),
(533,681,o),
(533,637,cs),
(536,52,ls),
(541,16,o),
(568,-8,o),
(624,-8,cs)
);
}
);
width = 759;
}
);
note = d;
unicode = 100;
},
{
color = 6;
glyphname = eth;
kernRight = d;
layers = (
{
layerId = "05A6575B-AA27-4212-BC78-A0BDA398BBDE";
shapes = (
{
closed = 1;
nodes = (
(325,770,o),
(312,761,o),
(291,730,cs),
(274,705,l),
(258,714,o),
(237,724,o),
(216,724,cs),
(193,724,o),
(174,710,o),
(159,680,cs),
(150,663,o),
(145,648,o),
(145,635,cs),
(145,612,o),
(156,603,o),
(186,588,c),
(174,572,ls),
(152,542,o),
(152,526,o),
(192,503,cs),
(220,488,o),
(234,485,o),
(257,517,cs),
(277,545,l),
(308,527,o),
(337,501,o),
(361,468,c),
(339,478,o),
(308,486,o),
(267,486,cs),
(161,486,o),
(24,386,o),
(24,237,cs),
(24,82,o),
(162,-18,o),
(282,-18,cs),
(414,-18,o),
(531,93,o),
(538,225,cs),
(550,399,o),
(494,554,o),
(360,656,c),
(377,678,l),
(395,707,o),
(395,725,o),
(359,747,c)
);
},
{
closed = 1;
nodes = (
(252,161,o),
(203,179,o),
(203,239,cs),
(203,284,o),
(237,318,o),
(280,318,cs),
(328,318,o),
(361,287,o),
(361,240,cs),
(361,179,o),
(310,161,o),
(281,161,cs)
);
}
);
width = 564;
},
{
layerId = "4383C18A-60F2-4889-B7DB-EDD0F2222092";
shapes = (
{
closed = 1;
nodes = (
(249,727,o),
(239,729,o),
(223,714,cs),
(176,668,l),
(157,681,o),
(136,692,o),
(114,701,cs),
(97,708,o),
(86,708,o),
(78,693,cs),
(68,675,o),
(69,661,o),
(87,654,cs),
(105,647,o),
(122,639,o),
(136,630,c),
(97,592,ls),
(82,578,o),
(82,567,o),
(99,550,cs),
(114,535,o),
(125,535,o),
(140,550,cs),
(185,593,l),
(230,560,o),
(265,505,o),
(276,431,c),
(250,461,o),
(224,477,o),
(186,477,cs),
(95,477,o),
(45,387,o),
(45,234,cs),
(45,80,o),
(95,-11,o),
(186,-11,cs),
(282,-11,o),
(344,79,o),
(344,231,cs),
(344,433,o),
(311,554,o),
(225,632,c),
(264,670,ls),
(279,685,o),
(280,696,o),
(265,711,cs)
);
},
{
closed = 1;
nodes = (
(133,42,o),
(100,112,o),
(100,231,cs),
(100,352,o),
(133,424,o),
(195,424,cs),
(250,424,o),
(289,352,o),
(289,231,cs),
(289,112,o),
(250,42,o),
(195,42,cs)
);
}
);
width = 389;
},
{
layerId = "988D29BF-96E2-481F-8769-6B283BD5795A";
shapes = (
{
closed = 1;
nodes = (
(333,736,o),
(322,736,o),
(309,719,cs),
(272,672,l),
(251,679,o),
(227,686,o),
(203,691,cs),
(184,695,o),
(174,693,o),
(168,677,cs),
(161,658,o),
(163,644,o),
(183,640,cs),
(202,636,o),
(220,632,o),
(237,626,c),
(201,580,ls),
(188,564,o),
(190,553,o),
(209,539,cs),
(226,526,o),
(237,528,o),
(250,545,cs),
(295,604,l),
(375,564,o),
(424,501,o),
(449,405,c),
(413,449,o),
(353,477,o),
(282,477,cs),
(150,477,o),
(51,373,o),
(51,234,cs),
(51,94,o),
(150,-11,o),
(282,-11,cs),
(418,-11,o),
(520,93,o),
(520,231,cs),
(520,443,o),
(456,577,o),
(328,647,c),
(355,681,ls),
(368,698,o),
(368,709,o),
(351,722,cs)
);
},
{
closed = 1;
nodes = (
(185,42,o),
(106,123,o),
(106,231,cs),
(106,341,o),
(185,424,o),
(291,424,cs),
(390,424,o),
(465,341,o),
(465,231,cs),
(465,123,o),
(390,42,o),
(291,42,cs)
);
}
);
width = 585;
},
{
layerId = "C221B64C-0844-4CE6-BA2A-18F986CD7755";
shapes = (
{
closed = 1;
nodes = (
(294,770,o),
(282,760,o),
(260,730,cs),
(242,706,l),
(240,708,o),
(198,724,o),
(185,724,cs),
(162,724,o),
(143,710,o),
(128,680,cs),
(119,663,o),
(114,648,o),
(114,635,cs),
(114,612,o),
(127,602,o),
(154,588,c),
(134,556,ls),
(121,535,o),
(141,518,o),
(162,506,cs),
(190,491,o),
(203,485,o),
(226,517,cs),
(246,545,l),
(277,527,o),
(306,501,o),
(330,461,c),
(306,474,o),
(269,486,o),
(236,486,cs),
(114,486,o),
(25,386,o),
(25,237,cs),
(25,84,o),
(114,-18,o),
(251,-18,cs),
(377,-18,o),
(467,79,o),
(477,225,cs),
(488,409,o),
(453,561,o),
(329,656,c),
(346,678,l),
(364,707,o),
(364,725,o),
(328,747,c)
);
},
{
closed = 1;
nodes = (
(221,161,o),
(202,192,o),
(202,239,cs),
(202,286,o),
(221,318,o),
(249,318,cs),
(280,318,o),
(300,287,o),
(300,240,cs),
(300,193,o),
(280,161,o),
(250,161,cs)
);
}
);
width = 504;
},
{
layerId = "F1D2FE0C-0290-44F9-97DF-753285E87900";
shapes = (
{
closed = 1;
nodes = (
(313,752,o),
(304,751,o),
(293,732,cs),
(260,675,l),
(240,681,o),
(219,687,o),
(198,691,cs),
(179,695,o),
(169,693,o),
(163,677,cs),
(156,658,o),
(158,644,o),
(178,640,cs),
(196,636,o),
(215,632,o),
(232,627,c),
(205,580,ls),
(195,562,o),
(198,551,o),
(219,540,cs),
(238,530,o),
(248,533,o),
(259,552,cs),
(292,609,l),
(395,572,o),
(481,509,o),
(528,402,c),
(480,444,o),
(412,467,o),
(331,467,cs),
(168,467,o),
(60,372,o),
(60,230,cs),
(60,85,o),
(168,-11,o),
(331,-11,cs),
(495,-11,o),
(605,84,o),
(605,227,cs),
(605,428,o),
(500,579,o),
(318,655,c),
(344,701,ls),
(355,720,o),
(353,731,o),
(334,741,cs)
);
},
{
closed = 1;
nodes = (
(205,42,o),
(115,116,o),
(115,227,cs),
(115,339,o),
(205,414,o),
(340,414,cs),
(474,414,o),
(554,339,o),
(554,227,cs),
(554,116,o),
(474,42,o),
(340,42,cs)
);
}
);
width = 665;
},
{
layerId = "D56FD762-6887-41EE-B8AF-857F7388911F";
shapes = (
{
closed = 1;
nodes = (
(178,774,o),
(169,754,o),
(159,730,cs),
(151,710,l),
(136,713,o),
(121,717,o),
(106,720,cs),
(83,725,o),
(60,707,o),
(50,672,cs),
(38,630,o),
(38,593,o),
(76,588,c),
(85,586,o),
(93,584,o),
(102,582,c),
(99,573,l),
(90,549,o),
(79,525,o),
(131,504,cs),
(185,482,o),
(192,507,o),
(202,530,cs),
(210,549,l),
(271,530,o),
(331,518,o),
(397,474,c),
(384,484,o),
(350,486,o),
(338,486,cs),
(184,486,o),
(25,386,o),
(25,237,cs),
(25,77,o),
(147,-18,o),
(353,-18,cs),
(543,-18,o),
(660,72,o),
(669,225,cs),
(686,465,o),
(497,599,o),
(260,679,c),
(264,689,ls),
(274,713,o),
(282,736,o),
(230,755,cs)
);
},
{
closed = 1;
nodes = (
(261,151,o),
(207,184,o),
(207,239,cs),
(207,301,o),
(260,338,o),
(351,338,cs),
(440,338,o),
(492,302,o),
(492,240,cs),
(492,184,o),
(440,151,o),
(352,151,cs)
);
}
);
width = 695;
}
);
note = eth;
unicode = 240;
},
{
color = 6;
glyphname = e;
kernRight = e;
layers = (
{
anchors = (
{
name = bottom;
pos = (268,0);
},
{
name = ogonek;
pos = (481,10);
},
{
name = top;
pos = (268,500);
}
);
layerId = "05A6575B-AA27-4212-BC78-A0BDA398BBDE";
shapes = (
{
closed = 1;
nodes = (
(421,-20,o),
(496,11,o),
(496,71,cs),
(496,84,o),
(492,99,o),
(483,117,cs),
(467,149,o),
(447,165,o),
(423,165,cs),
(395,165,o),
(370,139,o),
(296,139,cs),
(252,139,o),
(214,159,o),
(207,191,c),
(420,191,ls),
(479,191,o),
(520,232,o),
(520,308,cs),
(520,388,o),
(454,510,o),
(289,510,cs),
(128,510,o),
(15,400,o),
(15,243,cs),
(15,128,o),
(89,-20,o),
(288,-20,cs)
);
},
{
closed = 1;
nodes = (
(208,316,o),
(239,349,o),
(287,349,cs),
(322,349,o),
(346,335,o),
(346,309,cs),
(346,293,o),
(337,285,o),
(319,285,cs),
(207,285,l)
);
}
);
width = 535;
},
{
anchors = (
{
name = bottom;
pos = (166,0);
},
{
name = ogonek;
pos = (339,10);
},
{
name = top;
pos = (166,500);
}
);
layerId = "4383C18A-60F2-4889-B7DB-EDD0F2222092";
shapes = (
{
closed = 1;
nodes = (
(229,-12,o),
(282,23,o),
(282,42,cs),
(282,51,o),
(282,53,o),
(277,62,c),
(274,68,o),
(269,74,o),
(259,74,cs),
(230,74,o),
(225,39,o),
(172,39,cs),
(134,39,o),
(90,101,o),
(94,209,c),
(221,209,ls),
(264,209,o),
(287,228,o),
(287,293,cs),
(287,382,o),
(244,464,o),
(169,464,cs),
(77,464,o),
(35,364,o),
(35,234,cs),
(35,88,o),
(76,-12,o),
(173,-12,cs)
);
},
{
closed = 1;
nodes = (
(91,349,o),
(120,416,o),
(170,416,cs),
(212,416,o),
(234,357,o),
(234,292,cs),
(234,255,o),
(227,257,o),
(201,257,cs),
(94,257,l)
);
}
);
width = 322;
},
{
anchors = (
{
name = bottom;
pos = (271,0);
},
{
name = ogonek;
pos = (488,10);
},
{
name = top;
pos = (271,500);
}
);
layerId = "988D29BF-96E2-481F-8769-6B283BD5795A";
shapes = (
{
closed = 1;
nodes = (
(392,-13,o),
(472,33,o),
(472,52,cs),
(472,61,o),
(469,68,o),
(463,77,c),
(459,84,o),
(449,84,o),
(442,81,cs),
(415,70,o),
(388,39,o),
(291,39,cs),
(203,39,o),
(101,103,o),
(105,209,c),
(420,209,ls),
(463,209,o),
(497,228,o),
(497,293,cs),
(497,382,o),
(410,464,o),
(288,464,cs),
(146,464,o),
(45,364,o),
(45,234,cs),
(45,88,o),
(145,-13,o),
(292,-13,cs)
);
},
{
closed = 1;
nodes = (
(102,347,o),
(189,413,o),
(289,413,cs),
(378,413,o),
(445,356,o),
(445,291,cs),
(445,257,o),
(429,257,o),
(403,257,cs),
(105,257,l)
);
}
);
width = 542;
},
{
anchors = (
{
name = bottom;
pos = (231,0);
},
{
name = ogonek;
pos = (421,10);
},
{
name = top;
pos = (231,500);
}
);
layerId = "C221B64C-0844-4CE6-BA2A-18F986CD7755";
shapes = (
{
closed = 1;
nodes = (
(345,-21,o),
(440,17,o),
(440,71,cs),
(440,85,o),
(437,99,o),
(427,117,cs),
(411,149,o),
(392,165,o),
(368,165,cs),
(340,165,o),
(315,140,o),
(259,140,cs),
(219,140,o),
(200,159,o),
(201,182,c),
(345,182,ls),
(405,182,o),
(446,233,o),
(446,308,cs),
(446,389,o),
(398,510,o),
(252,510,cs),
(101,510,o),
(15,400,o),
(15,243,cs),
(15,128,o),
(62,-21,o),
(251,-21,cs)
);
},
{
closed = 1;
nodes = (
(198,314,o),
(217,344,o),
(250,344,cs),
(275,344,o),
(285,330,o),
(285,306,cs),
(285,292,o),
(277,286,o),
(259,286,cs),
(198,286,l)
);
}
);
width = 461;
},
{
anchors = (
{
name = bottom;
pos = (362,0);
},
{
name = ogonek;
pos = (623,10);
},
{
name = top;
pos = (362,500);
}
);
layerId = "F1D2FE0C-0290-44F9-97DF-753285E87900";
shapes = (
{
closed = 1;
nodes = (
(536,-12,o),
(632,17,o),
(661,38,cs),
(672,46,o),
(676,53,o),
(665,73,cs),
(659,84,o),
(649,84,o),
(639,82,cs),
(610,76,o),
(558,41,o),
(381,41,cs),
(203,41,o),
(91,110,o),
(95,211,c),
(610,211,ls),
(653,211,o),
(687,229,o),
(687,293,cs),
(687,382,o),
(579,465,o),
(377,465,cs),
(145,465,o),
(35,364,o),
(35,234,cs),
(35,88,o),
(145,-12,o),
(382,-12,cs)
);
},
{
closed = 1;
nodes = (
(99,348,o),
(189,413,o),
(379,413,cs),
(548,413,o),
(635,356,o),
(635,291,cs),
(635,254,o),
(619,260,o),
(593,260,cs),
(95,260,l)
);
}
);
width = 722;
},
{
anchors = (
{
name = bottom;
pos = (369,0);
},
{
name = ogonek;
pos = (624,10);
},
{
name = top;
pos = (370,500);
}
);
layerId = "D56FD762-6887-41EE-B8AF-857F7388911F";
shapes = (
{
closed = 1;
nodes = (
(569,-21,o),
(689,30,o),
(689,93,cs),
(689,107,o),
(685,121,o),
(676,139,cs),
(660,171,o),
(640,177,o),
(616,177,cs),
(556,177,o),
(573,127,o),
(402,127,cs),
(266,127,o),
(212,164,o),
(209,194,c),
(613,194,ls),
(672,194,o),
(713,233,o),
(713,308,cs),
(713,389,o),
(640,505,o),
(388,505,cs),
(140,505,o),
(25,391,o),
(25,243,cs),
(25,128,o),
(101,-21,o),
(388,-21,cs)
);
},
{
closed = 1;
nodes = (
(215,330,o),
(259,359,o),
(379,359,cs),
(497,359,o),
(552,341,o),
(552,309,cs),
(552,286,o),
(536,288,o),
(518,288,cs),
(209,288,l)
);
}
);
width = 738;
}
);
note = e;
unicode = 101;
},
{
color = 6;
glyphname = f;
kernLeft = f;
kernRight = d;
layers = (
{
anchors = (
{
name = bottom;
pos = (210,0);
},
{
name = top;
pos = (210,500);
}
);
layerId = "05A6575B-AA27-4212-BC78-A0BDA398BBDE";
shapes = (
{
closed = 1;
nodes = (
(270,-10,o),
(272,36,o),
(272,80,cs),
(272,535,ls),
(272,544,o),
(279,549,o),
(298,549,cs),
(342,549,o),
(390,549,o),
(390,639,cs),
(390,730,o),
(343,730,o),
(299,730,cs),
(153,730,o),
(90,618,o),
(90,533,cs),
(90,82,ls),
(90,37,o),
(91,-10,o),
(180,-10,cs)
);
},
{
closed = 1;
nodes = (
(26,493,o),
(5,464,o),
(5,407,cs),
(5,346,o),
(20,322,o),
(65,319,c),
(196,319,l),
(323,316,l),
(368,316,o),
(414,321,o),
(414,406,cs),
(414,497,o),
(367,498,o),
(324,498,cs),
(186,493,l),
(69,493,ls)
);
}
);
width = 419;
},
{
anchors = (
{
name = bottom;
pos = (139,0);
},
{
name = top;
pos = (139,500);
}
);
layerId = "4383C18A-60F2-4889-B7DB-EDD0F2222092";
shapes = (
{
closed = 1;
nodes = (
(135,-11,o),
(142,-4,o),
(142,17,cs),
(142,542,ls),
(142,599,o),
(142,633,o),
(160,633,cs),
(183,633,o),
(191,640,o),
(191,661,cs),
(191,682,o),
(183,689,o),
(161,689,cs),
(96,689,o),
(86,634,o),
(86,540,cs),
(86,20,ls),
(86,-3,o),
(92,-11,o),
(113,-11,cs)
);
},
{
closed = 1;
nodes = (
(43,454,o),
(35,446,o),
(35,426,cs),
(35,404,o),
(42,396,o),
(63,397,cs),
(110,399,l),
(165,397,ls),
(186,396,o),
(193,404,o),
(193,426,cs),
(193,446,o),
(185,454,o),
(163,453,cs),
(110,451,l),
(65,453,ls)
);
}
);
width = 228;
},
{
anchors = (
{
name = bottom;
pos = (174,0);
},
{
name = top;
pos = (174,500);
}
);
layerId = "988D29BF-96E2-481F-8769-6B283BD5795A";
shapes = (
{
closed = 1;
nodes = (
(178,-11,o),
(186,-4,o),
(186,17,cs),
(186,542,ls),
(186,628,o),
(212,633,o),
(288,633,cs),
(311,633,o),
(319,640,o),
(319,661,cs),
(319,683,o),
(311,689,o),
(289,689,cs),
(169,689,o),
(129,651,o),
(129,540,cs),
(129,20,ls),
(129,-3,o),
(135,-11,o),
(156,-11,cs)
);
},
{
closed = 1;
nodes = (
(46,453,o),
(38,446,o),
(38,426,cs),
(38,404,o),
(45,397,o),
(66,397,cs),
(157,399,l),
(298,397,ls),
(319,397,o),
(326,404,o),
(326,426,cs),
(326,446,o),
(318,453,o),
(296,453,cs),
(157,451,l),
(68,453,ls)
);
}
);
width = 364;
},
{
anchors = (
{
name = bottom;
pos = (191,0);
},
{
name = top;
pos = (191,500);
}
);
layerId = "C221B64C-0844-4CE6-BA2A-18F986CD7755";
shapes = (
{
closed = 1;
nodes = (
(255,-10,o),
(257,36,o),
(257,80,cs),
(257,535,ls),
(257,544,o),
(264,549,o),
(273,549,cs),
(309,549,o),
(357,549,o),
(357,639,cs),
(357,730,o),
(311,730,o),
(275,730,cs),
(129,730,o),
(75,618,o),
(75,533,cs),
(75,82,ls),
(75,37,o),
(76,-10,o),
(165,-10,cs)
);
},
{
closed = 1;
nodes = (
(31,493,o),
(10,464,o),
(10,407,cs),
(10,346,o),
(25,319,o),
(70,319,cs),
(191,319,l),
(288,316,ls),
(333,316,o),
(371,321,o),
(371,406,cs),
(371,497,o),
(324,500,o),
(281,498,cs),
(191,493,l),
(74,493,ls)
);
}
);
width = 381;
},
{
anchors = (
{
name = bottom;
pos = (280,0);
},
{
name = top;
pos = (280,500);
}
);
layerId = "F1D2FE0C-0290-44F9-97DF-753285E87900";
shapes = (
{
closed = 1;
nodes = (
(220,-11,o),
(228,-4,o),
(228,17,cs),
(228,542,ls),
(228,597,o),
(359,633,o),
(480,633,cs),
(503,633,o),
(511,640,o),
(511,661,cs),
(511,683,o),
(503,689,o),
(481,689,cs),
(325,689,o),
(171,629,o),
(171,540,cs),
(171,20,ls),
(171,-3,o),
(177,-11,o),
(198,-11,cs)
);
},
{
closed = 1;
nodes = (
(38,453,o),
(30,446,o),
(30,426,cs),
(30,404,o),
(37,397,o),
(58,397,cs),
(198,399,l),
(490,397,ls),
(511,397,o),
(518,404,o),
(518,426,cs),
(518,446,o),
(510,453,o),
(488,453,cs),
(198,451,l),
(60,453,ls)
);
}
);
width = 548;
},
{
anchors = (
{
name = bottom;
pos = (330,0);
},
{
name = top;
pos = (330,500);
}
);
layerId = "D56FD762-6887-41EE-B8AF-857F7388911F";
shapes = (
{
closed = 1;
nodes = (
(380,-10,o),
(382,36,o),
(382,80,cs),
(382,515,ls),
(382,549,o),
(452,549,o),
(518,549,cs),
(562,549,o),
(610,549,o),
(610,639,cs),
(610,730,o),
(563,730,o),
(519,730,cs),
(295,730,o),
(200,618,o),
(200,533,c),
(200,82,l),
(200,37,o),
(201,-10,o),
(290,-10,cs)
);
},
{
closed = 1;
nodes = (
(46,493,o),
(25,464,o),
(25,407,cs),
(25,346,o),
(40,322,o),
(85,319,c),
(366,319,l),
(543,316,l),
(588,316,o),
(634,321,o),
(634,406,cs),
(634,497,o),
(587,499,o),
(544,498,cs),
(356,493,l),
(89,493,ls)
);
}
);
width = 659;
}
);
note = f;
unicode = 102;
},
{
color = 6;
glyphname = g;
kernRight = d;
layers = (
{
anchors = (
{
name = bottom;
pos = (272,0);
},
{
name = top;
pos = (272,500);
}
);
layerId = "05A6575B-AA27-4212-BC78-A0BDA398BBDE";
shapes = (
{
closed = 1;
nodes = (
(382,-220,o),
(516,-130,o),
(516,27,cs),
(516,412,ls),
(516,456,o),
(516,501,o),
(429,501,cs),
(372,501,o),
(345,485,o),
(340,445,c),
(340,33,ls),
(339,-15,o),
(308,-52,o),
(268,-52,cs),
(196,-52,o),
(184,-7,o),
(144,-7,cs),
(121,-7,o),
(108,-22,o),
(87,-44,c),
(67,-66,o),
(57,-88,o),
(57,-114,cs),
(57,-162,o),
(172,-220,o),
(265,-220,cs)
);
},
{
closed = 1;
nodes = (
(358,6,o),
(388,99,o),
(388,251,cs),
(388,398,o),
(357,499,o),
(240,499,cs),
(124,499,o),
(14,380,o),
(14,254,cs),
(14,124,o),
(123,6,o),
(240,6,cs)
);
},
{
closed = 1;
nodes = (
(225,182,o),
(192,215,o),
(192,252,cs),
(192,290,o),
(224,323,o),
(262,323,cs),
(301,323,o),
(333,291,o),
(333,252,cs),
(333,215,o),
(301,182,o),
(264,182,cs)
);
}
);
width = 546;
},
{
anchors = (
{
name = bottom;
pos = (121,0);
},
{
name = top;
pos = (121,500);
}
);
layerId = "4383C18A-60F2-4889-B7DB-EDD0F2222092";
shapes = (
{
closed = 1;
nodes = (
(263,-201,o),
(296,-115,o),
(296,15,cs),
(296,439,ls),
(296,460,o),
(289,467,o),
(270,467,cs),
(248,467,o),
(240,460,o),
(240,439,cs),
(242,22,ls),
(243,-84,o),
(233,-154,o),
(156,-154,cs),
(126,-154,o),
(108,-105,o),
(88,-105,cs),
(77,-105,o),
(75,-107,o),
(68,-114,cs),
(62,-120,o),
(59,-122,o),
(59,-134,cs),
(59,-164,o),
(117,-201,o),
(153,-201,cs)
);
},
{
closed = 1;
nodes = (
(237,-1,o),
(274,79,o),
(274,232,cs),
(274,384,o),
(237,464,o),
(165,464,cs),
(80,464,o),
(35,384,o),
(35,231,cs),
(35,79,o),
(80,-1,o),
(167,-1,cs)
);
},
{
closed = 1;
nodes = (
(116,50,o),
(90,113,o),
(90,233,cs),
(90,352,o),
(115,414,o),
(164,414,cs),
(215,414,o),
(242,352,o),
(242,234,cs),
(242,113,o),
(216,50,o),
(165,50,cs)
);
}
);
width = 346;
},
{
anchors = (
{
name = bottom;
pos = (289,0);
},
{
name = top;
pos = (289,500);
}
);
layerId = "988D29BF-96E2-481F-8769-6B283BD5795A";
shapes = (
{
closed = 1;
nodes = (
(406,-201,o),
(491,-120,o),
(491,15,cs),
(491,439,ls),
(491,460,o),
(484,467,o),
(465,467,cs),
(443,467,o),
(435,460,o),
(435,439,cs),
(437,22,ls),
(438,-90,o),
(372,-154,o),
(271,-154,cs),
(181,-154,o),
(153,-95,o),
(133,-95,cs),
(122,-95,o),
(121,-96,o),
(110,-107,cs),
(106,-112,o),
(104,-115,o),
(104,-124,cs),
(104,-154,o),
(172,-201,o),
(268,-201,cs)
);
},
{
closed = 1;
nodes = (
(391,-1,o),
(479,92,o),
(479,232,cs),
(479,371,o),
(391,464,o),
(270,464,cs),
(139,464,o),
(50,371,o),
(50,231,cs),
(50,92,o),
(139,-1,o),
(272,-1,cs)
);
},
{
closed = 1;
nodes = (
(172,50,o),
(105,123,o),
(105,233,cs),
(105,342,o),
(171,414,o),
(269,414,cs),
(365,414,o),
(437,342,o),
(437,234,cs),
(437,124,o),
(365,50,o),
(270,50,cs)
);
}
);
width = 571;
},
{
anchors = (
{
name = bottom;
pos = (256,0);
},
{
name = top;
pos = (256,500);
}
);
layerId = "C221B64C-0844-4CE6-BA2A-18F986CD7755";
shapes = (
{
closed = 1;
nodes = (
(391,-220,o),
(482,-130,o),
(482,27,cs),
(482,412,ls),
(482,456,o),
(482,501,o),
(395,501,cs),
(338,501,o),
(311,485,o),
(306,445,c),
(306,33,ls),
(305,-15,o),
(294,-61,o),
(254,-61,cs),
(192,-61,o),
(190,-7,o),
(150,-7,cs),
(127,-7,o),
(114,-22,o),
(93,-44,c),
(73,-66,o),
(63,-81,o),
(63,-107,cs),
(63,-155,o),
(168,-220,o),
(251,-220,cs)
);
},
{
closed = 1;
nodes = (
(324,6,o),
(361,121,o),
(361,251,cs),
(361,379,o),
(324,499,o),
(216,499,cs),
(100,499,o),
(20,380,o),
(20,254,cs),
(20,124,o),
(99,6,o),
(216,6,cs)
);
},
{
closed = 1;
nodes = (
(211,172,o),
(198,215,o),
(198,252,cs),
(198,290,o),
(210,333,o),
(248,333,cs),
(287,333,o),
(299,291,o),
(299,252,cs),
(299,215,o),
(287,172,o),
(250,172,cs)
);
}
);
width = 517;
},
{
anchors = (
{
name = bottom;
pos = (374,0);
},
{
name = top;
pos = (374,500);
}
);
layerId = "F1D2FE0C-0290-44F9-97DF-753285E87900";
shapes = (
{
closed = 1;
nodes = (
(531,-201,o),
(676,-154,o),
(676,15,cs),
(676,439,ls),
(676,460,o),
(669,467,o),
(650,467,cs),
(628,467,o),
(620,460,o),
(620,439,cs),
(622,22,ls),
(623,-124,o),
(497,-154,o),
(346,-154,cs),
(186,-154,o),
(138,-94,o),
(118,-94,cs),
(107,-94,o),
(106,-95,o),
(95,-106,c),
(91,-111,o),
(89,-114,o),
(89,-123,cs),
(89,-143,o),
(174,-201,o),
(343,-201,cs)
);
},
{
closed = 1;
nodes = (
(561,-1,o),
(664,92,o),
(664,232,cs),
(664,371,o),
(560,464,o),
(355,464,cs),
(143,464,o),
(35,371,o),
(35,231,cs),
(35,92,o),
(144,-1,o),
(357,-1,cs)
);
},
{
closed = 1;
nodes = (
(176,50,o),
(90,123,o),
(90,233,cs),
(90,342,o),
(176,413,o),
(354,413,cs),
(535,413,o),
(622,342,o),
(622,234,cs),
(622,124,o),
(535,50,o),
(355,50,cs)
);
}
);
width = 736;
},
{
anchors = (
{
name = bottom;
pos = (366,0);
},
{
name = top;
pos = (366,500);
}
);
layerId = "D56FD762-6887-41EE-B8AF-857F7388911F";
shapes = (
{
closed = 1;
nodes = (
(573,-220,o),
(707,-130,o),
(707,27,cs),
(707,412,ls),
(707,456,o),
(707,501,o),
(620,501,cs),
(564,501,o),
(537,487,o),
(531,429,c),
(531,23,ls),
(531,-25,o),
(499,-62,o),
(369,-62,cs),
(207,-62,o),
(195,-7,o),
(155,-7,cs),
(136,-7,o),
(127,-14,o),
(96,-46,c),
(71,-73,o),
(68,-98,o),
(68,-114,cs),
(68,-162,o),
(183,-220,o),
(366,-220,cs)
);
},
{
closed = 1;
nodes = (
(530,6,o),
(576,89,o),
(576,251,cs),
(576,416,o),
(545,499,o),
(341,499,cs),
(125,499,o),
(25,380,o),
(25,254,cs),
(25,124,o),
(124,6,o),
(341,6,cs)
);
},
{
closed = 1;
nodes = (
(236,162,o),
(213,215,o),
(213,252,cs),
(213,290,o),
(235,343,o),
(363,343,cs),
(492,343,o),
(514,291,o),
(514,252,cs),
(514,215,o),
(492,162,o),
(365,162,cs)
);
}
);
width = 742;
}
);
note = g;
unicode = 103;
},
{
color = 6;
glyphname = h;
kernRight = d;
layers = (
{
anchors = (
{
name = bottom;
pos = (282,0);
},
{
name = center;
pos = (282,250);
},
{
name = top;
pos = (282,500);
}
);
layerId = "05A6575B-AA27-4212-BC78-A0BDA398BBDE";
shapes = (
{
closed = 1;
nodes = (
(209,-9,o),
(209,36,o),
(209,81,cs),
(209,261,l),
(214,290,o),
(250,317,o),
(286,317,cs),
(327,317,o),
(353,289,o),
(353,246,cs),
(353,83,ls),
(353,36,o),
(355,-9,o),
(444,-9,cs),
(535,-9,o),
(535,37,o),
(535,81,cs),
(535,245,ls),
(535,388,o),
(437,498,o),
(309,498,cs),
(263,498,o),
(229,474,o),
(209,455,c),
(209,637,l),
(209,682,o),
(209,728,o),
(119,728,cs),
(28,728,o),
(28,683,o),
(28,638,cs),
(28,82,ls),
(28,37,o),
(28,-9,o),
(118,-9,cs)
);
}
);
width = 563;
},
{
anchors = (
{
name = bottom;
pos = (175,0);
},
{
name = center;
pos = (175,250);
},
{
name = top;
pos = (175,500);
}
);
layerId = "4383C18A-60F2-4889-B7DB-EDD0F2222092";
shapes = (
{
closed = 1;
nodes = (
(106,-11,o),
(114,-3,o),
(114,19,cs),
(116,378,l),
(129,400,o),
(145,416,o),
(186,416,cs),
(222,416,o),
(234,382,o),
(234,336,cs),
(234,20,ls),
(234,-2,o),
(241,-10,o),
(263,-10,cs),
(284,-10,o),
(291,-3,o),
(291,19,cs),
(291,335,ls),
(291,421,o),
(272,468,o),
(195,468,cs),
(164,468,o),
(131,447,o),
(114,421,c),
(114,656,ls),
(114,679,o),
(107,687,o),
(85,687,cs),
(63,687,o),
(55,679,o),
(55,657,cs),
(55,20,ls),
(55,-3,o),
(62,-11,o),
(84,-11,cs)
);
}
);
width = 336;
},
{
anchors = (
{
name = bottom;
pos = (265,0);
},
{
name = center;
pos = (265,250);
},
{
name = top;
pos = (265,500);
}
);
layerId = "988D29BF-96E2-481F-8769-6B283BD5795A";
shapes = (
{
closed = 1;
nodes = (
(116,-11,o),
(124,-3,o),
(124,19,cs),
(124,276,l),
(132,361,o),
(189,416,o),
(279,416,cs),
(376,416,o),
(424,352,o),
(424,255,cs),
(424,20,ls),
(424,-2,o),
(431,-10,o),
(453,-10,cs),
(474,-10,o),
(481,-3,o),
(481,19,cs),
(481,254,ls),
(481,389,o),
(395,468,o),
(281,468,cs),
(206,468,o),
(159,430,o),
(124,387,c),
(124,656,ls),
(124,679,o),
(117,687,o),
(95,687,cs),
(73,687,o),
(65,679,o),
(65,657,cs),
(65,20,ls),
(65,-3,o),
(72,-11,o),
(94,-11,cs)
);
}
);
width = 526;
},
{
anchors = (
{
name = bottom;
pos = (267,0);
},
{
name = center;
pos = (267,250);
},
{
name = top;
pos = (267,500);
}
);
layerId = "C221B64C-0844-4CE6-BA2A-18F986CD7755";
shapes = (
{
closed = 1;
nodes = (
(216,-9,o),
(216,36,o),
(216,81,cs),
(216,251,l),
(216,280,o),
(231,317,o),
(267,317,cs),
(308,317,o),
(320,279,o),
(320,236,cs),
(320,83,ls),
(320,36,o),
(322,-9,o),
(411,-9,cs),
(502,-9,o),
(502,37,o),
(502,81,cs),
(502,245,ls),
(502,388,o),
(434,498,o),
(320,498,cs),
(268,498,o),
(235,476,o),
(216,455,c),
(216,637,l),
(216,682,o),
(216,728,o),
(126,728,cs),
(35,728,o),
(35,683,o),
(35,638,cs),
(35,82,ls),
(35,37,o),
(35,-9,o),
(125,-9,cs)
);
}
);
width = 532;
},
{
anchors = (
{
name = bottom;
pos = (352,0);
},
{
name = center;
pos = (352,250);
},
{
name = top;
pos = (352,500);
}
);
layerId = "F1D2FE0C-0290-44F9-97DF-753285E87900";
shapes = (
{
closed = 1;
nodes = (
(111,-11,o),
(119,-3,o),
(119,19,cs),
(119,302,l),
(136,367,o),
(234,416,o),
(374,416,cs),
(571,416,o),
(619,332,o),
(619,235,cs),
(619,20,ls),
(619,-2,o),
(626,-10,o),
(648,-10,cs),
(669,-10,o),
(676,-3,o),
(676,19,cs),
(676,234,ls),
(676,369,o),
(590,468,o),
(376,468,cs),
(241,468,o),
(154,421,o),
(119,378,c),
(119,656,ls),
(119,679,o),
(112,687,o),
(90,687,cs),
(68,687,o),
(60,679,o),
(60,657,cs),
(60,20,ls),
(60,-3,o),
(67,-11,o),
(89,-11,cs)
);
}
);
width = 731;
},
{
anchors = (
{
name = bottom;
pos = (379,0);
},
{
name = center;
pos = (379,250);
},
{
name = top;
pos = (379,500);
}
);
layerId = "D56FD762-6887-41EE-B8AF-857F7388911F";
shapes = (
{
closed = 1;
nodes = (
(216,-9,o),
(216,36,o),
(216,81,cs),
(216,261,l),
(222,305,o),
(269,327,o),
(383,327,cs),
(497,327,o),
(540,299,o),
(540,246,cs),
(540,83,ls),
(540,36,o),
(542,-9,o),
(631,-9,cs),
(722,-9,o),
(722,37,o),
(722,81,cs),
(722,245,ls),
(722,397,o),
(616,498,o),
(406,498,cs),
(299,498,o),
(243,473,o),
(216,445,c),
(216,637,l),
(216,682,o),
(216,728,o),
(126,728,cs),
(35,728,o),
(35,683,o),
(35,638,cs),
(35,82,ls),
(35,37,o),
(35,-9,o),
(125,-9,cs)
);
}
);
width = 747;
}
);
note = h;
unicode = 104;
},
{
color = 6;
glyphname = i;
kernLeft = i;
kernRight = d;
layers = (
{
anchors = (
{
name = bottom;
pos = (126,0);
}
);
layerId = "05A6575B-AA27-4212-BC78-A0BDA398BBDE";
shapes = (
{
closed = 1;
nodes = (
(216,-9,o),
(216,36,o),
(216,81,cs),
(216,406,ls),
(216,451,o),
(216,498,o),
(126,498,cs),
(35,498,o),
(35,452,o),
(35,408,cs),
(35,82,ls),
(35,37,o),
(35,-9,o),
(125,-9,cs)
);
},
{
closed = 1;
nodes = (
(216,547,o),
(216,592,o),
(216,637,cs),
(216,681,o),
(216,728,o),
(126,728,cs),
(35,728,o),
(35,683,o),
(35,638,cs),
(35,594,o),
(35,547,o),
(125,547,cs)
);
}
);
width = 251;
},
{
anchors = (
{
name = bottom;
pos = (94,0);
}
);
layerId = "4383C18A-60F2-4889-B7DB-EDD0F2222092";
shapes = (
{
closed = 1;
nodes = (
(114,-11,o),
(121,-4,o),
(121,18,cs),
(121,435,ls),
(121,458,o),
(114,466,o),
(93,466,cs),
(71,466,o),
(64,459,o),
(64,437,cs),
(64,19,ls),
(64,-3,o),
(71,-11,o),
(92,-11,cs)
);
},
{
closed = 1;
nodes = (
(121,610,o),
(130,620,o),
(130,647,cs),
(130,676,o),
(121,687,o),
(93,687,cs),
(64,687,o),
(55,678,o),
(55,650,cs),
(55,621,o),
(64,610,o),
(92,610,cs)
);
}
);
width = 185;
},
{
anchors = (
{
name = bottom;
pos = (123,0);
}
);
layerId = "988D29BF-96E2-481F-8769-6B283BD5795A";
shapes = (
{
closed = 1;
nodes = (
(129,-11,o),
(136,-4,o),
(136,18,cs),
(136,435,ls),
(136,458,o),
(129,466,o),
(108,466,cs),
(86,466,o),
(79,459,o),
(79,437,cs),
(79,19,ls),
(79,-3,o),
(86,-11,o),
(107,-11,cs)
);
},
{
closed = 1;
nodes = (
(136,610,o),
(145,620,o),
(145,647,cs),
(145,676,o),
(136,687,o),
(108,687,cs),
(79,687,o),
(70,678,o),
(70,650,cs),
(70,621,o),
(79,610,o),
(107,610,cs)
);
}
);
width = 215;
},
{
anchors = (
{
name = bottom;
pos = (126,0);
}
);
layerId = "C221B64C-0844-4CE6-BA2A-18F986CD7755";
shapes = (
{
closed = 1;
nodes = (
(216,-9,o),
(216,36,o),
(216,81,cs),
(216,406,ls),
(216,451,o),
(216,498,o),
(126,498,cs),
(35,498,o),
(35,452,o),
(35,408,cs),
(35,82,ls),
(35,37,o),
(35,-9,o),
(125,-9,cs)
);
},
{
closed = 1;
nodes = (
(216,547,o),
(216,592,o),
(216,637,cs),
(216,681,o),
(216,728,o),
(126,728,cs),
(35,728,o),
(35,683,o),
(35,638,cs),
(35,594,o),
(35,547,o),
(125,547,cs)
);
}
);
width = 251;
},
{
anchors = (
{
name = bottom;
pos = (93,0);
}
);
layerId = "F1D2FE0C-0290-44F9-97DF-753285E87900";
shapes = (
{
closed = 1;
nodes = (
(114,-11,o),
(121,-4,o),
(121,18,cs),
(121,435,ls),
(121,458,o),
(114,466,o),
(93,466,cs),
(71,466,o),
(64,459,o),
(64,437,cs),
(64,19,ls),
(64,-3,o),
(71,-11,o),
(92,-11,cs)
);
},
{
closed = 1;
nodes = (
(121,610,o),
(130,620,o),
(130,647,cs),
(130,676,o),
(121,687,o),
(93,687,cs),
(64,687,o),
(55,678,o),
(55,650,cs),
(55,621,o),
(64,610,o),
(92,610,cs)
);
}
);
width = 185;
},
{
anchors = (
{
name = bottom;
pos = (136,0);
}
);
layerId = "D56FD762-6887-41EE-B8AF-857F7388911F";
shapes = (
{
closed = 1;
nodes = (
(226,-9,o),
(226,36,o),
(226,81,cs),
(226,406,ls),
(226,451,o),
(226,498,o),
(136,498,cs),
(45,498,o),
(45,452,o),
(45,408,cs),
(45,82,ls),
(45,37,o),
(45,-9,o),
(135,-9,cs)
);
},
{
closed = 1;
nodes = (
(226,547,o),
(226,592,o),
(226,637,cs),
(226,681,o),
(226,728,o),
(136,728,cs),
(45,728,o),
(45,683,o),
(45,638,cs),
(45,594,o),
(45,547,o),
(135,547,cs)
);
}
);
width = 271;
}
);
note = i;
unicode = 105;
},
{
color = 6;
glyphname = idotless;
kernLeft = i;
kernRight = d;
layers = (
{
anchors = (
{
name = bottom;
pos = (119,0);
},
{
name = ogonek;
pos = (213,10);
},
{
name = top;
pos = (119,500);
}
);
layerId = "05A6575B-AA27-4212-BC78-A0BDA398BBDE";
shapes = (
{
closed = 1;
nodes = (
(209,-9,o),
(209,36,o),
(209,81,cs),
(209,406,ls),
(209,451,o),
(209,498,o),
(119,498,cs),
(28,498,o),
(28,452,o),
(28,408,cs),
(28,82,ls),
(28,37,o),
(28,-9,o),
(118,-9,cs)
);
}
);
width = 237;
},
{
anchors = (
{
name = bottom;
pos = (88,0);
},
{
name = ogonek;
pos = (153,10);
},
{
name = top;
pos = (88,500);
}
);
layerId = "4383C18A-60F2-4889-B7DB-EDD0F2222092";
shapes = (
{
closed = 1;
nodes = (
(109,-11,o),
(116,-4,o),
(116,18,cs),
(116,435,ls),
(116,458,o),
(109,466,o),
(88,466,cs),
(66,466,o),
(59,459,o),
(59,437,cs),
(59,19,ls),
(59,-3,o),
(66,-11,o),
(87,-11,cs)
);
}
);
width = 175;
},
{
anchors = (
{
name = bottom;
pos = (94,-3);
},
{
name = ogonek;
pos = (215,8);
},
{
name = top;
pos = (94,500);
}
);
layerId = "988D29BF-96E2-481F-8769-6B283BD5795A";
shapes = (
{
closed = 1;
nodes = (
(115,-11,o),
(122,-4,o),
(122,18,cs),
(122,435,ls),
(122,458,o),
(115,466,o),
(94,466,cs),
(72,466,o),
(65,459,o),
(65,437,cs),
(65,19,ls),
(65,-3,o),
(72,-11,o),
(93,-11,cs)
);
}
);
width = 187;
},
{
anchors = (
{
name = bottom;
pos = (126,0);
},
{
name = ogonek;
pos = (234,10);
},
{
name = top;
pos = (126,500);
}
);
layerId = "C221B64C-0844-4CE6-BA2A-18F986CD7755";
shapes = (
{
closed = 1;
nodes = (
(216,-9,o),
(216,36,o),
(216,81,cs),
(216,406,ls),
(216,451,o),
(216,498,o),
(126,498,cs),
(35,498,o),
(35,452,o),
(35,408,cs),
(35,82,ls),
(35,37,o),
(35,-9,o),
(125,-9,cs)
);
}
);
width = 251;
},
{
anchors = (
{
name = bottom;
pos = (74,0);
},
{
name = ogonek;
pos = (175,10);
},
{
name = top;
pos = (74,500);
}
);
layerId = "F1D2FE0C-0290-44F9-97DF-753285E87900";
shapes = (
{
closed = 1;
nodes = (
(105,-11,o),
(112,-4,o),
(112,18,cs),
(112,435,ls),
(112,458,o),
(105,466,o),
(84,466,cs),
(62,466,o),
(55,459,o),
(55,437,cs),
(55,19,ls),
(55,-3,o),
(62,-11,o),
(83,-11,cs)
);
}
);
width = 167;
},
{
anchors = (
{
name = bottom;
pos = (136,0);
},
{
name = ogonek;
pos = (230,10);
},
{
name = top;
pos = (136,500);
}
);
layerId = "D56FD762-6887-41EE-B8AF-857F7388911F";
shapes = (
{
closed = 1;
nodes = (
(226,-9,o),
(226,36,o),
(226,81,cs),
(226,406,ls),
(226,451,o),
(226,498,o),
(136,498,cs),
(45,498,o),
(45,452,o),
(45,408,cs),
(45,82,ls),
(45,37,o),
(45,-9,o),
(135,-9,cs)
);
}
);
width = 271;
}
);
note = dotlessi;
unicode = 305;
},
{
color = 6;
glyphname = j;
layers = (
{
layerId = "05A6575B-AA27-4212-BC78-A0BDA398BBDE";
shapes = (
{
closed = 1;
nodes = (
(68,-219,o),
(206,-132,o),
(206,29,cs),
(206,412,ls),
(206,456,o),
(206,502,o),
(118,502,cs),
(30,502,o),
(28,459,o),
(28,419,cs),
(28,35,ls),
(28,-31,o),
(-20,-41,o),
(-42,-41,cs),
(-86,-41,o),
(-132,-46,o),
(-132,-129,cs),
(-132,-219,o),
(-86,-219,o),
(-44,-219,cs)
);
},
{
closed = 1;
nodes = (
(185,549,o),
(206,570,o),
(206,639,cs),
(206,707,o),
(186,727,o),
(118,727,cs),
(49,727,o),
(28,707,o),
(28,639,cs),
(28,570,o),
(48,549,o),
(116,549,cs)
);
}
);
width = 234;
},
{
layerId = "4383C18A-60F2-4889-B7DB-EDD0F2222092";
shapes = (
{
closed = 1;
nodes = (
(81,-200,o),
(106,-146,o),
(106,-42,cs),
(106,435,ls),
(106,457,o),
(98,466,o),
(78,466,cs),
(57,466,o),
(49,458,o),
(49,438,cs),
(49,-44,ls),
(49,-127,o),
(41,-144,o),
(26,-144,cs),
(4,-144,o),
(-5,-152,o),
(-5,-172,cs),
(-5,-192,o),
(4,-200,o),
(25,-200,cs)
);
},
{
closed = 1;
nodes = (
(105,610,o),
(114,620,o),
(114,647,cs),
(114,676,o),
(105,687,o),
(77,687,cs),
(48,687,o),
(39,678,o),
(39,650,cs),
(39,621,o),
(48,610,o),
(76,610,cs)
);
}
);
width = 164;
},
{
layerId = "988D29BF-96E2-481F-8769-6B283BD5795A";
shapes = (
{
closed = 1;
nodes = (
(76,-200,o),
(151,-146,o),
(151,-12,cs),
(151,435,ls),
(151,457,o),
(143,466,o),
(123,466,cs),
(102,466,o),
(94,458,o),
(94,438,cs),
(94,-14,ls),
(94,-127,o),
(36,-144,o),
(-39,-144,cs),
(-61,-144,o),
(-70,-152,o),
(-70,-172,cs),
(-70,-192,o),
(-61,-200,o),
(-40,-200,cs)
);
},
{
closed = 1;
nodes = (
(150,610,o),
(159,620,o),
(159,647,cs),
(159,676,o),
(150,687,o),
(122,687,cs),
(93,687,o),
(84,678,o),
(84,650,cs),
(84,621,o),
(93,610,o),
(121,610,cs)
);
}
);
width = 242;
},
{
layerId = "C221B64C-0844-4CE6-BA2A-18F986CD7755";
shapes = (
{
closed = 1;
nodes = (
(108,-219,o),
(216,-132,o),
(216,29,cs),
(216,412,ls),
(216,456,o),
(216,502,o),
(128,502,cs),
(40,502,o),
(38,459,o),
(38,419,cs),
(38,30,ls),
(38,-36,o),
(20,-41,o),
(-2,-41,cs),
(-36,-41,o),
(-82,-46,o),
(-82,-129,cs),
(-82,-219,o),
(-36,-219,o),
(-4,-219,cs)
);
},
{
closed = 1;
nodes = (
(195,549,o),
(216,570,o),
(216,639,cs),
(216,707,o),
(196,727,o),
(128,727,cs),
(59,727,o),
(38,707,o),
(38,639,cs),
(38,570,o),
(58,549,o),
(126,549,cs)
);
}
);
width = 251;
},
{
layerId = "F1D2FE0C-0290-44F9-97DF-753285E87900";
shapes = (
{
closed = 1;
nodes = (
(-18,-200,o),
(156,-146,o),
(156,-12,cs),
(156,435,ls),
(156,457,o),
(148,466,o),
(128,466,cs),
(107,466,o),
(99,458,o),
(99,438,cs),
(99,6,ls),
(99,-118,o),
(-39,-144,o),
(-184,-144,cs),
(-206,-144,o),
(-215,-152,o),
(-215,-172,cs),
(-215,-192,o),
(-206,-200,o),
(-185,-200,cs)
);
},
{
closed = 1;
nodes = (
(155,610,o),
(164,620,o),
(164,647,cs),
(164,676,o),
(155,687,o),
(127,687,cs),
(98,687,o),
(89,678,o),
(89,650,cs),
(89,621,o),
(98,610,o),
(126,610,cs)
);
}
);
width = 232;
},
{
layerId = "D56FD762-6887-41EE-B8AF-857F7388911F";
shapes = (
{
closed = 1;
nodes = (
(60,-219,o),
(256,-132,o),
(256,29,cs),
(256,412,ls),
(256,456,o),
(256,502,o),
(168,502,cs),
(80,502,o),
(78,459,o),
(78,419,cs),
(78,35,ls),
(78,-31,o),
(-28,-41,o),
(-122,-41,cs),
(-166,-41,o),
(-212,-46,o),
(-212,-129,cs),
(-212,-219,o),
(-166,-219,o),
(-124,-219,cs)
);
},
{
closed = 1;
nodes = (
(235,549,o),
(256,570,o),
(256,639,cs),
(256,707,o),
(236,727,o),
(168,727,cs),
(99,727,o),
(78,707,o),
(78,639,cs),
(78,570,o),
(98,549,o),
(166,549,cs)
);
}
);
width = 301;
}
);
note = j;
unicode = 106;
},
{
color = 6;
glyphname = k;
layers = (
{
anchors = (
{
name = bottom;
pos = (256,0);
},
{
name = top;
pos = (256,500);
}
);
layerId = "05A6575B-AA27-4212-BC78-A0BDA398BBDE";
shapes = (
{
closed = 1;
nodes = (
(350,244,l),
(431,315,l),
(479,363,o),
(483,389,o),
(431,445,cs),
(385,495,o),
(349,490,o),
(301,445,cs),
(216,362,l),
(216,638,ls),
(216,683,o),
(216,730,o),
(126,730,cs),
(35,730,o),
(35,684,o),
(35,639,cs),
(35,82,ls),
(35,38,o),
(35,-9,o),
(125,-9,cs),
(216,-9,o),
(216,36,o),
(216,81,cs),
(216,136,l),
(339,21,ls),
(390,-26,o),
(415,-30,o),
(469,26,cs),
(517,76,o),
(512,112,o),
(463,156,c)
);
}
);
width = 512;
},
{
anchors = (
{
name = bottom;
pos = (172,0);
},
{
name = top;
pos = (172,500);
}
);
layerId = "4383C18A-60F2-4889-B7DB-EDD0F2222092";
shapes = (
{
closed = 1;
nodes = (
(136,237,l),
(246,417,ls),
(257,435,o),
(259,445,o),
(240,460,cs),
(225,472,o),
(211,471,o),
(199,450,cs),
(102,278,l),
(102,656,ls),
(102,679,o),
(95,687,o),
(74,687,cs),
(53,687,o),
(45,679,o),
(45,657,cs),
(45,20,ls),
(45,-3,o),
(52,-11,o),
(73,-11,cs),
(94,-11,o),
(102,-3,o),
(102,19,cs),
(102,192,l),
(203,3,ls),
(213,-16,o),
(228,-17,o),
(246,-1,cs),
(261,13,o),
(258,22,o),
(248,40,cs)
);
}
);
width = 291;
},
{
anchors = (
{
name = bottom;
pos = (249,0);
},
{
name = top;
pos = (249,500);
}
);
layerId = "988D29BF-96E2-481F-8769-6B283BD5795A";
shapes = (
{
closed = 1;
nodes = (
(172,239,l),
(361,419,ls),
(377,434,o),
(378,444,o),
(363,461,cs),
(348,478,o),
(335,473,o),
(321,460,cs),
(129,276,l),
(129,656,ls),
(129,679,o),
(122,687,o),
(101,687,cs),
(80,687,o),
(72,679,o),
(72,657,cs),
(72,20,ls),
(72,-3,o),
(79,-11,o),
(100,-11,cs),
(121,-11,o),
(129,-3,o),
(129,19,cs),
(129,201,l),
(389,-6,ls),
(406,-20,o),
(418,-20,o),
(432,-1,cs),
(444,16,o),
(443,25,o),
(425,39,cs)
);
}
);
width = 481;
},
{
anchors = (
{
name = bottom;
pos = (245,0);
},
{
name = top;
pos = (245,500);
}
);
layerId = "C221B64C-0844-4CE6-BA2A-18F986CD7755";
shapes = (
{
closed = 1;
nodes = (
(322,232,l),
(405,314,l),
(448,366,o),
(452,393,o),
(397,444,cs),
(347,491,o),
(312,483,o),
(266,435,c),
(221,384,l),
(221,638,ls),
(221,683,o),
(221,730,o),
(131,730,cs),
(40,730,o),
(40,684,o),
(40,639,cs),
(40,82,ls),
(40,38,o),
(40,-9,o),
(130,-9,cs),
(221,-9,o),
(221,36,o),
(221,81,cs),
(221,86,l),
(287,23,ls),
(338,-25,o),
(360,-31,o),
(417,23,cs),
(467,71,o),
(464,108,o),
(416,153,c)
);
}
);
width = 473;
},
{
anchors = (
{
name = bottom;
pos = (294,0);
},
{
name = top;
pos = (294,500);
}
);
layerId = "F1D2FE0C-0290-44F9-97DF-753285E87900";
shapes = (
{
closed = 1;
nodes = (
(162,240,l),
(544,412,ls),
(564,421,o),
(568,432,o),
(557,451,cs),
(545,472,o),
(536,473,o),
(517,464,cs),
(111,275,l),
(111,656,ls),
(111,679,o),
(104,687,o),
(83,687,cs),
(62,687,o),
(54,679,o),
(54,657,cs),
(54,20,ls),
(54,-3,o),
(61,-11,o),
(82,-11,cs),
(103,-11,o),
(111,-3,o),
(111,19,cs),
(111,204,l),
(583,-8,ls),
(603,-17,o),
(614,-16,o),
(624,5,cs),
(633,24,o),
(630,34,o),
(609,43,cs)
);
}
);
width = 644;
},
{
anchors = (
{
name = bottom;
pos = (302,0);
},
{
name = top;
pos = (302,500);
}
);
layerId = "D56FD762-6887-41EE-B8AF-857F7388911F";
shapes = (
{
closed = 1;
nodes = (
(389,247,l),
(584,312,ls),
(624,325,o),
(633,371,o),
(595,442,cs),
(563,501,o),
(526,476,o),
(466,453,cs),
(226,361,l),
(226,638,ls),
(226,683,o),
(226,730,o),
(136,730,cs),
(45,730,o),
(45,684,o),
(45,639,cs),
(45,82,ls),
(45,38,o),
(45,-9,o),
(135,-9,cs),
(226,-9,o),
(226,36,o),
(226,81,cs),
(226,131,l),
(500,21,ls),
(565,-5,o),
(588,-32,o),
(629,34,cs),
(663,88,o),
(658,123,o),
(616,163,c)
);
}
);
width = 666;
}
);
note = k;
unicode = 107;
},
{
color = 6;
glyphname = l;
kernRight = l;
layers = (
{
anchors = (
{
name = bottom;
pos = (159,0);
},
{
name = center;
pos = (159,250);
},
{
name = top;
pos = (159,500);
},
{
name = topright;
pos = (291,500);
}
);
layerId = "05A6575B-AA27-4212-BC78-A0BDA398BBDE";
shapes = (
{
closed = 1;
nodes = (
(268,-9,o),
(306,-9,o),
(306,81,cs),
(306,166,o),
(268,166,o),
(243,166,cs),
(217,166,o),
(216,166,o),
(216,207,cs),
(216,638,ls),
(216,683,o),
(215,730,o),
(126,730,cs),
(35,730,o),
(35,684,o),
(35,639,cs),
(35,196,ls),
(35,14,o),
(89,-9,o),
(242,-9,cs)
);
}
);
width = 311;
},
{
anchors = (
{
name = bottom;
pos = (115,0);
},
{
name = center;
pos = (115,250);
},
{
name = top;
pos = (115,500);
},
{
name = topright;
pos = (221,500);
}
);
layerId = "4383C18A-60F2-4889-B7DB-EDD0F2222092";
shapes = (
{
closed = 1;
nodes = (
(158,-11,o),
(166,-4,o),
(166,18,cs),
(166,40,o),
(158,47,o),
(135,47,cs),
(121,47,o),
(113,68,o),
(113,126,cs),
(113,661,ls),
(113,682,o),
(105,689,o),
(83,689,cs),
(62,689,o),
(55,681,o),
(55,658,cs),
(55,128,ls),
(55,40,o),
(83,-11,o),
(136,-11,cs)
);
}
);
width = 196;
},
{
anchors = (
{
name = bottom;
pos = (134,0);
},
{
name = center;
pos = (134,250);
},
{
name = top;
pos = (134,500);
},
{
name = topright;
pos = (267,500);
}
);
layerId = "988D29BF-96E2-481F-8769-6B283BD5795A";
shapes = (
{
closed = 1;
nodes = (
(228,-11,o),
(236,-4,o),
(236,18,cs),
(236,40,o),
(228,47,o),
(205,47,cs),
(151,47,o),
(123,78,o),
(123,136,cs),
(123,661,ls),
(123,682,o),
(115,689,o),
(93,689,cs),
(72,689,o),
(65,681,o),
(65,658,cs),
(65,138,ls),
(65,40,o),
(113,-11,o),
(206,-11,cs)
);
}
);
width = 271;
},
{
anchors = (
{
name = bottom;
pos = (164,0);
},
{
name = center;
pos = (164,250);
},
{
name = top;
pos = (164,500);
},
{
name = topright;
pos = (301,500);
}
);
layerId = "C221B64C-0844-4CE6-BA2A-18F986CD7755";
shapes = (
{
closed = 1;
nodes = (
(258,-9,o),
(296,-9,o),
(296,81,cs),
(296,166,o),
(258,166,o),
(233,166,cs),
(217,166,o),
(216,180,o),
(216,207,cs),
(216,638,ls),
(216,683,o),
(215,730,o),
(126,730,cs),
(35,730,o),
(35,684,o),
(35,639,cs),
(35,196,ls),
(35,14,o),
(141,-9,o),
(232,-9,cs)
);
}
);
width = 311;
},
{
anchors = (
{
name = bottom;
pos = (156,0);
},
{
name = center;
pos = (156,250);
},
{
name = top;
pos = (156,500);
},
{
name = topright;
pos = (361,500);
}
);
layerId = "F1D2FE0C-0290-44F9-97DF-753285E87900";
shapes = (
{
closed = 1;
nodes = (
(373,-11,o),
(381,-4,o),
(381,18,cs),
(381,40,o),
(373,47,o),
(350,47,cs),
(238,47,o),
(118,78,o),
(118,136,cs),
(118,661,ls),
(118,682,o),
(110,689,o),
(88,689,cs),
(67,689,o),
(60,681,o),
(60,658,cs),
(60,138,ls),
(60,40,o),
(200,-11,o),
(351,-11,cs)
);
}
);
width = 406;
},
{
anchors = (
{
name = bottom;
pos = (221,0);
},
{
name = center;
pos = (221,250);
},
{
name = top;
pos = (221,500);
},
{
name = topright;
pos = (401,500);
}
);
layerId = "D56FD762-6887-41EE-B8AF-857F7388911F";
shapes = (
{
closed = 1;
nodes = (
(408,-9,o),
(446,-9,o),
(446,81,cs),
(446,166,o),
(408,166,o),
(383,166,cs),
(357,166,o),
(226,166,o),
(226,207,cs),
(226,638,ls),
(226,683,o),
(225,730,o),
(136,730,cs),
(45,730,o),
(45,684,o),
(45,639,cs),
(45,196,ls),
(45,14,o),
(271,-9,o),
(382,-9,cs)
);
}
);
width = 461;
}
);
note = l;
unicode = 108;
},
{
color = 3;
glyphname = lslash;
kernRight = l;
layers = (
{
layerId = "05A6575B-AA27-4212-BC78-A0BDA398BBDE";
shapes = (
{
closed = 1;
nodes = (
(379,334,ls),
(424,346,o),
(436,368,o),
(426,418,cs),
(413,465,o),
(394,477,o),
(353,466,cs),
(57,386,ls),
(7,373,o),
(-5,351,o),
(10,302,cs),
(24,255,o),
(42,242,o),
(81,253,cs)
);
},
{
pos = (90,0);
ref = l;
}
);
width = 435;
},
{
layerId = "4383C18A-60F2-4889-B7DB-EDD0F2222092";
shapes = (
{
closed = 1;
nodes = (
(211,347,ls),
(231,355,o),
(236,362,o),
(229,383,cs),
(223,402,o),
(213,408,o),
(192,399,cs),
(50,341,ls),
(29,332,o),
(24,325,o),
(30,306,cs),
(37,285,o),
(45,279,o),
(65,287,cs)
);
},
{
pos = (39,0);
ref = l;
}
);
width = 284;
},
{
layerId = "988D29BF-96E2-481F-8769-6B283BD5795A";
shapes = (
{
closed = 1;
nodes = (
(288,359,ls),
(308,365,o),
(313,374,o),
(306,395,cs),
(300,414,o),
(290,417,o),
(269,411,cs),
(37,341,ls),
(16,335,o),
(11,325,o),
(17,306,cs),
(24,285,o),
(32,281,o),
(52,287,cs)
);
},
{
pos = (44,0);
ref = l;
}
);
width = 324;
},
{
layerId = "C221B64C-0844-4CE6-BA2A-18F986CD7755";
shapes = (
{
closed = 1;
nodes = (
(340,334,ls),
(385,345,o),
(397,368,o),
(387,418,cs),
(377,466,o),
(355,476,o),
(314,466,cs),
(58,406,ls),
(7,394,o),
(-4,371,o),
(11,322,cs),
(25,275,o),
(43,264,o),
(82,273,cs)
);
},
{
pos = (71,0);
ref = l;
}
);
width = 395;
},
{
layerId = "F1D2FE0C-0290-44F9-97DF-753285E87900";
shapes = (
{
closed = 1;
nodes = (
(288,359,ls),
(308,365,o),
(313,374,o),
(306,395,cs),
(300,414,o),
(290,418,o),
(269,411,cs),
(-43,311,ls),
(-64,304,o),
(-69,295,o),
(-63,276,cs),
(-56,255,o),
(-48,250,o),
(-28,257,cs)
);
},
{
pos = (24,0);
ref = l;
}
);
width = 420;
},
{
layerId = "D56FD762-6887-41EE-B8AF-857F7388911F";
shapes = (
{
closed = 1;
nodes = (
(460,344,ls),
(505,358,o),
(517,378,o),
(507,428,cs),
(497,476,o),
(475,489,o),
(434,476,cs),
(78,366,ls),
(28,351,o),
(16,331,o),
(31,282,cs),
(45,235,o),
(63,221,o),
(102,233,cs)
);
},
{
pos = (131,0);
ref = l;
}
);
width = 592;
}
);
note = lslash;
unicode = 322;
},
{
color = 6;
glyphname = m;
kernLeft = n;
kernRight = n;
layers = (
{
anchors = (
{
name = bottom;
pos = (396,0);
},
{
name = top;
pos = (396,500);
}
);
layerId = "05A6575B-AA27-4212-BC78-A0BDA398BBDE";
shapes = (
{
closed = 1;
nodes = (
(210,-9,o),
(210,36,o),
(210,81,cs),
(210,246,ls),
(210,283,o),
(217,317,o),
(257,317,cs),
(290,317,o),
(305,294,o),
(305,246,cs),
(305,83,ls),
(305,39,o),
(305,-9,o),
(395,-9,cs),
(487,-9,o),
(487,37,o),
(487,82,cs),
(487,245,ls),
(487,298,o),
(500,317,o),
(534,317,cs),
(566,317,o),
(582,293,o),
(582,246,cs),
(582,83,ls),
(582,39,o),
(582,-9,o),
(672,-9,cs),
(764,-9,o),
(764,37,o),
(764,82,cs),
(764,245,ls),
(764,407,o),
(697,500,o),
(579,500,cs),
(513,500,o),
(465,452,o),
(444,427,c),
(412,475,o),
(363,500,o),
(302,500,cs),
(230,500,o),
(189,430,o),
(189,430,c),
(206,425,l),
(206,477,o),
(180,499,o),
(120,499,cs),
(28,499,o),
(28,454,o),
(28,409,cs),
(28,82,ls),
(28,37,o),
(28,-9,o),
(118,-9,cs)
);
}
);
width = 791;
},
{
anchors = (
{
name = bottom;
pos = (302,0);
},
{
name = top;
pos = (302,500);
}
);
layerId = "4383C18A-60F2-4889-B7DB-EDD0F2222092";
shapes = (
{
closed = 1;
nodes = (
(104,-10,o),
(111,-3,o),
(111,19,cs),
(111,275,ls),
(111,376,o),
(132,416,o),
(187,416,cs),
(227,416,o),
(262,364,o),
(262,275,cs),
(262,20,ls),
(262,-2,o),
(269,-10,o),
(291,-10,cs),
(312,-10,o),
(319,-3,o),
(319,19,c),
(319,275,ls),
(319,364,o),
(356,416,o),
(405,416,cs),
(445,416,o),
(470,364,o),
(470,275,cs),
(470,20,ls),
(470,-2,o),
(477,-10,o),
(499,-10,cs),
(520,-10,o),
(527,-3,o),
(527,19,cs),
(527,274,ls),
(527,396,o),
(491,468,o),
(417,468,cs),
(360,468,o),
(326,441,o),
(301,368,c),
(271,441,o),
(232,468,o),
(199,468,cs),
(165,468,o),
(131,455,o),
(109,410,c),
(109,440,ls),
(109,459,o),
(102,466,o),
(83,466,cs),
(62,466,o),
(55,459,o),
(55,440,cs),
(55,20,ls),
(55,-2,o),
(62,-10,o),
(82,-10,cs)
);
}
);
width = 582;
},
{
anchors = (
{
name = bottom;
pos = (420,0);
},
{
name = top;
pos = (420,500);
}
);
layerId = "988D29BF-96E2-481F-8769-6B283BD5795A";
shapes = (
{
closed = 1;
nodes = (
(124,-10,o),
(131,-3,o),
(131,19,cs),
(131,245,ls),
(131,346,o),
(192,416,o),
(277,416,cs),
(356,416,o),
(392,346,o),
(392,245,cs),
(392,20,ls),
(392,3,o),
(396,-6,o),
(409,-9,c),
(425,-17,o),
(449,-9,o),
(449,18,cs),
(449,245,ls),
(449,346,o),
(510,416,o),
(595,416,cs),
(674,416,o),
(710,346,o),
(710,245,cs),
(710,20,ls),
(710,-2,o),
(717,-10,o),
(739,-10,cs),
(760,-10,o),
(767,-3,o),
(767,19,cs),
(767,244,ls),
(767,379,o),
(710,468,o),
(597,468,cs),
(522,468,o),
(476,432,o),
(431,352,c),
(401,425,o),
(351,468,o),
(279,468,cs),
(224,468,o),
(152,435,o),
(129,380,c),
(129,440,ls),
(129,459,o),
(122,466,o),
(103,466,cs),
(82,466,o),
(75,459,o),
(75,440,cs),
(75,20,ls),
(75,-2,o),
(82,-10,o),
(102,-10,cs)
);
}
);
width = 837;
},
{
anchors = (
{
name = bottom;
pos = (381,0);
},
{
name = top;
pos = (381,500);
}
);
layerId = "C221B64C-0844-4CE6-BA2A-18F986CD7755";
shapes = (
{
closed = 1;
nodes = (
(217,-9,o),
(217,36,o),
(217,81,cs),
(217,248,ls),
(217,297,o),
(229,317,o),
(254,317,cs),
(280,317,o),
(292,297,o),
(292,248,cs),
(292,83,ls),
(292,39,o),
(292,-9,o),
(382,-9,cs),
(474,-9,o),
(474,37,o),
(474,82,cs),
(474,247,ls),
(474,296,o),
(486,317,o),
(511,317,cs),
(537,317,o),
(549,297,o),
(549,248,cs),
(549,83,ls),
(549,39,o),
(549,-9,o),
(639,-9,cs),
(731,-9,o),
(731,37,o),
(731,82,cs),
(731,245,ls),
(731,420,o),
(686,500,o),
(566,500,cs),
(532,500,o),
(483,477,o),
(441,427,c),
(418,477,o),
(376,500,o),
(319,500,cs),
(248,500,o),
(207,443,o),
(203,425,c),
(213,425,l),
(213,477,o),
(187,499,o),
(127,499,cs),
(35,499,o),
(35,454,o),
(35,409,cs),
(35,82,ls),
(35,37,o),
(35,-9,o),
(125,-9,cs)
);
}
);
width = 756;
},
{
anchors = (
{
name = bottom;
pos = (518,0);
},
{
name = top;
pos = (518,500);
}
);
layerId = "F1D2FE0C-0290-44F9-97DF-753285E87900";
shapes = (
{
closed = 1;
nodes = (
(84,-10,o),
(91,-3,o),
(91,19,cs),
(91,245,ls),
(91,352,o),
(153,416,o),
(307,416,cs),
(448,416,o),
(502,352,o),
(502,245,cs),
(502,20,ls),
(502,-2,o),
(509,-10,o),
(531,-10,cs),
(552,-10,o),
(559,-3,o),
(559,18,cs),
(559,245,ls),
(559,352,o),
(621,416,o),
(775,416,cs),
(916,416,o),
(970,352,o),
(970,245,cs),
(970,20,ls),
(970,-2,o),
(977,-10,o),
(999,-10,cs),
(1020,-10,o),
(1027,-3,o),
(1027,19,cs),
(1027,244,ls),
(1027,385,o),
(953,468,o),
(777,468,cs),
(644,468,o),
(577,435,o),
(541,352,c),
(511,425,o),
(443,468,o),
(309,468,cs),
(189,468,o),
(126,432,o),
(89,370,c),
(89,440,ls),
(89,459,o),
(82,466,o),
(63,466,cs),
(42,466,o),
(35,459,o),
(35,440,cs),
(35,20,ls),
(35,-2,o),
(42,-10,o),
(62,-10,cs)
);
}
);
width = 1062;
},
{
anchors = (
{
name = bottom;
pos = (563,0);
},
{
name = top;
pos = (563,500);
}
);
layerId = "D56FD762-6887-41EE-B8AF-857F7388911F";
shapes = (
{
closed = 1;
nodes = (
(217,-9,o),
(217,36,o),
(217,81,cs),
(217,246,ls),
(217,295,o),
(232,327,o),
(334,327,cs),
(437,327,o),
(452,295,o),
(452,246,cs),
(452,83,ls),
(452,39,o),
(452,-9,o),
(542,-9,cs),
(634,-9,o),
(634,37,o),
(634,82,cs),
(634,245,ls),
(634,294,o),
(649,327,o),
(751,327,cs),
(854,327,o),
(869,295,o),
(869,246,cs),
(869,83,ls),
(869,39,o),
(869,-9,o),
(959,-9,cs),
(1051,-9,o),
(1051,37,o),
(1051,82,cs),
(1051,245,ls),
(1051,398,o),
(991,500,o),
(806,500,cs),
(693,500,o),
(623,467,o),
(591,417,c),
(558,467,o),
(505,500,o),
(379,500,cs),
(266,500,o),
(213,463,o),
(203,415,c),
(213,415,l),
(213,467,o),
(187,499,o),
(127,499,cs),
(35,499,o),
(35,454,o),
(35,409,cs),
(35,82,ls),
(35,37,o),
(35,-9,o),
(125,-9,cs)
);
}
);
width = 1086;
}
);
note = m;
unicode = 109;
},
